<svg width="24" height="25" viewBox="0 0 24 25" fill="none" xmlns="http://www.w3.org/2000/svg">
<path d="M12 24.8409C5.37258 24.8409 0 19.4683 0 12.8409C0 6.21352 5.37258 0.840942 12 0.840942C18.6274 0.840942 24 6.21352 24 12.8409C24 19.4683 18.6274 24.8409 12 24.8409ZM12 22.4409C17.302 22.4409 21.6 18.1429 21.6 12.8409C21.6 7.53901 17.302 3.24094 12 3.24094C6.69806 3.24094 2.4 7.53901 2.4 12.8409C2.4 18.1429 6.69806 22.4409 12 22.4409ZM13.2 11.0409V16.4409H14.4V18.8409H9.6V16.4409H10.8V13.4409H9.6V11.0409H13.2ZM13.8 8.04094C13.8 9.03506 12.9941 9.84094 12 9.84094C11.0059 9.84094 10.2 9.03506 10.2 8.04094C10.2 7.04683 11.0059 6.24094 12 6.24094C12.9941 6.24094 13.8 7.04683 13.8 8.04094Z" fill="white"/>
</svg>
