<svg width="71" height="24" viewBox="0 0 71 24" fill="none" xmlns="http://www.w3.org/2000/svg">
<path fill-rule="evenodd" clip-rule="evenodd" d="M35.0748 1.9947C35.4194 1.7267 35.9019 1.7267 36.2465 1.9947L44.8342 8.67409C45.0667 8.85487 45.2026 9.13283 45.2026 9.42729V19.9235C45.2026 20.6827 44.901 21.4108 44.3642 21.9476C43.8273 22.4845 43.0992 22.7861 42.34 22.7861H28.9812C28.222 22.7861 27.4939 22.4845 26.9571 21.9476C26.4202 21.4108 26.1187 20.6827 26.1187 19.9235V9.42729C26.1187 9.13283 26.2546 8.85487 26.487 8.67409L35.0748 1.9947ZM28.027 9.89397V19.9235C28.027 20.1765 28.1276 20.4192 28.3065 20.5982C28.4855 20.7771 28.7282 20.8777 28.9812 20.8777H42.34C42.5931 20.8777 42.8358 20.7771 43.0147 20.5982C43.1937 20.4192 43.2942 20.1765 43.2942 19.9235V9.89397L35.6606 3.95674L28.027 9.89397Z" fill="#F09308"/>
<path fill-rule="evenodd" clip-rule="evenodd" d="M31.8442 12.2899C31.8442 11.7629 32.2714 11.3357 32.7984 11.3357H38.5236C39.0506 11.3357 39.4778 11.7629 39.4778 12.2899V21.8319C39.4778 22.3589 39.0506 22.7861 38.5236 22.7861C37.9966 22.7861 37.5694 22.3589 37.5694 21.8319V13.2441H33.7526V21.8319C33.7526 22.3589 33.3254 22.7861 32.7984 22.7861C32.2714 22.7861 31.8442 22.3589 31.8442 21.8319V12.2899Z" fill="#F09308"/>
</svg>
