<svg width="25" height="25" viewBox="0 0 25 25" fill="none" xmlns="http://www.w3.org/2000/svg">
<path d="M2.91992 4.74048C2.91992 4.1882 3.36764 3.74048 3.91992 3.74048H21.9199C22.4722 3.74048 22.9199 4.1882 22.9199 4.74048V20.7405C22.9199 21.2928 22.4722 21.7405 21.9199 21.7405H3.91992C3.36764 21.7405 2.91992 21.2928 2.91992 20.7405V4.74048ZM4.91992 5.74048V19.7405H20.9199V5.74048H4.91992ZM6.91992 7.74048H8.91992V9.74048H6.91992V7.74048ZM8.91992 11.7405H6.91992V13.7405H8.91992V11.7405ZM6.91992 15.7405H8.91992V17.7405H6.91992V15.7405ZM18.9199 7.74048H10.9199V9.74048H18.9199V7.74048ZM10.9199 15.7405H18.9199V17.7405H10.9199V15.7405ZM18.9199 11.7405H10.9199V13.7405H18.9199V11.7405Z" fill="#484C52"/>
</svg>
