<svg width="24" height="24" viewBox="0 0 24 24" fill="none" xmlns="http://www.w3.org/2000/svg">
<path fill-rule="evenodd" clip-rule="evenodd" d="M5.14983 15.5959C6.04457 14.7011 7.25809 14.1985 8.52343 14.1985H16.157C17.4224 14.1985 18.6359 14.7011 19.5306 15.5959C20.4254 16.4906 20.928 17.7041 20.928 18.9695V20.8779C20.928 21.4049 20.5008 21.8321 19.9738 21.8321C19.4468 21.8321 19.0196 21.4049 19.0196 20.8779V18.9695C19.0196 18.2103 18.718 17.4822 18.1812 16.9453C17.6443 16.4085 16.9162 16.1069 16.157 16.1069H8.52343C7.76423 16.1069 7.03611 16.4085 6.49927 16.9453C5.96243 17.4822 5.66084 18.2103 5.66084 18.9695V20.8779C5.66084 21.4049 5.23363 21.8321 4.70664 21.8321C4.17965 21.8321 3.75244 21.4049 3.75244 20.8779V18.9695C3.75244 17.7041 4.2551 16.4906 5.14983 15.5959Z" fill="#484C52"/>
<path fill-rule="evenodd" clip-rule="evenodd" d="M12.3398 4.65644C10.7589 4.65644 9.47724 5.93807 9.47724 7.51904C9.47724 9.10001 10.7589 10.3816 12.3398 10.3816C13.9208 10.3816 15.2024 9.10001 15.2024 7.51904C15.2024 5.93807 13.9208 4.65644 12.3398 4.65644ZM7.56885 7.51904C7.56885 4.88409 9.70489 2.74805 12.3398 2.74805C14.9748 2.74805 17.1108 4.88409 17.1108 7.51904C17.1108 10.154 14.9748 12.29 12.3398 12.29C9.70489 12.29 7.56885 10.154 7.56885 7.51904Z" fill="#484C52"/>
</svg>
