<svg width="23" height="24" viewBox="0 0 23 24" fill="none" xmlns="http://www.w3.org/2000/svg">
<path d="M2.69274 9.74809C2.28244 9.74809 1.95801 9.42366 1.95801 9.01336V6.80916C1.95801 4.22328 4.06679 2.1145 6.65266 2.1145H8.85686C9.26717 2.1145 9.5916 2.43893 9.5916 2.84923C9.5916 3.25954 9.26717 3.58397 8.85686 3.58397H6.65266C4.86831 3.58397 3.42747 5.03435 3.42747 6.80916V9.01336C3.42747 9.42366 3.0935 9.74809 2.69274 9.74809Z" fill="white"/>
<path d="M20.3075 9.74809C19.9068 9.74809 19.5728 9.42366 19.5728 9.01336V6.80916C19.5728 5.02481 18.1224 3.58397 16.3476 3.58397H14.1434C13.7331 3.58397 13.4087 3.25 13.4087 2.84923C13.4087 2.44847 13.7331 2.1145 14.1434 2.1145H16.3476C18.9335 2.1145 21.0423 4.22328 21.0423 6.80916V9.01336C21.0423 9.42366 20.7179 9.74809 20.3075 9.74809Z" fill="white"/>
<path d="M16.3472 21.1983H15.0209C14.6201 21.1983 14.2861 20.8739 14.2861 20.4636C14.2861 20.0628 14.6106 19.7289 15.0209 19.7289H16.3472C18.1316 19.7289 19.5724 18.2785 19.5724 16.5037V15.1869C19.5724 14.7861 19.8968 14.4521 20.3071 14.4521C20.7079 14.4521 21.0419 14.7766 21.0419 15.1869V16.5037C21.0419 19.0896 18.9331 21.1983 16.3472 21.1983Z" fill="white"/>
<path d="M8.85686 21.1985H6.65266C4.06679 21.1985 1.95801 19.0898 1.95801 16.5039V14.2997C1.95801 13.8894 2.28244 13.5649 2.69274 13.5649C3.10305 13.5649 3.42747 13.8894 3.42747 14.2997V16.5039C3.42747 18.2882 4.87786 19.7291 6.65266 19.7291H8.85686C9.25763 19.7291 9.5916 20.0535 9.5916 20.4638C9.5916 20.8741 9.26717 21.1985 8.85686 21.1985Z" fill="white"/>
<path d="M17.6645 10.9216H16.3668H6.63401H5.3363C4.92599 10.9216 4.60156 11.2556 4.60156 11.6564C4.60156 12.0571 4.92599 12.3911 5.3363 12.3911H6.63401H16.3668H17.6645C18.0748 12.3911 18.3993 12.0571 18.3993 11.6564C18.3993 11.2556 18.0748 10.9216 17.6645 10.9216Z" fill="white"/>
<path d="M6.63379 13.5075V13.8224C6.63379 15.4064 7.91241 16.685 9.49638 16.685H13.504C15.088 16.685 16.3666 15.4064 16.3666 13.8224V13.5075C16.3666 13.393 16.2807 13.3071 16.1662 13.3071H6.83417C6.71967 13.3071 6.63379 13.393 6.63379 13.5075Z" fill="white"/>
<path d="M6.63379 9.80541V9.49052C6.63379 7.90656 7.91241 6.62793 9.49638 6.62793H13.504C15.088 6.62793 16.3666 7.90656 16.3666 9.49052V9.80541C16.3666 9.91991 16.2807 10.0058 16.1662 10.0058H6.83417C6.71967 10.0058 6.63379 9.91991 6.63379 9.80541Z" fill="white"/>
</svg>
