<svg width="25" height="25" viewBox="0 0 25 25" fill="none" xmlns="http://www.w3.org/2000/svg">
<path d="M15.085 2.74341C17.2941 2.74341 19.085 4.53427 19.085 6.74341C19.085 7.47244 18.8899 8.15592 18.5492 8.74452L23.085 8.74341V10.7434H21.085V20.7434C21.085 21.2957 20.6373 21.7434 20.085 21.7434H4.08496C3.53268 21.7434 3.08496 21.2957 3.08496 20.7434V10.7434H1.08496V8.74341L5.62073 8.74452C5.28 8.15592 5.08496 7.47244 5.08496 6.74341C5.08496 4.53427 6.87582 2.74341 9.08496 2.74341C10.2802 2.74341 11.353 3.26762 12.0859 4.09867C12.817 3.26762 13.8898 2.74341 15.085 2.74341ZM11.085 10.7434H5.08496V19.7434H11.085V10.7434ZM19.085 10.7434H13.085V19.7434H19.085V10.7434ZM9.08496 4.74341C7.98039 4.74341 7.08496 5.63884 7.08496 6.74341C7.08496 7.79777 7.90084 8.66157 8.9357 8.73792L9.08496 8.74341H11.085V6.74341C11.085 5.74176 10.3487 4.9121 9.38774 4.76618L9.23423 4.74889L9.08496 4.74341ZM15.085 4.74341C14.0306 4.74341 13.1668 5.55929 13.0905 6.59415L13.085 6.74341V8.74341H15.085C16.1393 8.74341 17.0031 7.92753 17.0795 6.89267L17.085 6.74341C17.085 5.63884 16.1896 4.74341 15.085 4.74341Z" fill="#484C52"/>
</svg>
