<svg width="20" height="20" viewBox="0 0 20 20" fill="none" xmlns="http://www.w3.org/2000/svg">
<path d="M9.82484 11.841L7.09984 14.566C6.79984 14.2993 6.50817 14.0243 6.22484 13.741C5.3665 12.8743 4.5915 11.966 3.89984 11.016C3.2165 10.066 2.6665 9.11602 2.2665 8.17435C1.8665 7.22435 1.6665 6.31602 1.6665 5.44935C1.6665 4.88268 1.7665 4.34102 1.9665 3.84102C2.1665 3.33268 2.48317 2.86602 2.92484 2.44935C3.45817 1.92435 4.0415 1.66602 4.65817 1.66602C4.8915 1.66602 5.12484 1.71602 5.33317 1.81602C5.54984 1.91602 5.7415 2.06602 5.8915 2.28268L7.82484 5.00768C7.97484 5.21602 8.08317 5.40768 8.15817 5.59102C8.23317 5.76602 8.27484 5.94102 8.27484 6.09935C8.27484 6.29935 8.2165 6.49935 8.09984 6.69102C7.9915 6.88268 7.83317 7.08268 7.63317 7.28268L6.99984 7.94102C6.90817 8.03268 6.8665 8.14102 6.8665 8.27435C6.8665 8.34102 6.87484 8.39935 6.8915 8.46602C6.9165 8.53268 6.9415 8.58268 6.95817 8.63268C7.10817 8.90768 7.3665 9.26602 7.73317 9.69935C8.10817 10.1327 8.50817 10.5743 8.9415 11.016C9.2415 11.3077 9.53317 11.591 9.82484 11.841Z" fill="#F09308"/>
<path d="M13.8662 12.1992C13.9512 12.1992 14.0541 12.2167 14.1855 12.2705C14.3268 12.3283 14.4871 12.417 14.6768 12.5459L17.4268 14.499L17.4316 14.502C17.5803 14.6049 17.6642 14.7086 17.7139 14.8174C17.7769 14.977 17.8086 15.1201 17.8086 15.2744C17.8086 15.4465 17.7775 15.6284 17.7148 15.8066C17.6886 15.8766 17.6721 15.9194 17.6523 15.959L17.6475 15.9688C17.5257 16.2266 17.3696 16.4683 17.1631 16.6963C16.8145 17.0804 16.4418 17.3506 16.0322 17.5283L15.9531 17.5615C15.5216 17.737 15.0524 17.833 14.542 17.833C13.7711 17.833 12.9286 17.6516 12.0205 17.2646C11.2155 16.9216 10.4065 16.472 9.59863 15.915L9.25293 15.6699C9.08078 15.5419 8.91292 15.4161 8.74902 15.29L10.7812 13.2568C10.8966 13.3315 11.0063 13.3962 11.1094 13.4502L11.1318 13.4619L11.1562 13.4717C11.1638 13.4747 11.1758 13.4801 11.2021 13.4922C11.2254 13.5028 11.2588 13.5187 11.2949 13.5342L11.3164 13.542C11.4561 13.5944 11.5865 13.6074 11.7002 13.6074C11.9815 13.6074 12.2153 13.4996 12.3955 13.3193L12.3945 13.3184L13.0254 12.6963L13.0264 12.6973L13.0283 12.6943C13.2163 12.5064 13.3755 12.3854 13.5059 12.3174L13.5352 12.3018C13.6581 12.2269 13.7606 12.1993 13.8662 12.1992Z" fill="#F09308" stroke="#F09308"/>
</svg>
