<svg width="46" height="46" viewBox="0 0 46 46" fill="none" xmlns="http://www.w3.org/2000/svg">
<path d="M7.38472 23.9424H3.84326V30.693H9.6593V26.8465L7.38472 23.9424Z" fill="#FF634C"/>
<path d="M7.00951 19.1228L7.70121 16.9961L6.41672 14.8314L6.94662 12.5978L5.4456 10.3353L6.55355 8.09487L5.63337 5.51959L6.02437 3.14286L4.97679 1.95459H3.63965V23.9424H7.70121L8.50064 21.4584L7.00951 19.1228Z" fill="#DEDDE1"/>
<path d="M38.6064 30.7104H40.8578V44.0305H38.6064V30.7104Z" fill="#E59752"/>
<path d="M39.0625 25.6426H43.9096V30.7103H39.0625V25.6426Z" fill="#103358"/>
<path d="M29.6893 25.7982C30.6664 25.1529 31.3266 23.975 31.428 22.6519V21.0832C32.5882 21.0832 33.5291 20.1423 33.5291 18.9818C33.5291 17.8211 32.5882 16.8802 31.428 16.8802V14.1466C31.428 10.3246 28.8836 7.09804 25.3965 6.06592C21.9098 7.09804 19.3653 10.3247 19.3653 14.1465H19.3324V22.6519C19.4339 23.9749 20.0788 25.1528 21.0556 25.7979L25.3789 28.2695L29.6893 25.7982ZM26.9934 30.275C26.9979 30.2824 27.0021 30.2898 27.0067 30.2968C27.0021 30.2898 26.9979 30.2824 26.9933 30.275H26.9934ZM27.101 30.4273C27.1098 30.4386 27.1194 30.4491 27.1284 30.4599C27.1194 30.4492 27.1098 30.4386 27.101 30.4273ZM18.4946 30.7593C18.5126 30.7481 18.5298 30.7365 18.547 30.7249C18.5298 30.7366 18.5126 30.7481 18.4946 30.7593ZM27.165 30.5021C27.1769 30.5154 27.1899 30.5277 27.2021 30.5407C27.1899 30.5277 27.177 30.5154 27.165 30.5021ZM19.1513 29.8683L19.1524 29.8636L19.1513 29.8682V29.8683ZM18.9657 30.2911L18.9762 30.2743C18.9726 30.2799 18.9692 30.2855 18.9657 30.2911Z" fill="#FEBBA0"/>
<path d="M22.9888 31.8888C24.5929 31.8888 26.0003 31.0493 26.798 29.7866C26.7766 29.6854 26.7658 29.5822 26.7657 29.4788V27.6514L22.9891 29.1138L19.2031 27.6514V29.4788C19.2031 29.5799 19.1922 29.6789 19.1729 29.7754C19.9692 31.0444 21.38 31.8888 22.9888 31.8888ZM27.422 30.725C27.4392 30.737 27.4571 30.7485 27.475 30.7601C27.4571 30.7485 27.4392 30.7369 27.422 30.725Z" fill="#FEBBA0"/>
<path d="M33.734 33.3909L27.6962 30.8753C27.6639 30.8616 27.632 30.8469 27.6011 30.8311C27.5906 30.8261 27.5805 30.8202 27.5702 30.8149C27.5498 30.8041 27.5295 30.7928 27.5095 30.7812C27.4979 30.7742 27.4863 30.7672 27.4751 30.7602C27.4572 30.7486 27.4393 30.737 27.4221 30.7251C27.4105 30.7174 27.3991 30.7094 27.3878 30.7012C27.3705 30.6887 27.3541 30.676 27.3379 30.663C27.327 30.6547 27.3164 30.6462 27.306 30.6374C27.2863 30.6208 27.2672 30.6038 27.2485 30.5861C27.2323 30.5713 27.2171 30.5562 27.202 30.5409C27.1895 30.5282 27.1769 30.5155 27.1649 30.5022C27.1523 30.4886 27.1403 30.4745 27.128 30.4604C27.1059 30.4343 27.0846 30.4075 27.0642 30.38C27.057 30.3703 27.05 30.3605 27.0431 30.3506C27.0305 30.3331 27.0182 30.3152 27.0066 30.2973C27.0021 30.2899 26.9978 30.2826 26.9932 30.2755C26.9487 30.2036 26.9102 30.1281 26.8782 30.0499V30.0495C26.8678 30.0244 26.8583 29.999 26.8498 29.9733C26.848 29.9681 26.8459 29.9632 26.8445 29.9582C26.8361 29.9331 26.8283 29.9077 26.8213 29.8821C26.8199 29.8772 26.8185 29.8722 26.8174 29.8677C26.8103 29.8409 26.8038 29.8138 26.7981 29.7866C26.0004 31.0494 24.5931 31.8889 22.9889 31.8889C22.9534 31.8889 22.9184 31.8864 22.8829 31.8853L19.2695 33.3909C17.9938 33.9226 17.1631 35.3671 17.1631 36.7488V44.0304H35.8404V36.7488C35.8404 35.3671 35.0097 33.9223 33.734 33.3909Z" fill="#ECEBED"/>
<path d="M28.3366 31.1416V37.6763H17.1729V44.0303H31.9485V32.6465L28.3366 31.1416Z" fill="#103358"/>
<path d="M33.8665 14.138V12.2295C33.8665 12.0414 33.7138 11.8887 33.5256 11.8887H32.9357C32.7764 9.39241 31.7063 7.06914 29.9007 5.31682C28.6422 4.09585 27.1162 3.24161 25.4594 2.80713C23.8015 3.24125 22.2744 4.09513 21.0153 5.31682C19.2093 7.06914 18.1395 9.39241 17.9803 11.8887H17.5717C17.4814 11.8887 17.3947 11.9246 17.3308 11.9886C17.2669 12.0525 17.231 12.1391 17.231 12.2295V14.138C17.231 14.3261 17.3837 14.4787 17.5717 14.4787H33.5253C33.7138 14.4787 33.8664 14.3261 33.8664 14.138H33.8665Z" fill="#F7D04A"/>
<path d="M23.0016 38.6144H22.9893C22.4713 38.6144 22.0513 38.1943 22.0513 37.6763C22.0513 37.1582 22.4713 36.7383 22.9892 36.7383H23.0016C23.5196 36.7383 23.9397 37.1583 23.9397 37.6763C23.9397 38.1942 23.5196 38.6144 23.0016 38.6144Z" fill="black"/>
<path d="M22.9891 38.6143H22.9768C22.4589 38.6143 22.0388 38.1942 22.0388 37.6762C22.0388 37.1582 22.4589 36.7382 22.9768 36.7382H22.9891C23.5072 36.7382 23.9272 37.1582 23.9272 37.6762C23.9272 38.1941 23.5072 38.6143 22.9891 38.6143ZM0.950367 44.9684H0.938059C0.420109 44.9684 0 44.5483 0 44.0302C0 43.5118 0.420109 43.0922 0.938059 43.0922H0.950367C1.46841 43.0922 1.88852 43.5119 1.88852 44.0302C1.88852 44.5483 1.46841 44.9684 0.950367 44.9684ZM45.031 44.9684H45.0187C44.5008 44.9684 44.0807 44.5483 44.0807 44.0299C44.0807 43.5119 44.5007 43.0918 45.0187 43.0918H45.031C45.549 43.0918 45.9691 43.5119 45.9691 44.0299C45.9691 44.5483 45.549 44.9684 45.031 44.9684ZM26.406 20.1406C25.828 20.1406 25.3573 19.6703 25.3573 19.0923C25.3573 18.5139 25.828 18.0436 26.406 18.0436C26.9844 18.0436 27.4546 18.5139 27.4546 19.0923C27.4546 19.6703 26.9844 20.1406 26.406 20.1406ZM19.5631 20.1406C18.9851 20.1406 18.5145 19.6703 18.5145 19.0923C18.5145 18.5139 18.9851 18.0436 19.5631 18.0436C20.1415 18.0436 20.6118 18.5139 20.6118 19.0923C20.6118 19.6703 20.1415 20.1406 19.5631 20.1406ZM22.9884 25.2567C21.9657 25.2567 21.1337 24.4242 21.1337 23.4016C21.1337 22.8836 21.5537 22.4635 22.0717 22.4635H23.9054C24.4235 22.4635 24.8436 22.8836 24.8436 23.4016C24.8432 24.4246 24.0115 25.2567 22.9884 25.2567ZM7.06639 39.0043L4.87717 36.8153L5.60679 36.0853C5.97317 35.719 5.97317 35.1252 5.60679 34.7588C5.24041 34.3924 4.64663 34.3924 4.28025 34.7588L1.49401 37.545C1.12763 37.9114 1.12763 38.5052 1.49401 38.8716C1.6772 39.0548 1.91718 39.1464 2.15733 39.1464C2.39748 39.1464 2.63736 39.0548 2.82064 38.8716L3.55018 38.142L5.73949 40.3312C5.92268 40.5145 6.16265 40.6056 6.4028 40.6056C6.64296 40.6056 6.88284 40.514 7.06603 40.3312C7.43277 39.9648 7.43277 39.3706 7.06639 39.0042V39.0043ZM45.7252 10.9863L42.939 8.20008C42.5729 7.8337 41.9791 7.8337 41.6124 8.20008C41.246 8.56655 41.246 9.16069 41.6124 9.52707L42.342 10.2567L40.1528 12.4459C39.7864 12.8123 39.7864 13.4062 40.1528 13.7725C40.336 13.9557 40.576 14.0473 40.8161 14.0473C41.0563 14.0473 41.2962 13.9557 41.4794 13.7725L43.6686 11.5833L44.3982 12.3133C44.4852 12.4006 44.5886 12.4697 44.7025 12.5169C44.8163 12.564 44.9384 12.5882 45.0616 12.588C45.3016 12.588 45.5416 12.4961 45.7248 12.3133C46.0916 11.9469 46.0916 11.3527 45.7252 10.9863Z" fill="black"/>
<path d="M43.9097 24.7046H35.5546C35.0367 24.7046 34.6162 25.1246 34.6162 25.6427V30.7104C34.6162 31.2284 35.0367 31.6485 35.5546 31.6485H37.6685V43.0924H36.7791V36.7488C36.7791 34.92 35.6754 33.1832 34.0955 32.5248L28.0576 30.0092C27.9528 29.9658 27.8633 29.8923 27.8003 29.7979C27.7374 29.7035 27.7039 29.5926 27.7042 29.4792V28.0181L30.1566 26.6123C30.1735 26.6024 30.1903 26.5919 30.2069 26.581C31.4345 25.7703 32.2409 24.3283 32.3635 22.7237C32.3655 22.6998 32.3663 22.676 32.3663 22.6521V21.8734C33.5844 21.4771 34.4677 20.3306 34.4677 18.9818C34.4677 17.6332 33.5844 16.4866 32.3663 16.0904V15.4169H33.5258C34.2309 15.4169 34.8047 14.8431 34.8047 14.138V12.2295C34.8047 11.6129 34.366 11.0966 33.7841 10.977C33.442 8.57433 32.3133 6.3507 30.5539 4.64366C29.2933 3.42026 27.767 2.52048 26.1035 2.01403V1.32124C26.1035 0.592699 25.53 0 24.8247 0H21.1446C20.4391 0 19.8653 0.592789 19.8653 1.32133V1.96039C18.1313 2.45525 16.5422 3.37363 15.2335 4.64375C13.4609 6.36381 12.3283 8.60784 11.9953 11.0318C11.5106 11.2136 11.1646 11.6818 11.1646 12.2296V14.1381C11.1646 14.8432 11.7379 15.417 12.4434 15.417H13.6033V16.0905C12.3848 16.4867 11.5018 17.6329 11.5018 18.9819C11.5018 20.3307 12.3848 21.4769 13.6033 21.8734V22.6522C13.6033 22.6761 13.604 22.6999 13.6057 22.7238C13.729 24.3347 14.5298 25.7767 15.7476 26.5811C15.7645 26.5923 15.7813 26.6029 15.7988 26.6127L18.2654 28.0228V29.4789C18.2655 29.5924 18.232 29.7033 18.1691 29.7977C18.1062 29.8921 18.0167 29.9657 17.9119 30.0092L11.8742 32.5249C10.2938 33.1833 9.19043 34.9205 9.19043 36.7489V43.092H3.98542C3.46747 43.092 3.04736 43.5121 3.04736 44.0301C3.04736 44.5485 3.46747 44.9686 3.98542 44.9686H41.9838C42.5017 44.9686 42.9218 44.5485 42.9218 44.0301C42.9218 43.5121 42.5018 43.092 41.9838 43.092H41.7963V31.6485H43.9097C44.4281 31.6485 44.8482 31.2284 44.8482 30.7104V25.6427C44.8482 25.1246 44.4281 24.7046 43.9097 24.7046ZM13.041 12.808C13.2425 12.7665 13.4248 12.6598 13.5597 12.5045C13.6947 12.3492 13.7749 12.1538 13.7879 11.9485C13.9326 9.68839 14.9099 7.57221 16.5401 5.99006C17.7797 4.78768 19.3207 3.96543 20.9972 3.61199C21.2077 3.56767 21.3967 3.45228 21.5323 3.28518C21.6679 3.11809 21.7419 2.90944 21.742 2.69423V1.87621H24.2273V2.73421C24.2273 3.17121 24.5292 3.55027 24.9552 3.64846C26.5664 4.01907 28.0506 4.8291 29.2473 5.99006C30.8779 7.57221 31.8553 9.68839 31.9995 11.9485C32.0145 12.1852 32.1187 12.4074 32.291 12.5704C32.4633 12.7334 32.691 12.8251 32.9281 12.827V13.5404H13.041V12.808ZM16.7588 25.0001C16.0417 24.5147 15.5658 23.6268 15.4795 22.6143V21.0831C15.4795 20.5651 15.0594 20.145 14.5414 20.145C13.8999 20.145 13.378 19.6231 13.378 18.9819C13.378 18.3404 13.8999 17.8185 14.5414 17.8185C15.0594 17.8185 15.4795 17.3984 15.4795 16.8805V15.4169H30.4897V16.8805C30.4897 17.3984 30.9098 17.8185 31.4282 17.8185C32.0693 17.8185 32.5912 18.3404 32.5912 18.982C32.5912 19.6231 32.0693 20.145 31.4282 20.145C30.9098 20.145 30.4897 20.5651 30.4897 21.0831V22.6143C30.4048 23.6062 29.9114 24.5154 29.195 25.0005L24.1582 27.8884C24.1413 27.8983 24.1245 27.9088 24.108 27.9197C23.4047 28.384 22.5648 28.384 21.8615 27.9197C21.8449 27.9085 21.8278 27.8979 21.8103 27.888L16.7588 25.0001ZM25.8298 29.5361C25.157 30.4265 24.1168 30.9508 22.9892 30.9508C21.8562 30.9508 20.8125 30.4223 20.1398 29.5249C20.1401 29.5094 20.1416 29.4944 20.1416 29.4793V29.0954L20.8543 29.5028C21.513 29.9306 22.2487 30.1443 22.9846 30.1443C23.7209 30.1443 24.4569 29.9303 25.1156 29.5024L25.8277 29.0943V29.4793C25.8277 29.4982 25.8295 29.5168 25.8298 29.5361ZM13.0921 43.0924H11.0667V36.7488C11.0667 35.6913 11.724 34.6199 12.5959 34.2567L13.0921 34.0503V43.0924ZM31.0106 43.0924H14.9682V33.2685L16.7036 32.5453V37.6764C16.7036 38.1945 17.1237 38.6146 17.6417 38.6146H19.9419C20.4599 38.6146 20.8799 38.1945 20.8799 37.6764C20.8799 37.1584 20.4599 36.7385 19.9419 36.7385H18.5797V31.7636L18.6334 31.7412C18.8627 31.6456 19.0761 31.5158 19.2665 31.3562C20.2618 32.2935 21.5807 32.8269 22.9891 32.8269C24.3946 32.8269 25.7118 32.295 26.7067 31.3604C26.8961 31.5182 27.1081 31.6465 27.3356 31.7412L27.3984 31.7675V36.7384H26.0364C25.5184 36.7384 25.0983 37.1585 25.0983 37.6764C25.0983 38.1944 25.5184 38.6146 26.0364 38.6146H28.3365C28.8545 38.6146 29.2746 38.1945 29.2746 37.6764V32.549L31.0101 33.2723V43.0924H31.0106ZM34.9026 43.0924H32.8868V34.0539L33.3736 34.2568C34.2453 34.62 34.9027 35.6915 34.9027 36.7489L34.9026 43.0924ZM39.9199 43.0924H39.5447V31.6485H39.9199V43.0924ZM42.9718 29.772H36.4928V26.5807H42.9717L42.9718 29.772Z" fill="black"/>
<path d="M10.3979 26.2683L8.65473 24.0422L9.39387 21.7455C9.47949 21.4796 9.44194 21.1893 9.29136 20.9535L8.03849 18.9913L8.59327 17.2863C8.67683 17.0298 8.64556 16.7498 8.50801 16.5178L7.41695 14.6787L7.85943 12.8142C7.88913 12.6892 7.89283 12.5594 7.87032 12.4329C7.8478 12.3065 7.79954 12.1859 7.72853 12.0789L6.52624 10.2669L7.39485 8.51083C7.45063 8.39799 7.48313 8.27509 7.49041 8.14943C7.4977 8.02377 7.47962 7.89793 7.43725 7.77941L6.59847 5.43215L6.95012 3.29522C6.97268 3.15802 6.96449 3.01752 6.92614 2.88387C6.8878 2.75022 6.82025 2.62675 6.72839 2.52238L5.68045 1.3342C5.59239 1.2344 5.4841 1.15446 5.36279 1.09971C5.24147 1.04495 5.10989 1.01662 4.97679 1.0166H0.950266C0.432316 1.0166 0.012207 1.43662 0.012207 1.95457V30.6931C0.012207 31.2115 0.432227 31.6315 0.950266 31.6315H9.65954C10.1775 31.6315 10.5976 31.2115 10.5976 30.6931V26.8467C10.5974 26.637 10.5271 26.4334 10.3979 26.2683ZM1.88841 2.89272H4.55318L5.02621 3.42971L4.70753 5.36729C4.68181 5.52442 4.69643 5.68552 4.75003 5.83546L5.53652 8.03591L4.60475 9.91949C4.53193 10.0668 4.49908 10.2307 4.50949 10.3947C4.51989 10.5588 4.57319 10.7172 4.66405 10.8541L5.9401 12.7773L5.50427 14.6149C5.44812 14.8516 5.48596 15.1008 5.60983 15.3101L6.67781 17.1098L6.11736 18.8326C6.07453 18.9645 6.06142 19.1041 6.07895 19.2416C6.09649 19.3791 6.14425 19.511 6.21879 19.6279L7.47238 21.5911L7.0175 23.0043H1.88841V2.89272ZM8.72103 29.755H1.88841V24.8806H6.92775L8.72103 27.1706V29.755Z" fill="black"/>
<path d="M5.58647 28.5376H3.42878C2.91074 28.5376 2.49072 28.1178 2.49072 27.5994C2.49072 27.0815 2.91074 26.6614 3.42878 26.6614H5.58647C6.10442 26.6614 6.52453 27.0815 6.52453 27.5994C6.52453 28.1178 6.10442 28.5376 5.58647 28.5376ZM16.5586 11.6052C16.5372 11.6052 16.5151 11.6045 16.4933 11.603C15.9764 11.5676 15.5861 11.1195 15.6218 10.6025C15.7252 9.11058 16.4175 7.718 17.5725 6.68175C18.438 5.90505 19.5123 5.37434 20.6791 5.14694C21.1869 5.04767 21.68 5.37964 21.7794 5.88851C21.8784 6.39703 21.5463 6.88937 21.0378 6.98874C20.2036 7.15127 19.4388 7.5278 18.8261 8.0781C18.0361 8.78696 17.563 9.72934 17.4939 10.7321C17.4595 11.2269 17.0475 11.6052 16.5586 11.6052Z" fill="black"/>
</svg>
