<svg width="46" height="46" viewBox="0 0 46 46" fill="none" xmlns="http://www.w3.org/2000/svg">
<path d="M12.3385 44.0733C12.2574 44.0732 12.1785 44.0473 12.113 43.9995C12.0476 43.9517 11.999 43.8844 11.9742 43.8072C11.9494 43.73 11.9497 43.6469 11.9751 43.57C12.0004 43.493 12.0496 43.426 12.1154 43.3787L14.1325 41.9366L10.5798 43.9851C10.4941 44.0335 10.3932 44.0471 10.2978 44.0231C10.2024 43.9991 10.1199 43.9394 10.0674 43.8563C10.0148 43.7732 9.99614 43.673 10.0153 43.5766C10.0345 43.4801 10.09 43.3947 10.1704 43.3381L13.0599 41.3378L10.2946 42.9333C10.2093 42.9819 10.1086 42.996 10.0133 42.9726C9.91799 42.9492 9.83526 42.8901 9.78218 42.8076C9.7291 42.725 9.70972 42.6252 9.72802 42.5288C9.74633 42.4324 9.80093 42.3466 9.88057 42.2892L14.5756 38.9374L10.0339 41.5594C9.94846 41.6079 9.84766 41.6217 9.75232 41.598C9.65698 41.5743 9.57437 41.5149 9.52155 41.4321C9.46872 41.3493 9.44971 41.2493 9.46844 41.1529C9.48717 41.0564 9.54221 40.9709 9.6222 40.9139L14.1647 37.7314L9.7878 40.2614C9.70156 40.3126 9.59867 40.328 9.50121 40.3043C9.40375 40.2805 9.31949 40.2195 9.26652 40.1343C9.21354 40.0491 9.19607 39.9465 9.21784 39.8486C9.23962 39.7507 9.29892 39.6652 9.383 39.6105L11.8624 37.9499L9.59767 39.2571C9.51178 39.3069 9.40989 39.3215 9.31347 39.2977C9.21705 39.2739 9.13362 39.2137 9.08075 39.1296C9.02789 39.0455 9.00971 38.9442 9.03005 38.847C9.05039 38.7498 9.10766 38.6643 9.1898 38.6085L13.546 35.6285L9.3669 38.0404C9.28069 38.0867 9.18005 38.0982 9.08559 38.0727C8.99114 38.0471 8.91002 37.9865 8.85886 37.9031C8.8077 37.8197 8.79037 37.7198 8.81042 37.6241C8.83047 37.5283 8.88638 37.4438 8.9667 37.388L9.8016 36.8451L9.2059 37.1886C9.11995 37.2376 9.01838 37.2515 8.92244 37.2273C8.8265 37.2031 8.74362 37.1428 8.69114 37.0589C8.63866 36.975 8.62064 36.8741 8.64085 36.7773C8.66106 36.6804 8.71793 36.5951 8.79957 36.5392L13.3559 33.4565L8.97744 35.9865C8.89148 36.0355 8.78991 36.0493 8.69397 36.0252C8.59803 36.001 8.51516 35.9406 8.46268 35.8568C8.41019 35.7729 8.39217 35.672 8.41238 35.5751C8.43259 35.4783 8.48946 35.393 8.5711 35.3371L13.4302 32.0589L8.7459 34.7637C8.66028 34.8145 8.55822 34.83 8.46135 34.8069C8.36447 34.7839 8.28038 34.724 8.22688 34.64C8.17337 34.556 8.15465 34.4545 8.17469 34.3569C8.19472 34.2594 8.25193 34.1735 8.3342 34.1174L15.6037 29.0367L8.44384 33.1705C8.35774 33.2204 8.25562 33.2349 8.15905 33.2108C8.06248 33.1868 7.97905 33.1262 7.92638 33.0418C7.87371 32.9573 7.85594 32.8557 7.87682 32.7584C7.8977 32.6611 7.9556 32.5758 8.03827 32.5204L13.7706 28.6733L8.2031 31.8848C8.11695 31.9338 8.01515 31.9476 7.91909 31.9231C7.82303 31.8987 7.74016 31.838 7.68788 31.7538C7.63561 31.6696 7.61799 31.5684 7.63872 31.4714C7.65945 31.3745 7.71692 31.2894 7.79907 31.2339L13.5836 27.3745L7.96314 30.6191C7.87692 30.6653 7.77628 30.6769 7.68183 30.6513C7.58737 30.6258 7.50625 30.5651 7.45509 30.4817C7.40393 30.3983 7.3866 30.2985 7.40665 30.2027C7.4267 30.107 7.48262 30.0225 7.56294 29.9666L11.3196 27.5286L7.76687 29.5795C7.68025 29.6334 7.57573 29.6508 7.47631 29.6277C7.37689 29.6046 7.29071 29.543 7.23672 29.4564C7.18274 29.3698 7.16537 29.2653 7.18845 29.1658C7.21152 29.0664 7.27315 28.9802 7.35977 28.9263L11.6968 26.108L7.5568 28.4985C7.47033 28.5502 7.36695 28.5659 7.26903 28.542C7.17111 28.5181 7.08653 28.4566 7.03361 28.3708C6.98069 28.2851 6.96369 28.1819 6.98628 28.0837C7.00886 27.9854 7.06923 27.9001 7.1543 27.846L13.0078 24.0027L7.32757 27.2825C7.24127 27.3326 7.13886 27.347 7.04209 27.3227C6.94532 27.2985 6.86182 27.2374 6.80933 27.1526C6.75683 27.0678 6.73947 26.9658 6.76094 26.8684C6.78241 26.771 6.84101 26.6858 6.9243 26.6308L14.098 21.8775L7.07227 25.9324C6.98557 25.9801 6.8838 25.9924 6.78824 25.9668C6.69268 25.9411 6.61073 25.8795 6.55953 25.7949C6.50833 25.7102 6.49186 25.609 6.51355 25.5125C6.53524 25.416 6.59341 25.3315 6.6759 25.2769L8.07047 24.3968L6.9082 25.0699C6.82231 25.1175 6.72144 25.1303 6.62639 25.1057C6.53134 25.0811 6.44935 25.0209 6.39734 24.9376C6.34533 24.8544 6.32725 24.7543 6.34685 24.6581C6.36644 24.5619 6.4222 24.4769 6.50264 24.4206L15.6781 18.2466L6.60767 23.4844C6.5212 23.5362 6.41781 23.5519 6.31989 23.528C6.22197 23.5041 6.1374 23.4426 6.08448 23.3568C6.03156 23.2711 6.01455 23.1679 6.03714 23.0697C6.05973 22.9714 6.1201 22.8861 6.20517 22.832L14.2368 17.552L6.347 22.1075C6.26008 22.1603 6.15575 22.1764 6.05698 22.1522C5.9582 22.128 5.87307 22.0656 5.8203 21.9787C5.76754 21.8918 5.75147 21.7875 5.77562 21.6887C5.79978 21.5899 5.86218 21.5048 5.9491 21.452L10.9393 18.268L6.14384 21.0365C6.05735 21.084 5.95585 21.0964 5.86047 21.071C5.76508 21.0456 5.68318 20.9844 5.6318 20.9001C5.58042 20.8158 5.56353 20.715 5.58465 20.6186C5.60577 20.5222 5.66327 20.4376 5.74517 20.3825L12.327 16.149L5.91844 19.8489C5.83213 19.899 5.72972 19.9134 5.63296 19.8891C5.53619 19.8649 5.45269 19.8038 5.40019 19.719C5.3477 19.6342 5.33034 19.5322 5.35181 19.4348C5.37328 19.3374 5.43188 19.2522 5.51517 19.1973L15.7548 12.4107L5.6179 18.2635C5.53116 18.3143 5.42791 18.329 5.33041 18.3044C5.23291 18.2799 5.14897 18.218 5.09668 18.1321C5.04438 18.0462 5.02793 17.9432 5.05085 17.8453C5.07378 17.7474 5.13425 17.6624 5.21924 17.6087L12.2572 13.0946L5.38944 17.059C5.30268 17.106 5.20114 17.1177 5.10595 17.0918C5.01076 17.0658 4.92925 17.0041 4.87838 16.9196C4.82752 16.835 4.81121 16.7341 4.83286 16.6379C4.85451 16.5416 4.91244 16.4574 4.9946 16.4028L7.7546 14.6724L5.2131 16.1398C5.12631 16.1894 5.02356 16.2031 4.92678 16.1781C4.83001 16.153 4.74685 16.0911 4.69505 16.0056C4.64324 15.9201 4.62689 15.8177 4.64948 15.7203C4.67207 15.623 4.73182 15.5383 4.81597 15.4843L10.1581 12.0956L5.01224 15.068C4.92587 15.1171 4.82382 15.1307 4.72759 15.1061C4.63135 15.0814 4.54846 15.0203 4.49637 14.9357C4.44428 14.8511 4.42707 14.7496 4.44836 14.6526C4.46965 14.5555 4.52778 14.4706 4.6105 14.4155L14.0903 8.19712L4.737 13.5991C4.65076 13.6503 4.54787 13.6657 4.45041 13.6419C4.35295 13.6181 4.26869 13.5571 4.21572 13.4719C4.16274 13.3867 4.14527 13.2842 4.16704 13.1863C4.18882 13.0883 4.24812 13.0029 4.3322 12.9482L12.6199 7.41052L4.4541 12.1232C4.36834 12.1754 4.26553 12.1919 4.16776 12.1691C4.06999 12.1462 3.98507 12.086 3.93125 12.0012C3.87743 11.9165 3.85901 11.814 3.87993 11.7158C3.90086 11.6176 3.95947 11.5316 4.04317 11.4762L10.6679 6.85392L4.16737 10.6106C4.08231 10.6553 3.98358 10.6664 3.89073 10.6417C3.79788 10.617 3.71767 10.5584 3.66599 10.4774C3.61431 10.3964 3.59493 10.299 3.61168 10.2044C3.62843 10.1098 3.68009 10.0249 3.75644 9.96658L7.773 7.10615L3.92664 9.32948C3.84371 9.37687 3.74607 9.39159 3.65286 9.37076C3.55964 9.34993 3.47756 9.29505 3.42269 9.21687C3.36781 9.13869 3.34411 9.04284 3.35621 8.94809C3.36831 8.85335 3.41535 8.76653 3.4881 8.70465L6.6069 6.06425L3.63147 7.78235C3.55138 7.82857 3.45727 7.84429 3.36651 7.82659C3.27574 7.80889 3.19443 7.75898 3.13757 7.68606C3.0807 7.61313 3.05212 7.52211 3.05708 7.42977C3.06204 7.33743 3.10022 7.24999 3.16457 7.18358L4.34217 5.96995L3.3915 6.51658C3.31732 6.55844 3.23132 6.5744 3.14706 6.56194C3.0628 6.54949 2.98509 6.50932 2.9262 6.44779C2.8673 6.38626 2.83058 6.30687 2.82182 6.22214C2.81306 6.13742 2.83277 6.05219 2.87784 5.97992L3.06644 5.68245C2.98808 5.67023 2.91543 5.634 2.85853 5.57876C2.80162 5.52352 2.76324 5.45199 2.74869 5.37402C2.73414 5.29606 2.74413 5.2155 2.77729 5.14345C2.81044 5.07141 2.86513 5.01142 2.9338 4.97175L3.95807 4.38065C4.03224 4.33914 4.1181 4.32346 4.20215 4.33607C4.2862 4.34868 4.36368 4.38887 4.4224 4.45031C4.48112 4.51176 4.51776 4.59097 4.52655 4.67551C4.53534 4.76004 4.51579 4.8451 4.47097 4.91732L4.38357 5.05992L6.34164 3.92908C6.42182 3.88225 6.51628 3.86612 6.60746 3.88368C6.69864 3.90124 6.78035 3.9513 6.83741 4.02456C6.89446 4.09782 6.92299 4.18931 6.91768 4.28201C6.91237 4.37472 6.87358 4.46235 6.80854 4.52862L5.63094 5.74302L9.95647 3.24522C10.0394 3.19783 10.137 3.18311 10.2303 3.20394C10.3235 3.22477 10.4056 3.27965 10.4604 3.35783C10.5153 3.43601 10.539 3.53186 10.5269 3.62661C10.5148 3.72135 10.4678 3.80817 10.395 3.87005L7.2739 6.50432L14.3656 2.41032C14.4508 2.36168 14.5515 2.3476 14.6468 2.37099C14.7422 2.39437 14.8249 2.45343 14.878 2.53599C14.931 2.61856 14.9504 2.71834 14.9321 2.81477C14.9138 2.91121 14.8592 2.99694 14.7796 3.05432L10.7599 5.91552L18.0356 1.71495C18.1214 1.66035 18.2254 1.64208 18.3247 1.66415C18.4239 1.68622 18.5104 1.74683 18.565 1.83263C18.6196 1.91844 18.6379 2.02242 18.6158 2.1217C18.5937 2.22098 18.5331 2.30742 18.4473 2.36202L11.8241 6.98195L22.368 0.894616C22.4543 0.843386 22.5572 0.828004 22.6546 0.851772C22.7521 0.87554 22.8363 0.936564 22.8893 1.02175C22.9423 1.10693 22.9598 1.20949 22.938 1.30741C22.9162 1.40533 22.8569 1.49082 22.7728 1.54552L14.4844 7.08392L25.3611 0.80415C25.4472 0.759887 25.5468 0.749826 25.64 0.775985C25.7332 0.802144 25.813 0.862587 25.8635 0.945179C25.914 1.02777 25.9313 1.1264 25.9121 1.22126C25.8928 1.31611 25.8384 1.40018 25.7598 1.45658L16.2838 7.67502L25.6931 2.24242C25.7801 2.18985 25.8844 2.17402 25.9831 2.19839C26.0818 2.22276 26.1668 2.28534 26.2194 2.37237C26.2719 2.45939 26.2878 2.56373 26.2634 2.66244C26.239 2.76114 26.1765 2.84612 26.0894 2.89868L20.7458 6.28658L25.8955 3.31268C25.9826 3.26022 26.087 3.24452 26.1857 3.26904C26.2844 3.29355 26.3693 3.35627 26.4218 3.4434C26.4742 3.53053 26.4899 3.63493 26.4654 3.73363C26.4409 3.83233 26.3782 3.91726 26.2911 3.96972L23.5311 5.69778L26.0664 4.23422C26.1531 4.18579 26.2551 4.17285 26.3511 4.19813C26.4471 4.22341 26.5295 4.28493 26.5811 4.36974C26.6326 4.45456 26.6492 4.55606 26.6275 4.6529C26.6057 4.74974 26.5472 4.83435 26.4643 4.88895L19.4286 9.40308L26.1285 5.53448C26.2148 5.48444 26.3173 5.47002 26.414 5.49428C26.5108 5.51853 26.5943 5.57956 26.6468 5.66439C26.6993 5.74922 26.7166 5.85118 26.6952 5.9486C26.6737 6.04602 26.6151 6.13124 26.5318 6.18615L16.2937 12.9712L25.7874 7.49178C25.8741 7.44095 25.9774 7.42623 26.0749 7.4508C26.1724 7.47537 26.2563 7.53727 26.3086 7.62315C26.3609 7.70903 26.3773 7.81202 26.3544 7.90991C26.3315 8.00781 26.271 8.09279 26.186 8.14652L19.6034 12.3801L25.5298 8.95918C25.6163 8.91228 25.7176 8.90047 25.8126 8.9262C25.9076 8.95194 25.9891 9.01324 26.0402 9.09741C26.0912 9.18158 26.1079 9.28216 26.0869 9.37832C26.0658 9.47447 26.0085 9.55884 25.9269 9.61392L20.9367 12.7987L25.2998 10.2809C25.3861 10.2318 25.4882 10.2182 25.5844 10.2428C25.6807 10.2675 25.7635 10.3286 25.8156 10.4132C25.8677 10.4978 25.8849 10.5993 25.8636 10.6963C25.8424 10.7934 25.7842 10.8783 25.7015 10.9334L17.6668 16.2142L24.9977 11.9814C25.0404 11.9547 25.088 11.9367 25.1377 11.9284C25.1874 11.9201 25.2383 11.9217 25.2873 11.933C25.3364 11.9444 25.3828 11.9653 25.4238 11.9946C25.4648 12.0239 25.4996 12.0609 25.5263 12.1037C25.553 12.1464 25.571 12.194 25.5793 12.2437C25.5876 12.2934 25.586 12.3442 25.5747 12.3933C25.5633 12.4424 25.5424 12.4888 25.5131 12.5298C25.4838 12.5708 25.4468 12.6056 25.404 12.6323L16.2278 18.8017L24.655 13.9364C24.742 13.8838 24.8464 13.868 24.9451 13.8924C25.0438 13.9167 25.1288 13.9793 25.1813 14.0663C25.2339 14.1534 25.2497 14.2577 25.2253 14.3564C25.201 14.4551 25.1384 14.5401 25.0514 14.5927L23.6614 15.4697L24.4672 15.0043C24.5535 14.9543 24.6559 14.9399 24.7527 14.9641C24.8494 14.9884 24.9329 15.0494 24.9854 15.1343C25.0379 15.2191 25.0553 15.321 25.0338 15.4185C25.0123 15.5159 24.9537 15.6011 24.8704 15.656L17.6937 20.4093L24.1743 16.668C24.2608 16.6162 24.3642 16.6006 24.4621 16.6245C24.56 16.6484 24.6446 16.7098 24.6975 16.7956C24.7504 16.8814 24.7674 16.9846 24.7448 17.0828C24.7222 17.181 24.6619 17.2664 24.5768 17.3204L18.7241 21.1637L23.9106 18.1699C23.997 18.1216 24.0988 18.1086 24.1945 18.1337C24.2903 18.1587 24.3727 18.2199 24.4244 18.3043C24.4761 18.3887 24.4932 18.4899 24.472 18.5866C24.4508 18.6833 24.393 18.768 24.3108 18.8231L19.9783 21.6391L23.676 19.5039C23.7624 19.4556 23.8642 19.4426 23.9599 19.4677C24.0557 19.4927 24.1381 19.5539 24.1898 19.6383C24.2415 19.7227 24.2586 19.8239 24.2374 19.9206C24.2162 20.0173 24.1584 20.102 24.0762 20.1571L20.3195 22.5974L23.4529 20.7888C23.539 20.7398 23.6408 20.7261 23.7369 20.7505C23.8329 20.775 23.9158 20.8357 23.9681 20.9199C24.0204 21.0041 24.038 21.1053 24.0173 21.2022C23.9965 21.2992 23.9391 21.3843 23.8569 21.4398L18.0701 25.3007L23.1784 22.3513C23.2645 22.3014 23.3666 22.287 23.4632 22.311C23.5598 22.335 23.6432 22.3957 23.6959 22.4801C23.7485 22.5645 23.7663 22.6661 23.7454 22.7634C23.7245 22.8607 23.6666 22.9461 23.584 23.0015L17.8531 26.8493L22.9001 23.936C22.9855 23.8887 23.0857 23.8758 23.1803 23.8999C23.2749 23.9239 23.3568 23.9832 23.4092 24.0655C23.4616 24.1479 23.4806 24.2471 23.4624 24.343C23.4441 24.4389 23.39 24.5242 23.311 24.5816L16.0446 29.6607L22.5543 25.904C22.6402 25.8565 22.7411 25.8437 22.8362 25.8683C22.9312 25.8929 23.0132 25.953 23.0652 26.0363C23.1172 26.1196 23.1353 26.2197 23.1157 26.3159C23.0961 26.4121 23.0403 26.4971 22.9599 26.5534L18.0931 29.8355L22.2829 27.4167C22.3688 27.3684 22.4699 27.355 22.5653 27.3793C22.6607 27.4036 22.7432 27.4636 22.7955 27.547C22.8479 27.6304 22.8661 27.7308 22.8465 27.8273C22.8268 27.9237 22.7708 28.009 22.69 28.0653L18.1307 31.1504L22.0223 28.904C22.1087 28.8557 22.2105 28.8427 22.3062 28.8678C22.402 28.8928 22.4844 28.954 22.5361 29.0384C22.5878 29.1228 22.6049 29.224 22.5837 29.3207C22.5625 29.4174 22.5047 29.5021 22.4225 29.5572L21.5975 30.0939L21.8367 29.9559C21.9227 29.9034 22.0259 29.8868 22.124 29.9098C22.2221 29.9328 22.3072 29.9935 22.3609 30.0787C22.4146 30.1639 22.4325 30.2669 22.4109 30.3653C22.3893 30.4637 22.3298 30.5496 22.2454 30.6045L17.8853 33.5876L21.573 31.4586C21.6593 31.4073 21.7621 31.3919 21.8596 31.4157C21.9571 31.4395 22.0413 31.5005 22.0943 31.5857C22.1473 31.6709 22.1647 31.7734 22.143 31.8713C22.1212 31.9693 22.0619 32.0548 21.9778 32.1095L19.4984 33.767L21.3553 32.6937C21.4406 32.6457 21.541 32.6322 21.636 32.656C21.7309 32.6797 21.8132 32.7388 21.8659 32.8213C21.9187 32.9037 21.9379 33.0032 21.9196 33.0994C21.9014 33.1955 21.847 33.281 21.7677 33.3384L17.2252 36.5216L21.0731 34.2983C21.1584 34.2482 21.2598 34.2331 21.356 34.256C21.4522 34.2789 21.5359 34.3382 21.5894 34.4213C21.643 34.5045 21.6623 34.6051 21.6434 34.7022C21.6245 34.7993 21.5688 34.8853 21.4879 34.9423L16.7974 38.2942L20.778 35.9942C20.8636 35.9458 20.9645 35.9322 21.0599 35.9562C21.1553 35.9802 21.2378 36.0399 21.2904 36.123C21.343 36.2061 21.3616 36.3062 21.3424 36.4027C21.3232 36.4991 21.2677 36.5845 21.1874 36.6412L18.2955 38.643L20.5395 37.3481C20.6247 37.3 20.725 37.2862 20.8199 37.3096C20.9149 37.3331 20.9973 37.3919 21.0503 37.4741C21.1033 37.5563 21.1229 37.6556 21.105 37.7518C21.0872 37.8479 21.0333 37.9336 20.9543 37.9913L18.9364 39.4373L20.3164 38.6437C20.398 38.5983 20.4934 38.5842 20.5847 38.6041C20.676 38.624 20.7569 38.6765 20.8121 38.7518C20.8674 38.8271 20.8932 38.92 20.8848 39.0131C20.8764 39.1061 20.8343 39.1929 20.7665 39.2571L18.9901 40.8778L20.0243 40.2814C20.0955 40.24 20.1781 40.2226 20.2599 40.2318C20.3417 40.241 20.4184 40.2763 20.4786 40.3324C20.5387 40.3886 20.5793 40.4626 20.5941 40.5436C20.609 40.6245 20.5974 40.7081 20.561 40.782L20.1309 41.656C20.195 41.6852 20.2498 41.7314 20.2893 41.7897C20.3289 41.848 20.3516 41.916 20.355 41.9863C20.3584 42.0567 20.3424 42.1266 20.3086 42.1884C20.2749 42.2502 20.2248 42.3016 20.1639 42.3368L19.5505 42.6918C19.4793 42.7333 19.3966 42.7508 19.3146 42.7417C19.2327 42.7325 19.1558 42.6971 19.0956 42.6408C19.0353 42.5845 18.9948 42.5103 18.9801 42.4291C18.9654 42.348 18.9772 42.2642 19.0139 42.1903L19.3167 41.577L16.3267 43.3036C16.2451 43.3497 16.1494 43.3642 16.0577 43.3446C15.9661 43.3249 15.8848 43.2723 15.8293 43.1968C15.7738 43.1213 15.7479 43.028 15.7565 42.9347C15.765 42.8413 15.8075 42.7544 15.8759 42.6902L17.6469 41.0718L12.5332 44.0242C12.4739 44.0578 12.4066 44.0747 12.3385 44.0733Z" fill="#2FA345"/>
<path d="M18.9741 39.6955C18.9092 39.6953 18.8454 39.6787 18.7887 39.6472C18.732 39.6158 18.6842 39.5704 18.6498 39.5154C18.6154 39.4604 18.5955 39.3975 18.592 39.3328C18.5886 39.268 18.6016 39.2034 18.6298 39.145L19.1374 38.1023L16.6687 39.5276C16.5871 39.5724 16.492 39.5861 16.4011 39.566C16.3102 39.5459 16.2297 39.4933 16.1747 39.4182C16.1197 39.3431 16.0939 39.2505 16.1021 39.1578C16.1103 39.065 16.152 38.9785 16.2194 38.9142L17.1985 38.0249L16.152 38.6283C16.0703 38.675 15.9744 38.6901 15.8823 38.6707C15.7903 38.6512 15.7086 38.5986 15.6528 38.5229C15.597 38.4471 15.5711 38.3535 15.5798 38.2598C15.5886 38.1662 15.6315 38.079 15.7004 38.0149L17.3917 36.4525L15.2281 37.7014C15.145 37.75 15.0466 37.7656 14.9525 37.745C14.8584 37.7243 14.7755 37.6691 14.7203 37.5901C14.6652 37.5112 14.6417 37.4143 14.6547 37.3189C14.6677 37.2234 14.7161 37.1363 14.7904 37.075L16.6135 35.5493L13.9302 37.0988C13.8466 37.1478 13.7475 37.1634 13.6529 37.1423C13.5583 37.1213 13.4751 37.0652 13.4202 36.9853C13.3653 36.9054 13.3427 36.8077 13.357 36.7118C13.3712 36.6159 13.4213 36.529 13.497 36.4686L16.3107 34.19L12.2964 36.5069C12.2119 36.5565 12.1116 36.5718 12.0161 36.5497C11.9207 36.5276 11.8373 36.4698 11.7831 36.3881C11.7289 36.3065 11.7081 36.2072 11.7248 36.1106C11.7416 36.0141 11.7947 35.9276 11.8732 35.869L15.1936 33.3659L11.9529 35.2358C11.8671 35.2866 11.7648 35.302 11.6678 35.2787C11.5708 35.2553 11.4868 35.1951 11.4335 35.1108C11.3802 35.0264 11.3619 34.9246 11.3824 34.827C11.403 34.7294 11.4608 34.6436 11.5435 34.5879L12.2757 34.0842L11.7881 34.3656C11.7025 34.4121 11.6023 34.4243 11.508 34.3996C11.4138 34.3749 11.3324 34.3152 11.2806 34.2327C11.2287 34.1502 11.2102 34.051 11.2289 33.9554C11.2475 33.8597 11.3019 33.7747 11.381 33.7178L11.6539 33.5315L11.6325 33.5437C11.5475 33.5933 11.4467 33.6083 11.3509 33.5856C11.2551 33.5629 11.1718 33.5043 11.1181 33.4218C11.0644 33.3393 11.0445 33.2394 11.0624 33.1426C11.0804 33.0458 11.1349 32.9597 11.2146 32.902L14.5006 30.5108L11.3971 32.2994C11.3122 32.3485 11.2118 32.3631 11.1164 32.3404C11.021 32.3176 10.938 32.2592 10.8844 32.1771C10.8308 32.095 10.8107 31.9955 10.8282 31.8991C10.8457 31.8026 10.8995 31.7165 10.9785 31.6585L14.7735 28.8755L11.1449 30.9731C11.0592 31.0196 10.9591 31.0318 10.8648 31.0071C10.7705 30.9824 10.6892 30.9227 10.6373 30.8402C10.5855 30.7577 10.567 30.6585 10.5857 30.5629C10.6043 30.4672 10.6587 30.3822 10.7378 30.3253L11.8648 29.5586L10.9739 30.0723C10.8887 30.1217 10.7878 30.1364 10.692 30.1134C10.5963 30.0903 10.5131 30.0314 10.4596 29.9486C10.4062 29.8659 10.3867 29.7658 10.405 29.6691C10.4234 29.5723 10.4783 29.4864 10.5584 29.429L14.3656 26.689L10.7332 28.785C10.6481 28.8339 10.5476 28.8482 10.4522 28.8251C10.3569 28.8021 10.274 28.7433 10.2207 28.661C10.1673 28.5787 10.1476 28.4791 10.1655 28.3826C10.1834 28.2862 10.2376 28.2003 10.3169 28.1426L14.5573 25.0797L10.4771 27.4349C10.3914 27.4848 10.2897 27.4995 10.1934 27.476C10.0971 27.4525 10.0136 27.3926 9.96055 27.3088C9.90746 27.2251 9.88889 27.124 9.90873 27.0269C9.92857 26.9298 9.98528 26.8441 10.0669 26.7879L13.0462 24.7255L10.267 26.3294C10.1822 26.3773 10.0823 26.3911 9.98766 26.3679C9.89301 26.3448 9.81072 26.2865 9.75752 26.2049C9.70431 26.1233 9.68418 26.0245 9.70121 25.9285C9.71824 25.8326 9.77116 25.7468 9.84921 25.6885L15.1032 21.8421L9.97801 24.8007C9.89275 24.8493 9.79209 24.8634 9.69676 24.84C9.60143 24.8166 9.5187 24.7575 9.46562 24.675C9.41255 24.5924 9.39316 24.4926 9.41147 24.3962C9.42977 24.2998 9.48437 24.214 9.56401 24.1567L14.3748 20.7266L9.71581 23.4168C9.63012 23.4667 9.52843 23.4814 9.43211 23.4579C9.33579 23.4344 9.25233 23.3745 9.19925 23.2907C9.14616 23.207 9.12759 23.1059 9.14743 23.0088C9.16727 22.9117 9.22398 22.826 9.30565 22.7698L13.277 20.0197L9.48351 22.2086C9.39825 22.2572 9.29759 22.2713 9.20226 22.2479C9.10693 22.2245 9.0242 22.1654 8.97112 22.0829C8.91805 22.0003 8.89866 21.9005 8.91697 21.8041C8.93527 21.7077 8.98987 21.6219 9.06951 21.5646L14.5197 17.6799L9.20675 20.7465C9.12013 20.7999 9.01585 20.8167 8.91686 20.7932C8.81787 20.7697 8.73227 20.7078 8.6789 20.6212C8.62552 20.5346 8.60874 20.4303 8.63225 20.3313C8.65576 20.2323 8.71763 20.1467 8.80425 20.0933L9.96651 19.3328L9.04191 19.8695C8.95594 19.922 8.85275 19.9385 8.75467 19.9155C8.65659 19.8925 8.57149 19.8319 8.51779 19.7466C8.46409 19.6614 8.44611 19.5585 8.46772 19.4601C8.48933 19.3617 8.5488 19.2757 8.63328 19.2209L13.0186 16.214L8.80885 18.6443C8.72282 18.6925 8.62153 18.7058 8.52601 18.6812C8.4305 18.6567 8.34811 18.5963 8.29599 18.5126C8.24387 18.4288 8.22601 18.3283 8.24613 18.2317C8.26626 18.1352 8.32282 18.0501 8.40405 17.9942L11.6654 15.8069L8.60645 17.5702C8.52062 17.6211 8.41834 17.6365 8.32134 17.6131C8.22435 17.5898 8.14027 17.5296 8.08697 17.4452C8.03367 17.3609 8.01536 17.2591 8.03591 17.1615C8.05646 17.0638 8.11427 16.9781 8.19705 16.9224L12.797 13.7476L8.36418 16.3068C8.27915 16.3544 8.17916 16.3679 8.08455 16.3445C7.98994 16.321 7.90781 16.2624 7.85487 16.1806C7.80194 16.0987 7.78217 15.9998 7.79959 15.9039C7.81701 15.808 7.87031 15.7223 7.94865 15.6643L13.8765 11.394L8.06595 14.7481C7.98071 14.7991 7.87899 14.8151 7.78224 14.7926C7.68548 14.7701 7.60124 14.7109 7.54727 14.6275C7.49329 14.5441 7.4738 14.443 7.4929 14.3455C7.512 14.248 7.56819 14.1618 7.64965 14.1049L13.3644 9.97026L7.77308 13.1987C7.68698 13.2486 7.58486 13.2631 7.48829 13.239C7.39173 13.215 7.30829 13.1544 7.25562 13.0699C7.20295 12.9855 7.18518 12.8839 7.20606 12.7866C7.22694 12.6893 7.28484 12.6039 7.36751 12.5486L9.38768 11.1916L7.61668 12.2166C7.53193 12.2673 7.4309 12.2833 7.33464 12.2613C7.23838 12.2393 7.1543 12.1811 7.09994 12.0986C7.04558 12.0162 7.02513 11.916 7.04284 11.8188C7.06055 11.7217 7.11506 11.6351 7.19501 11.5772L10.3974 9.17983L10.2279 9.27796C10.1537 9.32053 10.0674 9.33706 9.98276 9.32491C9.89808 9.31277 9.81989 9.27265 9.76065 9.21093C9.70141 9.14922 9.66451 9.06947 9.65583 8.98436C9.64715 8.89926 9.66718 8.8137 9.71275 8.74129L10.5208 7.47936C10.4329 7.49046 10.3438 7.47074 10.2688 7.42356C10.1937 7.37639 10.1374 7.30467 10.1093 7.22062C10.0812 7.13656 10.0831 7.04536 10.1146 6.96254C10.1462 6.87972 10.2055 6.81039 10.2824 6.76636L11.4638 6.08403C11.538 6.04145 11.6243 6.02493 11.709 6.03707C11.7937 6.04922 11.8719 6.08934 11.9311 6.15105C11.9904 6.21276 12.0273 6.29252 12.0359 6.37762C12.0446 6.46273 12.0246 6.54829 11.979 6.62069L11.207 7.82666L15.5831 5.30049C15.6677 5.25167 15.7678 5.23698 15.8628 5.25943C15.9579 5.28188 16.0408 5.33977 16.0946 5.42129C16.1484 5.5028 16.1691 5.60179 16.1524 5.69803C16.1357 5.79427 16.0829 5.8805 16.0048 5.93913L12.8032 8.33726L18.7908 4.87883C18.8769 4.82893 18.9791 4.81446 19.0756 4.83849C19.1722 4.86252 19.2556 4.92316 19.3083 5.00759C19.361 5.09202 19.3787 5.19362 19.3579 5.29092C19.337 5.38821 19.2791 5.47358 19.1964 5.52896L17.1732 6.88673L19.4356 5.58339C19.5207 5.53457 19.6212 5.52021 19.7166 5.54329C19.8119 5.56636 19.8948 5.62509 19.9481 5.70741C20.0015 5.78973 20.0212 5.88936 20.0033 5.9858C19.9854 6.08225 19.9312 6.16816 19.8519 6.22586L14.1372 10.3613L20.0865 6.92659C20.1717 6.8772 20.2726 6.86249 20.3684 6.8855C20.4641 6.90852 20.5473 6.96749 20.6008 7.05021C20.6542 7.13292 20.6738 7.23303 20.6554 7.32977C20.637 7.42652 20.5821 7.51247 20.502 7.56983L14.5742 11.8394L20.6814 8.31273C20.7673 8.26186 20.8695 8.24647 20.9665 8.26981C21.0635 8.29315 21.1476 8.35338 21.2009 8.43772C21.2542 8.52206 21.2725 8.62385 21.252 8.72148C21.2314 8.8191 21.1736 8.90487 21.0908 8.96056L16.4908 12.1361L21.1675 9.43666C21.2535 9.38844 21.3548 9.37522 21.4503 9.39976C21.5459 9.4243 21.6282 9.48471 21.6804 9.56842C21.7325 9.65214 21.7503 9.75272 21.7302 9.84926C21.7101 9.9458 21.6535 10.0309 21.5723 10.0868L18.3109 12.2741L21.2028 10.6043C21.2888 10.5518 21.3919 10.5352 21.49 10.5582C21.5881 10.5812 21.6732 10.6419 21.7269 10.7271C21.7806 10.8123 21.7986 10.9153 21.777 11.0137C21.7554 11.1121 21.6959 11.198 21.6114 11.2529L17.223 14.2598L21.1292 12.005C21.2155 11.9559 21.3176 11.9422 21.4138 11.9669C21.5101 11.9916 21.593 12.0527 21.645 12.1372C21.6971 12.2218 21.7143 12.3234 21.6931 12.4204C21.6718 12.5174 21.6136 12.6024 21.5309 12.6574L20.374 13.4172L21.0763 13.0116C21.1615 12.963 21.2622 12.9489 21.3575 12.9723C21.4529 12.9957 21.5356 13.0547 21.5887 13.1373C21.6417 13.2199 21.6611 13.3197 21.6428 13.4161C21.6245 13.5125 21.5699 13.5983 21.4903 13.6556L16.0385 17.5388L20.9896 14.6807C21.0753 14.6308 21.177 14.6161 21.2733 14.6396C21.3697 14.6631 21.4531 14.723 21.5062 14.8067C21.5593 14.8905 21.5779 14.9915 21.558 15.0887C21.5382 15.1858 21.4815 15.2715 21.3998 15.3277L17.4308 18.0755L20.9176 16.0622C21.0028 16.0136 21.1035 15.9995 21.1988 16.0229C21.2942 16.0462 21.3769 16.1053 21.43 16.1879C21.483 16.2704 21.5024 16.3702 21.4841 16.4667C21.4658 16.5631 21.4112 16.6488 21.3316 16.7062L16.5177 20.1386L20.8355 17.6454C20.9206 17.5942 21.0222 17.578 21.1189 17.6002C21.2157 17.6224 21.3 17.6812 21.3543 17.7644C21.4085 17.8475 21.4284 17.9484 21.4097 18.0459C21.391 18.1434 21.3353 18.2298 21.2541 18.2871L16.0002 22.1334L20.7451 19.3964C20.8307 19.3481 20.9317 19.3345 21.027 19.3585C21.1224 19.3824 21.2049 19.4422 21.2575 19.5253C21.3101 19.6084 21.3287 19.7085 21.3095 19.805C21.2904 19.9014 21.2348 19.9868 21.1545 20.0435L18.1752 22.1066L20.6791 20.6614C20.7642 20.6126 20.8648 20.5982 20.9601 20.6213C21.0554 20.6444 21.1383 20.7031 21.1917 20.7854C21.245 20.8678 21.2647 20.9674 21.2469 21.0638C21.229 21.1603 21.1748 21.2462 21.0954 21.3039L16.8565 24.3652L20.5986 22.2047C20.6838 22.1553 20.7848 22.1406 20.8805 22.1636C20.9763 22.1866 21.0595 22.2456 21.1129 22.3283C21.1663 22.4111 21.1859 22.5112 21.1675 22.6079C21.1491 22.7046 21.0942 22.7906 21.0142 22.848L17.2069 25.588L20.5227 23.6714C20.6088 23.6204 20.7113 23.605 20.8085 23.6286C20.9057 23.6522 20.9898 23.7128 21.0429 23.7975C21.096 23.8823 21.114 23.9844 21.0928 24.0821C21.0717 24.1799 21.0132 24.2655 20.9298 24.3207L19.8044 25.0874L20.4691 24.7041C20.554 24.655 20.6544 24.6404 20.7498 24.6631C20.8452 24.6859 20.9282 24.7443 20.9818 24.8264C21.0354 24.9085 21.0555 25.008 21.038 25.1044C21.0205 25.2009 20.9667 25.287 20.8877 25.345L17.0904 28.1288L20.3932 26.2198C20.4781 26.1714 20.5784 26.1574 20.6733 26.1805C20.7683 26.2036 20.8509 26.2621 20.9041 26.3441C20.9574 26.426 20.9773 26.5252 20.9599 26.6214C20.9424 26.7176 20.8889 26.8034 20.8102 26.8615L17.5266 29.2519L20.3196 27.6419C20.4052 27.5954 20.5054 27.5832 20.5997 27.6079C20.6939 27.6326 20.7753 27.6923 20.8271 27.7748C20.879 27.8573 20.8975 27.9565 20.8788 28.0522C20.8601 28.1478 20.8057 28.2328 20.7267 28.2898L20.3495 28.5458C20.4373 28.5179 20.5323 28.5226 20.617 28.5591C20.7017 28.5955 20.7704 28.6613 20.8105 28.7443C20.8507 28.8273 20.8596 28.9219 20.8356 29.011C20.8116 29.1 20.7563 29.1774 20.6799 29.2289L19.9401 29.7372L20.2191 29.577C20.3036 29.5286 20.4034 29.5141 20.4981 29.5366C20.5929 29.5591 20.6755 29.6168 20.7293 29.6979C20.7831 29.7791 20.8039 29.8777 20.7876 29.9737C20.7713 30.0698 20.7191 30.156 20.6416 30.2149L17.3234 32.718L20.1402 31.0919C20.2237 31.0441 20.3221 31.0293 20.4159 31.0507C20.5097 31.072 20.5921 31.1279 20.6466 31.2072C20.7012 31.2864 20.7239 31.3833 20.7103 31.4786C20.6968 31.5738 20.6479 31.6605 20.5733 31.7214L17.7558 34.003L20.0558 32.6759C20.139 32.6281 20.237 32.6132 20.3305 32.6341C20.4241 32.655 20.5064 32.7102 20.5613 32.7888C20.6162 32.8675 20.6396 32.9638 20.6269 33.0588C20.6142 33.1539 20.5664 33.2407 20.4928 33.3022L18.6705 34.8271L19.983 34.0689C20.0647 34.0221 20.1606 34.0071 20.2527 34.0265C20.3447 34.0459 20.4264 34.0985 20.4822 34.1743C20.538 34.25 20.5639 34.3437 20.5552 34.4373C20.5464 34.531 20.5035 34.6182 20.4346 34.6822L18.7479 36.2447L19.9086 35.5746C19.9902 35.5297 20.0854 35.5161 20.1763 35.5362C20.2672 35.5563 20.3477 35.6088 20.4027 35.684C20.4577 35.7591 20.4835 35.8517 20.4753 35.9444C20.467 36.0371 20.4253 36.1237 20.3579 36.188L19.3789 37.0781L19.8442 36.8097C19.9153 36.7687 19.9976 36.7516 20.0791 36.7608C20.1606 36.77 20.2369 36.8051 20.297 36.861C20.357 36.9168 20.3976 36.9905 20.4127 37.0711C20.4278 37.1517 20.4167 37.235 20.3809 37.3088L19.8565 38.3783C19.9461 38.3561 20.0408 38.3669 20.1231 38.4089C20.2054 38.4508 20.2697 38.5211 20.3043 38.6067C20.3389 38.6924 20.3415 38.7876 20.3114 38.8749C20.2814 38.9623 20.2209 39.0359 20.1409 39.0821L19.1665 39.6441C19.108 39.6779 19.0416 39.6956 18.9741 39.6955Z" fill="#23843C"/>
<path d="M18.9764 27.1992C18.9063 27.1992 18.8376 27.18 18.7777 27.1436C18.7178 27.1073 18.669 27.0553 18.6366 26.9931C18.6042 26.931 18.5895 26.8612 18.594 26.7913C18.5984 26.7214 18.622 26.6541 18.6621 26.5966L19.3919 25.5463L16.7692 27.0635C16.6881 27.1123 16.5918 27.1294 16.4988 27.1115C16.4059 27.0935 16.3229 27.0419 16.2658 26.9664C16.2086 26.8909 16.1815 26.7969 16.1895 26.7026C16.1975 26.6083 16.2401 26.5203 16.3092 26.4555L18.163 24.6677L15.3263 26.3053C15.2417 26.353 15.1422 26.3669 15.0478 26.3441C14.9534 26.3213 14.8712 26.2635 14.8177 26.1824C14.7643 26.1013 14.7436 26.003 14.7599 25.9072C14.7762 25.8115 14.8282 25.7255 14.9054 25.6666L15.2604 25.4006L14.7053 25.7211C14.6211 25.7694 14.5217 25.784 14.4271 25.7618C14.3326 25.7397 14.25 25.6825 14.1959 25.6019C14.1419 25.5212 14.1205 25.423 14.1361 25.3271C14.1517 25.2313 14.203 25.1449 14.2798 25.0855L15.8262 23.8979L14.1165 24.8846C14.0317 24.9344 13.931 24.9497 13.8352 24.9274C13.7394 24.905 13.6559 24.8466 13.6019 24.7644C13.5479 24.6822 13.5276 24.5823 13.5452 24.4855C13.5628 24.3888 13.6169 24.3024 13.6964 24.2445L14.9951 23.2854L13.7508 24.0037C13.6656 24.0547 13.5639 24.0707 13.4671 24.0482C13.3703 24.0257 13.2861 23.9665 13.2321 23.8831C13.1782 23.7997 13.1587 23.6986 13.1778 23.6011C13.1969 23.5036 13.2531 23.4174 13.3345 23.3605L14.4009 22.5892L13.5775 23.0653C13.4948 23.1137 13.397 23.1294 13.3033 23.1093C13.2096 23.0892 13.1269 23.0347 13.0713 22.9566C13.0158 22.8785 12.9916 22.7824 13.0034 22.6873C13.0152 22.5922 13.0622 22.505 13.1352 22.4428L15.6598 20.2609L13.7638 21.3557C13.6822 21.4045 13.5852 21.4213 13.4919 21.4026C13.3985 21.384 13.3155 21.3313 13.2589 21.2547C13.2022 21.1782 13.1761 21.0834 13.1856 20.9887C13.195 20.894 13.2394 20.8061 13.31 20.7423L14.5366 19.5862C14.4862 19.5743 14.4387 19.5521 14.3972 19.5212C14.3557 19.4902 14.3209 19.451 14.2951 19.406C14.2698 19.3624 14.2534 19.3142 14.2468 19.2642C14.2401 19.2142 14.2434 19.1634 14.2565 19.1147C14.2695 19.066 14.292 19.0203 14.3227 18.9803C14.3534 18.9403 14.3917 18.9068 14.4354 18.8816L16.6833 17.5844C16.765 17.5355 16.8619 17.5188 16.9553 17.5375C17.0486 17.5561 17.1317 17.6088 17.1883 17.6853C17.2449 17.7618 17.271 17.8567 17.2616 17.9514C17.2521 18.0461 17.2078 18.1339 17.1372 18.1978L16.2532 19.0327L18.7832 17.576C18.8659 17.5276 18.9637 17.5119 19.0574 17.532C19.1511 17.5521 19.2339 17.6066 19.2894 17.6847C19.3449 17.7628 19.3691 17.8589 19.3573 17.954C19.3455 18.0491 19.2985 18.1364 19.2256 18.1985L16.6948 20.3782L20.4852 18.1901C20.5703 18.1413 20.6708 18.1269 20.7662 18.15C20.8615 18.173 20.9444 18.2318 20.9977 18.3141C21.0511 18.3964 21.0708 18.4961 21.0529 18.5925C21.035 18.6889 20.9808 18.7749 20.9015 18.8326L19.8374 19.5992L20.4867 19.2251C20.5716 19.1753 20.6723 19.16 20.7681 19.1823C20.8639 19.2047 20.9474 19.2631 21.0014 19.3453C21.0553 19.4275 21.0756 19.5274 21.058 19.6242C21.0404 19.7209 20.9863 19.8073 20.9069 19.8653L19.6035 20.8259L20.4852 20.3161C20.5695 20.2673 20.6692 20.2526 20.764 20.2747C20.8589 20.2968 20.9417 20.3542 20.9958 20.4352C21.0498 20.5162 21.0711 20.6147 21.0551 20.7108C21.0392 20.8068 20.9873 20.8932 20.9099 20.9524L19.3689 22.1415L20.4906 21.4944C20.5751 21.4467 20.6747 21.4328 20.7691 21.4556C20.8635 21.4784 20.9457 21.5362 20.9991 21.6173C21.0526 21.6984 21.0732 21.7967 21.057 21.8924C21.0407 21.9882 20.9887 22.0742 20.9115 22.1331L20.5358 22.4137C20.6184 22.3788 20.7106 22.374 20.7963 22.4001C20.8821 22.4261 20.956 22.4814 21.0052 22.5564C21.0545 22.6313 21.0759 22.7211 21.0657 22.8101C21.0556 22.8992 21.0146 22.9819 20.9498 23.0439L19.0952 24.8325L20.4936 24.0252C20.5691 23.9816 20.6571 23.965 20.7433 23.9781C20.8294 23.9912 20.9085 24.0333 20.9675 24.0974C21.0266 24.1615 21.062 24.2438 21.068 24.3308C21.0739 24.4177 21.0501 24.5041 21.0004 24.5757L20.2705 25.626L20.4959 25.4957C20.5396 25.4679 20.5884 25.4493 20.6394 25.4409C20.6904 25.4325 20.7426 25.4345 20.7928 25.4468C20.843 25.4591 20.8902 25.4815 20.9316 25.5125C20.9729 25.5435 21.0076 25.5826 21.0335 25.6273C21.0593 25.6721 21.0759 25.7216 21.0821 25.7729C21.0884 25.8243 21.0841 25.8763 21.0697 25.926C21.0553 25.9756 21.031 26.0218 20.9983 26.0619C20.9656 26.1019 20.9251 26.1349 20.8793 26.1588L19.1665 27.1471C19.1089 27.1811 19.0433 27.199 18.9764 27.1992Z" fill="#2FA345"/>
<path d="M25.5124 45.5937C25.4297 45.5942 25.3491 45.5679 25.2826 45.5187C25.2161 45.4696 25.1673 45.4003 25.1434 45.3211C25.1195 45.242 25.1218 45.1572 25.1501 45.0795C25.1783 45.0018 25.2309 44.9353 25.3 44.8899L31.7845 40.6204L23.2622 45.5401C23.1759 45.5876 23.0747 45.6001 22.9794 45.5749C22.8842 45.5498 22.8023 45.4889 22.7507 45.405C22.6991 45.3211 22.6818 45.2205 22.7024 45.1242C22.723 45.0278 22.7799 44.9431 22.8613 44.8876L30.8553 39.6743L20.7269 45.524C20.6404 45.5722 20.5387 45.5852 20.4429 45.5602C20.3471 45.5351 20.2647 45.474 20.213 45.3896C20.1613 45.3052 20.1442 45.204 20.1654 45.1073C20.1866 45.0106 20.2444 44.9258 20.3267 44.8708L30.577 38.2046L20.1503 44.226C20.0638 44.2763 19.961 44.2908 19.864 44.2663C19.7669 44.2419 19.6833 44.1805 19.6309 44.0952C19.5786 44.0099 19.5616 43.9075 19.5838 43.8099C19.6059 43.7122 19.6653 43.6272 19.7494 43.5728L30.7894 36.3807L20.148 42.5217C20.061 42.5742 19.9567 42.5901 19.858 42.5657C19.7593 42.5413 19.6743 42.4788 19.6217 42.3917C19.5691 42.3047 19.5533 42.2004 19.5777 42.1017C19.6021 42.003 19.6646 41.918 19.7517 41.8654L26.0383 37.901L20.148 41.3027C20.0615 41.353 19.9587 41.3675 19.8617 41.343C19.7646 41.3186 19.681 41.2571 19.6286 41.1719C19.5763 41.0866 19.5593 40.9842 19.5815 40.8866C19.6036 40.7889 19.663 40.7039 19.7471 40.6495L30.3669 33.7564L20.148 39.6597C20.1051 39.6861 20.0575 39.7038 20.0078 39.7117C19.958 39.7197 19.9072 39.7178 19.8583 39.7061C19.8093 39.6944 19.7631 39.6732 19.7223 39.6437C19.6815 39.6142 19.6469 39.5769 19.6206 39.534C19.5942 39.4911 19.5765 39.4434 19.5686 39.3937C19.5606 39.344 19.5625 39.2932 19.5742 39.2442C19.5859 39.1952 19.6071 39.149 19.6366 39.1082C19.6661 39.0675 19.7034 39.0329 19.7463 39.0065L31.0163 31.6465L20.148 37.9186C20.0612 37.965 19.9599 37.9762 19.865 37.9499C19.7702 37.9236 19.6891 37.8618 19.6385 37.7774C19.588 37.6929 19.5718 37.5923 19.5935 37.4962C19.6151 37.4002 19.6728 37.3162 19.7547 37.2616L21.3088 36.2994L20.148 36.9695C20.0615 37.0198 19.9587 37.0343 19.8617 37.0098C19.7646 36.9854 19.681 36.9239 19.6286 36.8387C19.5763 36.7534 19.5593 36.651 19.5815 36.5534C19.6036 36.4557 19.663 36.3707 19.7471 36.3163L30.7372 29.1579L20.148 35.2721C20.0609 35.3245 19.9565 35.3402 19.8578 35.3157C19.7591 35.2912 19.6742 35.2285 19.6217 35.1414C19.5692 35.0542 19.5535 34.9498 19.5781 34.8511C19.6026 34.7524 19.6653 34.6675 19.7524 34.6151L24.6783 31.53L20.148 34.1451C20.0613 34.1928 19.9596 34.2051 19.864 34.1794C19.7684 34.1538 19.6865 34.0922 19.6353 34.0075C19.5841 33.9229 19.5676 33.8217 19.5893 33.7252C19.611 33.6286 19.6692 33.5442 19.7517 33.4896L26.345 29.3281L20.148 32.9039C20.0612 32.9535 19.9585 32.9672 19.8617 32.9421C19.7649 32.9171 19.6818 32.8552 19.63 32.7697C19.5782 32.6842 19.5618 32.5818 19.5844 32.4844C19.607 32.387 19.6667 32.3023 19.7509 32.2484L27.0634 27.6162L20.1519 31.6028C20.0646 31.6551 19.9602 31.6705 19.8616 31.6458C19.763 31.6211 19.6782 31.5582 19.6259 31.471C19.5737 31.3837 19.5582 31.2793 19.5829 31.1807C19.6077 31.082 19.6706 30.9973 19.7578 30.945L22.0141 29.5459L20.1519 30.6192C20.0649 30.6663 19.963 30.6781 19.8676 30.6519C19.7722 30.6257 19.6907 30.5636 19.64 30.4786C19.5893 30.3937 19.5734 30.2924 19.5956 30.196C19.6179 30.0996 19.6765 30.0155 19.7593 29.9614L20.1227 29.7375C20.0345 29.7793 19.9337 29.7858 19.8409 29.7559C19.748 29.7259 19.6701 29.6616 19.623 29.5762C19.5759 29.4907 19.5631 29.3906 19.5873 29.296C19.6115 29.2015 19.6708 29.1198 19.7532 29.0675L28.4932 23.4792L20.148 28.2977C20.0617 28.3446 19.9606 28.3565 19.8657 28.331C19.7709 28.3056 19.6894 28.2446 19.6381 28.1608C19.5869 28.077 19.5698 27.9767 19.5903 27.8806C19.6109 27.7845 19.6675 27.7 19.7486 27.6445L29.6493 21.2567L20.148 26.7422C20.0614 26.7906 19.9593 26.8035 19.8634 26.7782C19.7674 26.753 19.685 26.6914 19.6334 26.6066C19.5819 26.5218 19.5652 26.4203 19.587 26.3235C19.6088 26.2266 19.6672 26.142 19.7501 26.0874L28.3046 20.6234L20.148 25.3315C20.0612 25.3779 19.9599 25.3891 19.865 25.3628C19.7702 25.3365 19.6891 25.2747 19.6385 25.1902C19.588 25.1058 19.5718 25.0051 19.5935 24.9091C19.6151 24.8131 19.6728 24.7291 19.7547 24.6745L21.7872 23.4141L20.148 24.3601C20.0616 24.4084 19.9598 24.4214 19.8641 24.3963C19.7683 24.3713 19.6859 24.3102 19.6342 24.2257C19.5825 24.1413 19.5654 24.0402 19.5866 23.9435C19.6078 23.8468 19.6656 23.762 19.7478 23.7069L30.0005 17.0737L20.148 22.7616C20.0612 22.8103 19.9588 22.8232 19.8625 22.7978C19.7663 22.7723 19.6837 22.7104 19.6324 22.6251C19.581 22.5398 19.5647 22.4379 19.5872 22.3409C19.6096 22.2439 19.6688 22.1594 19.7524 22.1054L25.3583 18.5825L20.145 21.5909C20.0585 21.6392 19.9568 21.6522 19.861 21.6271C19.7652 21.6021 19.6828 21.541 19.6311 21.4565C19.5794 21.3721 19.5623 21.271 19.5835 21.1743C19.6047 21.0776 19.6625 20.9928 19.7448 20.9377L30.3048 14.0868L20.148 19.9526C20.0609 20.0016 19.9581 20.0147 19.8615 19.9891C19.7649 19.9634 19.6822 19.9011 19.6309 19.8153C19.5796 19.7295 19.5638 19.6271 19.587 19.5298C19.6101 19.4326 19.6703 19.3482 19.7547 19.2948L21.0979 18.4637L20.148 19.0134C20.0611 19.0662 19.9568 19.0822 19.858 19.0581C19.7592 19.0339 19.6741 18.9715 19.6213 18.8846C19.5686 18.7977 19.5525 18.6933 19.5766 18.5946C19.6008 18.4958 19.6632 18.4107 19.7501 18.3579L25.5768 14.6511L20.148 17.7867C20.0617 17.8368 19.9593 17.8512 19.8625 17.8269C19.7658 17.8027 19.6823 17.7416 19.6298 17.6568C19.5773 17.572 19.5599 17.47 19.5814 17.3726C19.6029 17.2752 19.6615 17.19 19.7448 17.1351L27.2673 12.174L20.148 16.2825C20.0615 16.3328 19.9587 16.3473 19.8617 16.3229C19.7646 16.2984 19.681 16.237 19.6286 16.1517C19.5763 16.0664 19.5593 15.964 19.5815 15.8664C19.6036 15.7688 19.663 15.6837 19.7471 15.6293L24.0274 12.841L20.148 15.0804C20.1053 15.1071 20.0578 15.1251 20.0082 15.1334C19.9585 15.1417 19.9077 15.1402 19.8587 15.1288C19.7596 15.106 19.6737 15.0447 19.6198 14.9585C19.5659 14.8723 19.5485 14.7682 19.5713 14.6691C19.5942 14.5701 19.6555 14.4841 19.7417 14.4303L24.4184 11.2869L20.148 13.7487C20.0629 13.8009 19.9607 13.8177 19.8633 13.7957C19.7659 13.7737 19.6809 13.7145 19.6264 13.6308C19.572 13.5471 19.5524 13.4454 19.5717 13.3474C19.5911 13.2495 19.648 13.1629 19.7302 13.1062L24.9052 9.33729L20.1519 12.0843C20.0665 12.1363 19.9642 12.153 19.8667 12.1307C19.7692 12.1084 19.6843 12.0489 19.6301 11.9648C19.5759 11.8808 19.5567 11.7789 19.5765 11.6809C19.5963 11.5829 19.6537 11.4966 19.7363 11.4403L22.2878 9.61175L20.148 10.8446C20.064 10.8932 19.9646 10.9082 19.87 10.8864C19.7753 10.8646 19.6925 10.8077 19.6382 10.7272C19.5838 10.6467 19.5621 10.5486 19.5773 10.4527C19.5926 10.3568 19.6436 10.2702 19.7202 10.2105L21.9819 8.43875L20.148 9.49829C20.0677 9.5452 19.973 9.56129 19.8817 9.54356C19.7904 9.52583 19.7086 9.47549 19.6516 9.40192C19.5947 9.32836 19.5664 9.23659 19.5721 9.14373C19.5778 9.05087 19.6171 8.96325 19.6827 8.89722L21.4199 7.13005L20.148 7.86452C20.0782 7.90493 19.9974 7.92227 19.9171 7.91407C19.8368 7.90588 19.7612 7.87256 19.701 7.81887C19.6407 7.76518 19.599 7.69386 19.5817 7.61505C19.5643 7.53625 19.5723 7.45399 19.6045 7.37999L20.0867 6.27752C19.9973 6.2979 19.9036 6.28556 19.8225 6.24274C19.7414 6.19992 19.6784 6.12945 19.6448 6.04413C19.6112 5.95881 19.6093 5.86428 19.6395 5.77769C19.6697 5.6911 19.7298 5.61819 19.8092 5.57219L20.7 5.06005C20.7699 5.01994 20.8505 5.00283 20.9306 5.01116C21.0107 5.01949 21.0862 5.05284 21.1463 5.10647C21.2063 5.1601 21.248 5.23128 21.2653 5.30992C21.2827 5.38857 21.2748 5.47067 21.2428 5.54459L20.7752 6.61792L23.4723 5.06005C23.5525 5.01377 23.6468 4.99811 23.7377 5.01598C23.8287 5.03385 23.91 5.08403 23.9668 5.15725C24.0235 5.23047 24.0519 5.32177 24.0465 5.41426C24.0412 5.50675 24.0025 5.59417 23.9377 5.66035L22.2004 7.42752L26.3059 5.06005C26.3898 5.01264 26.4885 4.99858 26.5823 5.02066C26.6761 5.04275 26.7582 5.09936 26.8121 5.17921C26.8661 5.25907 26.8879 5.35632 26.8734 5.4516C26.8589 5.54687 26.809 5.63317 26.7337 5.69332L24.472 7.46279L28.6381 5.06005C28.7232 5.01193 28.8235 4.99818 28.9185 5.0216C29.0135 5.04502 29.0959 5.10385 29.1489 5.18604C29.2019 5.26823 29.2214 5.36758 29.2036 5.46373C29.1857 5.55989 29.1318 5.64559 29.0529 5.70329L26.5022 7.52949L30.784 5.06005C30.869 5.01172 30.9692 4.99768 31.0641 5.02078C31.1591 5.04389 31.2417 5.1024 31.2949 5.18435C31.3482 5.26631 31.3681 5.36551 31.3507 5.46169C31.3333 5.55786 31.2797 5.64373 31.2011 5.70175L26.0261 9.47222L33.6674 5.06005C33.7533 5.01248 33.8542 4.99968 33.9492 5.02429C34.0443 5.0489 34.1263 5.10904 34.1783 5.19232C34.2303 5.2756 34.2484 5.37566 34.2288 5.47187C34.2092 5.56808 34.1534 5.65311 34.073 5.70942L29.4009 8.85275L35.9743 5.06005C36.0608 5.01176 36.1625 4.99878 36.2583 5.02383C36.3541 5.04888 36.4364 5.11001 36.4882 5.19443C36.5399 5.27885 36.5569 5.38 36.5358 5.47671C36.5146 5.57342 36.4568 5.65818 36.3745 5.71325L32.0942 8.50239L38.0566 5.06005C38.1428 5.01183 38.2443 4.99875 38.34 5.02355C38.4356 5.04835 38.5179 5.10912 38.5699 5.19317C38.6218 5.27722 38.6392 5.37807 38.6186 5.47468C38.598 5.5713 38.5408 5.65621 38.4591 5.71172L30.9381 10.6721L40.6579 5.06005C40.7009 5.03393 40.7487 5.01653 40.7985 5.00887C40.8482 5.0012 40.899 5.00341 40.9479 5.01537C40.9968 5.02733 41.0429 5.04881 41.0835 5.07857C41.1241 5.10834 41.1585 5.14581 41.1846 5.18885C41.2107 5.23189 41.2281 5.27966 41.2358 5.32942C41.2435 5.37918 41.2412 5.42997 41.2293 5.47888C41.2173 5.52779 41.1958 5.57386 41.1661 5.61447C41.1363 5.65508 41.0988 5.68943 41.0558 5.71555L35.2245 9.42239L42.4626 5.24329C42.5502 5.19103 42.6549 5.17569 42.7537 5.20063C42.8526 5.22558 42.9375 5.28877 42.9897 5.3763C43.042 5.46384 43.0573 5.56854 43.0324 5.66739C43.0074 5.76624 42.9442 5.85113 42.8567 5.90339L41.5219 6.72679L42.7187 6.03679C42.8051 5.9885 42.9069 5.97552 43.0027 6.00056C43.0984 6.02561 43.1808 6.08675 43.2325 6.17116C43.2843 6.25558 43.3013 6.35674 43.2801 6.45344C43.2589 6.55015 43.2012 6.63492 43.1189 6.68999L32.5588 13.5402L42.7187 7.67439C42.8055 7.62739 42.907 7.61565 43.0022 7.64163C43.0974 7.6676 43.1789 7.72928 43.2297 7.81382C43.2806 7.89837 43.2969 7.99928 43.2753 8.09554C43.2536 8.19181 43.1957 8.27602 43.1135 8.33065L37.5077 11.8573L42.721 8.84892C42.8076 8.79964 42.9099 8.786 43.0064 8.81088C43.1029 8.83577 43.1858 8.89723 43.2378 8.98225C43.2897 9.06727 43.3065 9.16916 43.2846 9.26634C43.2627 9.36352 43.2038 9.44836 43.1204 9.50289L32.8624 16.1346L42.7187 10.4444C42.8058 10.3953 42.9086 10.3822 43.0052 10.4078C43.1018 10.4335 43.1846 10.4958 43.2359 10.5816C43.2872 10.6674 43.3029 10.7698 43.2798 10.8671C43.2566 10.9643 43.1964 11.0487 43.112 11.1022L41.0872 12.3572L42.7187 11.415C42.8056 11.3622 42.9099 11.3461 43.0087 11.3703C43.1075 11.3944 43.1926 11.4568 43.2454 11.5438C43.2982 11.6307 43.3142 11.735 43.2901 11.8338C43.2659 11.9326 43.2035 12.0177 43.1166 12.0705L34.5614 17.5353L42.7187 12.8256C42.8053 12.7763 42.9076 12.7627 43.0041 12.7876C43.1006 12.8125 43.1835 12.8739 43.2355 12.9589C43.2874 13.044 43.3042 13.1459 43.2823 13.243C43.2604 13.3402 43.2015 13.4251 43.1181 13.4796L33.2136 19.8698L42.7202 14.382C42.8069 14.3335 42.9089 14.3206 43.0049 14.3459C43.1009 14.3711 43.1833 14.4327 43.2348 14.5175C43.2864 14.6023 43.303 14.7038 43.2813 14.8006C43.2595 14.8975 43.201 14.9821 43.1181 15.0367L34.3843 20.6234L42.7187 15.8103C42.8057 15.7631 42.9075 15.7514 43.0029 15.7776C43.0983 15.8038 43.1799 15.8658 43.2306 15.9508C43.2813 16.0358 43.2972 16.137 43.2749 16.2334C43.2527 16.3298 43.194 16.4139 43.1112 16.4681L42.7501 16.6912C42.8387 16.6511 42.9391 16.6461 43.0311 16.6773C43.1232 16.7084 43.2 16.7734 43.2459 16.859C43.2919 16.9446 43.3037 17.0445 43.2788 17.1385C43.2539 17.2324 43.1943 17.3134 43.112 17.3651L40.8404 18.7742L42.7187 17.6894C42.8057 17.6368 42.9101 17.621 43.0088 17.6453C43.1075 17.6697 43.1925 17.7323 43.245 17.8193C43.2976 17.9063 43.3134 18.0107 43.289 18.1094C43.2647 18.2081 43.2021 18.2931 43.1151 18.3456L35.8118 22.9755L42.7187 18.9889C42.8055 18.9402 42.9079 18.9272 43.0042 18.9527C43.1004 18.9782 43.183 19.0401 43.2344 19.1254C43.2858 19.2106 43.302 19.3126 43.2796 19.4096C43.2572 19.5066 43.1979 19.591 43.1143 19.6451L36.5248 23.8051L42.7187 20.2286C42.8057 20.1784 42.909 20.1644 43.0063 20.1895C43.1035 20.2147 43.187 20.2771 43.2387 20.3632C43.2905 20.4493 43.3064 20.5523 43.283 20.65C43.2595 20.7477 43.1987 20.8323 43.1135 20.8856L38.1938 23.9676L42.7172 21.3548C42.8039 21.3017 42.9081 21.2853 43.007 21.3091C43.1058 21.3329 43.1912 21.3949 43.2442 21.4817C43.2973 21.5684 43.3138 21.6726 43.29 21.7715C43.2662 21.8703 43.2041 21.9557 43.1174 22.0088L32.1234 29.1702L42.7187 23.053C42.806 23.0009 42.9105 22.9857 43.009 23.0106C43.1076 23.0356 43.1922 23.0986 43.2442 23.186C43.2963 23.2733 43.3115 23.3777 43.2866 23.4763C43.2616 23.5749 43.1986 23.6595 43.1112 23.7115L41.5664 24.6676L42.7164 24.0029C42.8027 23.9553 42.9039 23.9429 42.9992 23.968C43.0944 23.9932 43.1763 24.054 43.2279 24.1379C43.2795 24.2218 43.2968 24.3224 43.2762 24.4187C43.2556 24.5151 43.1987 24.5998 43.1174 24.6553L31.8474 32.0153L42.7187 25.7401C42.8051 25.6918 42.9069 25.6789 43.0027 25.7039C43.0984 25.7289 43.1808 25.7901 43.2325 25.8745C43.2843 25.9589 43.3013 26.0601 43.2801 26.1568C43.2589 26.2535 43.2012 26.3383 43.1189 26.3933L32.499 33.2864L42.7187 27.3869C42.8053 27.3406 42.9064 27.3293 43.0011 27.3554C43.0958 27.3815 43.1768 27.4429 43.2276 27.5269C43.2783 27.611 43.2949 27.7114 43.2738 27.8073C43.2527 27.9032 43.1956 27.9874 43.1143 28.0424L36.8276 32.0076L42.721 28.6059C42.8073 28.5584 42.9085 28.5459 43.0038 28.5711C43.099 28.5962 43.1809 28.6571 43.2325 28.741C43.2841 28.8249 43.3014 28.9255 43.2808 29.0218C43.2602 29.1181 43.2033 29.2028 43.122 29.2584L32.082 36.4505L42.7187 30.3095C42.8051 30.2612 42.9069 30.2482 43.0027 30.2732C43.0984 30.2983 43.1808 30.3594 43.2325 30.4438C43.2843 30.5282 43.3013 30.6294 43.2801 30.7261C43.2589 30.8228 43.2012 30.9076 43.1189 30.9627L32.8716 37.6265L42.7187 31.9417C42.8052 31.8914 42.908 31.8769 43.005 31.9013C43.1021 31.9258 43.1857 31.9872 43.2381 32.0725C43.2905 32.1578 43.3074 32.2602 43.2852 32.3578C43.2631 32.4554 43.2037 32.5405 43.1197 32.5949L35.1195 37.8082L42.7187 33.4267C42.8049 33.3785 42.9064 33.3654 43.0021 33.3902C43.0977 33.415 43.18 33.4758 43.232 33.5598C43.2839 33.6439 43.3013 33.7447 43.2807 33.8414C43.2601 33.938 43.2029 34.0229 43.1212 34.0784L36.639 38.3441L42.7187 34.8343C42.8048 34.7844 42.9069 34.7699 43.0035 34.794C43.1001 34.818 43.1835 34.8787 43.2362 34.9631C43.2889 35.0479 43.3064 35.1499 43.2851 35.2474C43.2637 35.3449 43.2052 35.4302 43.122 35.4852L38.2713 38.7052L42.7179 36.1384C42.8038 36.0908 42.9047 36.078 42.9997 36.1027C43.0948 36.1273 43.1768 36.1874 43.2288 36.2707C43.2808 36.354 43.2989 36.454 43.2793 36.5502C43.2597 36.6465 43.2039 36.7315 43.1235 36.7878L39.2825 39.3776L42.7179 37.3942C42.8026 37.3441 42.9032 37.3285 42.999 37.3506C43.0949 37.3726 43.1786 37.4306 43.2328 37.5126C43.2871 37.5947 43.3078 37.6944 43.2905 37.7912C43.2733 37.8881 43.2196 37.9746 43.1404 38.0329L38.1923 41.7665L42.7156 39.1537C42.8011 39.1038 42.9026 39.0889 42.9989 39.1121C43.0951 39.1353 43.1787 39.1949 43.232 39.2783C43.2853 39.3618 43.3043 39.4626 43.2849 39.5597C43.2655 39.6568 43.2093 39.7426 43.1281 39.7993L41.9842 40.6043L42.7156 40.1818C42.7998 40.1344 42.8988 40.1206 42.9927 40.143C43.0867 40.1655 43.1687 40.2226 43.2223 40.3029C43.276 40.3832 43.2974 40.4808 43.2822 40.5762C43.267 40.6716 43.2163 40.7577 43.1404 40.8174L41.617 41.9904L42.7187 41.3541C42.8029 41.3057 42.9023 41.2911 42.9969 41.3133C43.0914 41.3354 43.174 41.3926 43.2281 41.4733C43.2821 41.5539 43.3035 41.6521 43.2879 41.748C43.2723 41.8438 43.221 41.9302 43.1442 41.9896L42.8728 42.1997C42.9338 42.195 42.995 42.2044 43.0517 42.2272C43.1085 42.2499 43.1593 42.2853 43.2002 42.3308C43.2585 42.3982 43.2914 42.4839 43.2934 42.573C43.2954 42.6622 43.2662 42.7492 43.2109 42.8192L42.3745 43.881L42.7187 43.6832C42.8063 43.6374 42.9082 43.6272 43.0032 43.6547C43.0981 43.6822 43.1788 43.7454 43.2283 43.831C43.2777 43.9166 43.2922 44.018 43.2687 44.1141C43.2452 44.2101 43.1855 44.2933 43.102 44.3464L41.032 45.5401C40.9549 45.5845 40.8647 45.6008 40.7769 45.586C40.689 45.5712 40.6091 45.5263 40.5508 45.459C40.4925 45.3917 40.4594 45.3062 40.4573 45.2172C40.4551 45.1282 40.4841 45.0412 40.5391 44.9712L41.3763 43.9078L38.5488 45.5401C38.4647 45.5871 38.366 45.6008 38.2723 45.5784C38.1786 45.556 38.0967 45.4991 38.0431 45.419C37.9894 45.339 37.9679 45.2417 37.9828 45.1465C37.9976 45.0513 38.0478 44.9651 38.1233 44.9053L38.1938 44.8501L36.9986 45.5401C36.9144 45.5884 36.815 45.603 36.7204 45.5808C36.6259 45.5587 36.5432 45.5015 36.4892 45.4209C36.4352 45.3402 36.4138 45.242 36.4294 45.1461C36.445 45.0503 36.4963 44.9639 36.5731 44.9045L38.1034 43.73L34.96 45.5401C34.8746 45.5893 34.7736 45.6037 34.6778 45.5804C34.5821 45.5571 34.499 45.4978 34.4458 45.4148C34.3926 45.3318 34.3734 45.2316 34.3923 45.1348C34.4111 45.0381 34.4664 44.9523 34.5468 44.8953L35.6914 44.0903L33.1814 45.5401C33.0969 45.5885 32.9971 45.6029 32.9024 45.5804C32.8076 45.558 32.725 45.5003 32.6712 45.4191C32.6174 45.3379 32.5966 45.2393 32.6129 45.1433C32.6292 45.0473 32.6814 44.9611 32.7589 44.9022L37.7078 41.1701L30.1339 45.5401C30.0479 45.589 29.9463 45.6029 29.8504 45.5787C29.7545 45.5546 29.6716 45.4942 29.6191 45.4103C29.5666 45.3265 29.5486 45.2256 29.5688 45.1287C29.589 45.0319 29.6459 44.9466 29.7275 44.8907L33.5678 42.3024L27.9581 45.5401C27.8719 45.5891 27.7701 45.6028 27.674 45.5784C27.578 45.5539 27.4951 45.4932 27.4428 45.409C27.3906 45.3248 27.3729 45.2236 27.3937 45.1267C27.4144 45.0298 27.4719 44.9446 27.554 44.8892L32.4047 41.6692L25.7041 45.5401C25.646 45.5745 25.5799 45.593 25.5124 45.5937Z" fill="#39B54A"/>
<path d="M28.06 42.5269C27.9778 42.5271 27.8977 42.5008 27.8315 42.452C27.7653 42.4031 27.7166 42.3343 27.6926 42.2557C27.6685 42.1771 27.6704 42.0928 27.6979 42.0153C27.7254 41.9378 27.7771 41.8712 27.8453 41.8254L30.4114 40.0965L27.1147 42.0009C27.0285 42.0499 26.9267 42.0637 26.8307 42.0392C26.7346 42.0148 26.6517 41.9541 26.5995 41.8699C26.5472 41.7857 26.5296 41.6845 26.5503 41.5876C26.571 41.4906 26.6285 41.4055 26.7107 41.35L29.8762 39.2363L26.7567 41.0388C26.6704 41.0863 26.5691 41.0988 26.4739 41.0736C26.3786 41.0485 26.2967 40.9876 26.2451 40.9037C26.1936 40.8198 26.1763 40.7192 26.1969 40.6229C26.2174 40.5266 26.2743 40.4419 26.3557 40.3863L27.9557 39.3414L26.3381 40.2752C26.2515 40.3255 26.1488 40.34 26.0517 40.3155C25.9547 40.2911 25.871 40.2296 25.8187 40.1443C25.7663 40.059 25.7494 39.9566 25.7715 39.859C25.7936 39.7614 25.8531 39.6763 25.9371 39.622L27.2458 38.7733L25.76 39.6289C25.6736 39.6772 25.5718 39.6901 25.476 39.6651C25.3802 39.64 25.2979 39.5789 25.2462 39.4945C25.1944 39.4101 25.1774 39.3089 25.1986 39.2122C25.2197 39.1155 25.2775 39.0307 25.3598 38.9757L26.9361 37.956L24.978 39.0861C24.8925 39.1327 24.7925 39.1451 24.6983 39.1207C24.604 39.0964 24.5225 39.037 24.4704 38.9548C24.4183 38.8725 24.3995 38.7735 24.4177 38.6779C24.4359 38.5822 24.4899 38.4971 24.5686 38.4398L31.8174 33.4334L23.4071 38.2887C23.322 38.3317 23.2239 38.3414 23.132 38.3159C23.0401 38.2904 22.961 38.2316 22.9102 38.151C22.8593 38.0703 22.8404 37.9736 22.857 37.8797C22.8736 37.7858 22.9246 37.7015 23 37.6432L30.8614 32.3118L23.2147 36.7232C23.1281 36.7701 23.0268 36.7819 22.9318 36.7562C22.8368 36.7304 22.7553 36.6691 22.7043 36.585C22.6532 36.5008 22.6365 36.4002 22.6576 36.3041C22.6787 36.2079 22.7359 36.1236 22.8175 36.0685L24.4965 34.9997L23.2147 35.7403C23.1287 35.7893 23.0271 35.8032 22.9312 35.779C22.8353 35.7548 22.7524 35.6945 22.6999 35.6106C22.6474 35.5268 22.6294 35.4258 22.6496 35.329C22.6698 35.2321 22.7267 35.1469 22.8083 35.091L30.7817 29.689L23.2116 34.059C23.1252 34.1081 23.0232 34.1218 22.9269 34.0971C22.8307 34.0724 22.7478 34.0114 22.6957 33.9268C22.6436 33.8422 22.6264 33.7407 22.6477 33.6436C22.669 33.5466 22.7271 33.4616 22.8099 33.4066L28.29 29.8171L23.2147 32.7473C23.1277 32.8 23.0234 32.8161 22.9246 32.792C22.8259 32.7678 22.7407 32.7054 22.688 32.6185C22.6352 32.5315 22.6191 32.4272 22.6433 32.3284C22.6674 32.2297 22.7298 32.1445 22.8168 32.0918L24.7242 30.8774L23.2147 31.7491C23.1282 31.7974 23.0265 31.8103 22.9307 31.7853C22.8349 31.7602 22.7525 31.6991 22.7008 31.6147C22.6491 31.5303 22.632 31.4291 22.6532 31.3324C22.6744 31.2357 22.7322 31.1509 22.8145 31.0959L27.14 28.2899L23.2147 30.5577C23.1284 30.6052 23.0271 30.6177 22.9319 30.5925C22.8366 30.5674 22.7547 30.5065 22.7031 30.4226C22.6516 30.3387 22.6343 30.2381 22.6549 30.1418C22.6754 30.0455 22.7323 29.9608 22.8137 29.9052L27.3432 26.9643L23.2147 29.3471C23.1286 29.3953 23.0273 29.4085 22.9318 29.384C22.8363 29.3595 22.7539 29.2991 22.7018 29.2153C22.6497 29.1316 22.6318 29.031 22.6519 28.9345C22.6721 28.838 22.7286 28.7529 22.8099 28.697L29.7865 24.0395L23.2147 27.836C23.1279 27.8891 23.0237 27.9055 22.9248 27.8817C22.826 27.8579 22.7406 27.7958 22.6876 27.7091C22.6345 27.6224 22.6181 27.5181 22.6419 27.4193C22.6656 27.3204 22.7277 27.2351 22.8145 27.182L26.9353 24.5163L23.2147 26.663C23.1288 26.7106 23.0279 26.7234 22.9328 26.6988C22.8378 26.6742 22.7558 26.614 22.7038 26.5307C22.6518 26.4475 22.6337 26.3474 22.6533 26.2512C22.6729 26.155 22.7287 26.0699 22.8091 26.0136L30.1737 21.0725L23.2147 25.0913C23.1284 25.1414 23.0259 25.1558 22.9292 25.1315C22.8324 25.1073 22.7489 25.0463 22.6964 24.9614C22.6439 24.8766 22.6266 24.7746 22.648 24.6772C22.6695 24.5798 22.7281 24.4946 22.8114 24.4397L29.118 20.2675L23.2147 23.6761C23.1281 23.7254 23.0257 23.739 22.9293 23.7141C22.8328 23.6892 22.7498 23.6278 22.6979 23.5427C22.646 23.4577 22.6292 23.3558 22.6511 23.2586C22.673 23.1615 22.7318 23.0766 22.8152 23.0221L26.2323 20.8202L23.2147 22.5629C23.1719 22.5895 23.1244 22.6074 23.0747 22.6157C23.025 22.6239 22.9742 22.6223 22.9251 22.6109C22.8761 22.5995 22.8298 22.5786 22.7888 22.5493C22.7478 22.52 22.7131 22.4829 22.6864 22.4402C22.6598 22.3975 22.6418 22.3499 22.6336 22.3002C22.6253 22.2505 22.627 22.1997 22.6384 22.1507C22.6497 22.1016 22.6707 22.0553 22.7 22.0143C22.7293 21.9734 22.7664 21.9386 22.8091 21.912L28.553 18.0656L23.2147 21.1476C23.1285 21.1966 23.0267 21.2103 22.9306 21.1859C22.8346 21.1615 22.7517 21.1008 22.6994 21.0166C22.6472 20.9324 22.6295 20.8312 22.6503 20.7342C22.671 20.6373 22.7285 20.5522 22.8106 20.4967L26.9215 17.7658L23.2147 19.9064C23.1294 19.9538 23.0294 19.967 22.9348 19.9433C22.8402 19.9195 22.7582 19.8606 22.7055 19.7785C22.6528 19.6964 22.6334 19.5973 22.6513 19.5014C22.6691 19.4055 22.7228 19.3201 22.8014 19.2624L29.4714 14.5343L23.2147 18.1446C23.1282 18.1981 23.0241 18.2152 22.9251 18.192C22.8261 18.1688 22.7404 18.1072 22.6868 18.0208C22.6332 17.9343 22.6162 17.8302 22.6394 17.7312C22.6626 17.6322 22.7242 17.5465 22.8106 17.4929L25.5377 15.6851L23.2147 17.026C23.1298 17.0739 23.0299 17.0877 22.9353 17.0645C22.8406 17.0414 22.7583 16.9831 22.7051 16.9015C22.6519 16.8199 22.6318 16.7211 22.6488 16.6251C22.6659 16.5292 22.7188 16.4434 22.7968 16.3851L28.2839 12.3831L23.2147 15.3102C23.1302 15.3593 23.0303 15.3743 22.9351 15.3522C22.84 15.3301 22.7569 15.2725 22.7028 15.1912C22.6487 15.1099 22.6276 15.011 22.644 14.9147C22.6603 14.8184 22.7128 14.732 22.7907 14.6731L26.5435 11.8203L23.2147 13.7431C23.1299 13.7938 23.0289 13.8098 22.9326 13.7878C22.8364 13.7659 22.7523 13.7076 22.6979 13.6252C22.6436 13.5427 22.6231 13.4425 22.6408 13.3454C22.6585 13.2482 22.713 13.1617 22.793 13.1037L26.0667 10.6604C26.0554 10.6504 26.0449 10.6396 26.0352 10.6282C25.9777 10.5592 25.9461 10.4723 25.9461 10.3825C25.9461 10.2926 25.9777 10.2057 26.0352 10.1367L26.6332 9.4107C26.5777 9.37771 26.532 9.33063 26.5006 9.27423C26.4497 9.18628 26.4358 9.08172 26.462 8.98353C26.4881 8.88535 26.5522 8.80156 26.6401 8.7506L27.725 8.12423C27.8028 8.07925 27.8939 8.06303 27.9824 8.07841C28.071 8.09378 28.1513 8.13978 28.2094 8.20835C28.2674 8.27693 28.2996 8.36373 28.3002 8.4536C28.3007 8.54346 28.2697 8.63067 28.2126 8.7L27.9741 8.98827L29.4691 8.12653C29.5538 8.0784 29.6536 8.0643 29.7483 8.08709C29.843 8.10989 29.9255 8.16788 29.9789 8.24928C30.0324 8.33067 30.0529 8.42938 30.0363 8.52534C30.0196 8.6213 29.967 8.70732 29.8893 8.76593L28.4686 9.82623L31.4134 8.12653C31.4978 8.0785 31.5973 8.06428 31.6917 8.08675C31.7862 8.10922 31.8686 8.16669 31.9223 8.24758C31.9761 8.32846 31.9971 8.42672 31.9812 8.5225C31.9653 8.61829 31.9136 8.70447 31.8366 8.76363L28.0799 11.6156L34.1274 8.12653C34.2124 8.07695 34.3132 8.06195 34.409 8.08465C34.5047 8.10735 34.5881 8.16601 34.6418 8.24848C34.6955 8.33095 34.7154 8.43091 34.6974 8.52766C34.6795 8.62442 34.625 8.71056 34.5452 8.76823L29.0567 12.7664L35.8716 8.83263C35.9576 8.78511 36.0587 8.77248 36.1538 8.79737C36.249 8.82225 36.3309 8.88275 36.3827 8.96634C36.4345 9.04993 36.4522 9.15022 36.4321 9.24648C36.412 9.34275 36.3557 9.42761 36.2748 9.48353L33.5447 11.2944L36.1966 9.76107C36.282 9.71184 36.3831 9.69738 36.4788 9.7207C36.5746 9.74402 36.6577 9.80333 36.7109 9.8863C36.764 9.96928 36.7832 10.0696 36.7644 10.1663C36.7456 10.263 36.6902 10.3488 36.6099 10.4058L29.946 15.1354L37.1281 10.9885C37.2144 10.9385 37.3168 10.924 37.4136 10.9483C37.5104 10.9726 37.5939 11.0336 37.6464 11.1184C37.6989 11.2032 37.7162 11.3052 37.6948 11.4026C37.6733 11.5 37.6147 11.5853 37.5314 11.6402L33.4198 14.371L38.1509 11.6394C38.2371 11.5882 38.34 11.5728 38.4375 11.5966C38.5349 11.6203 38.6192 11.6813 38.6721 11.7665C38.7251 11.8517 38.7426 11.9543 38.7208 12.0522C38.699 12.1501 38.6397 12.2356 38.5557 12.2903L32.8172 16.1328L39.4527 12.2995C39.5391 12.2519 39.6407 12.2396 39.736 12.265C39.8314 12.2904 39.9133 12.3516 39.9647 12.4359C40.0161 12.5201 40.033 12.621 40.0118 12.7174C39.9907 12.8138 39.9332 12.8984 39.8513 12.9535L36.4305 15.1584L39.6505 13.2985C39.7367 13.2502 39.8382 13.2372 39.9338 13.262C40.0295 13.2868 40.1118 13.3475 40.1637 13.4316C40.2156 13.5156 40.2331 13.6165 40.2125 13.7131C40.1918 13.8097 40.1347 13.8946 40.053 13.9501L33.7487 18.1208L39.652 14.713C39.738 14.6647 39.8393 14.6515 39.9348 14.6761C40.0303 14.7006 40.1127 14.761 40.1648 14.8447C40.217 14.9284 40.2348 15.029 40.2147 15.1256C40.1946 15.2221 40.138 15.3072 40.0568 15.3631L32.6899 20.3058L39.652 16.2869C39.7386 16.2377 39.8409 16.224 39.9374 16.2489C40.0339 16.2738 40.1168 16.3352 40.1688 16.4203C40.2207 16.5053 40.2375 16.6072 40.2156 16.7044C40.1937 16.8015 40.1348 16.8864 40.0514 16.9409L35.9314 19.6066L39.652 17.4599C39.7382 17.4109 39.8399 17.3972 39.936 17.4216C40.0321 17.4461 40.1149 17.5068 40.1672 17.591C40.2195 17.6752 40.2371 17.7764 40.2164 17.8733C40.1956 17.9702 40.1382 18.0554 40.056 18.1108L33.0794 22.766L39.6528 18.971C39.7395 18.918 39.8437 18.9015 39.9426 18.9253C40.0414 18.9491 40.1268 19.0112 40.1798 19.0979C40.2329 19.1846 40.2494 19.2889 40.2256 19.3877C40.2018 19.4866 40.1397 19.5719 40.053 19.625L35.5243 22.5659L39.6528 20.1816C39.7393 20.1323 39.8417 20.1187 39.9382 20.1436C40.0346 20.1685 40.1176 20.2299 40.1695 20.3149C40.2215 20.3999 40.2382 20.5018 40.2163 20.599C40.1944 20.6962 40.1356 20.781 40.0522 20.8356L35.7205 23.6431L39.6528 21.373C39.7396 21.3234 39.8423 21.3097 39.9391 21.3347C40.0359 21.3598 40.119 21.4217 40.1708 21.5072C40.2226 21.5927 40.239 21.6951 40.2164 21.7924C40.1938 21.8898 40.134 21.9745 40.0499 22.0285L38.1486 23.2391L39.6528 22.3712C39.7391 22.3221 39.8412 22.3085 39.9374 22.3331C40.0336 22.3578 40.1165 22.4189 40.1686 22.5035C40.2207 22.5881 40.2379 22.6896 40.2166 22.7866C40.1953 22.8836 40.1372 22.9686 40.0545 23.0236L34.5767 26.6162L39.6558 23.6837C39.7418 23.6347 39.8434 23.6209 39.9393 23.6451C40.0352 23.6692 40.1181 23.7296 40.1706 23.8134C40.2231 23.8973 40.2411 23.9982 40.2209 24.0951C40.2007 24.1919 40.1438 24.2772 40.0622 24.3331L32.0888 29.7358L39.6589 25.3658C39.7454 25.3189 39.8467 25.3071 39.9417 25.3328C40.0368 25.3586 40.1182 25.4199 40.1693 25.504C40.2203 25.5882 40.2371 25.6888 40.216 25.7849C40.1949 25.8811 40.1376 25.9655 40.056 26.0205L38.3878 27.0816L39.6589 26.3479C39.7449 26.2989 39.8464 26.2851 39.9424 26.3092C40.0383 26.3334 40.1212 26.3937 40.1737 26.4776C40.2261 26.5615 40.2442 26.6624 40.2239 26.7592C40.2037 26.8561 40.1469 26.9414 40.0652 26.9973L32.2 32.3294L39.6551 28.0254C39.7405 27.9787 39.8405 27.9663 39.9348 27.9907C40.0291 28.0151 40.1105 28.0744 40.1626 28.1567C40.2147 28.2389 40.2336 28.3379 40.2153 28.4336C40.1971 28.5292 40.1432 28.6143 40.0645 28.6717L32.8133 33.6772L39.6512 29.7289C39.7378 29.6796 39.8402 29.666 39.9366 29.6909C40.0331 29.7158 40.1161 29.7772 40.168 29.8622C40.2199 29.9472 40.2367 30.0491 40.2148 30.1463C40.1929 30.2435 40.134 30.3283 40.0507 30.3829L38.4583 31.4133L39.6512 30.7233C39.7379 30.6702 39.8422 30.6538 39.941 30.6775C40.0399 30.7013 40.1252 30.7634 40.1783 30.8502C40.2314 30.9369 40.2478 31.0411 40.224 31.14C40.2002 31.2388 40.1381 31.3242 40.0514 31.3772L38.7565 32.2167L39.6512 31.7008C39.7375 31.6532 39.8388 31.6408 39.934 31.6659C40.0293 31.6911 40.1112 31.7519 40.1627 31.8358C40.2143 31.9198 40.2316 32.0203 40.211 32.1166C40.1904 32.213 40.1336 32.2977 40.0522 32.3532L38.4468 33.4012L39.6512 32.7066C39.7374 32.6576 39.8392 32.6439 39.9352 32.6683C40.0313 32.6928 40.1142 32.7535 40.1664 32.8377C40.2187 32.9219 40.2363 33.0231 40.2156 33.12C40.1949 33.2169 40.1374 33.3021 40.0553 33.3575L36.8859 35.4743L39.6512 33.8781C39.7373 33.8282 39.8394 33.8137 39.936 33.8378C40.0326 33.8618 40.116 33.9224 40.1687 34.0069C40.2214 34.0913 40.2391 34.1929 40.2182 34.2902C40.1974 34.3875 40.1395 34.4729 40.0568 34.5282L37.4961 36.2517L39.6512 35.0082C39.7371 34.9573 39.8393 34.9419 39.9363 34.9652C40.0333 34.9886 40.1174 35.0488 40.1707 35.1332C40.224 35.2175 40.2423 35.3193 40.2218 35.4169C40.2012 35.5145 40.1434 35.6003 40.0606 35.656L38.0757 37.0299L39.652 36.1198C39.7376 36.0707 39.8388 36.0565 39.9346 36.0801C40.0303 36.1037 40.1133 36.1634 40.1663 36.2466C40.2192 36.3299 40.238 36.4303 40.2188 36.5271C40.1995 36.6239 40.1437 36.7095 40.0629 36.7661L39.238 37.3365L39.6413 37.1065C39.7241 37.0585 39.8219 37.0433 39.9155 37.0638C40.009 37.0843 40.0915 37.1391 40.1467 37.2173C40.2019 37.2956 40.2258 37.3917 40.2137 37.4867C40.2016 37.5816 40.1544 37.6687 40.0813 37.7306L36.4619 40.8164C36.4784 40.8357 36.4931 40.8565 36.5056 40.8785C36.5565 40.9665 36.5704 41.071 36.5442 41.1692C36.5181 41.2674 36.454 41.3512 36.3661 41.4022L34.5046 42.4755C34.4218 42.5225 34.3246 42.5371 34.2317 42.5164C34.1388 42.4956 34.0569 42.4411 34.002 42.3633C33.9471 42.2856 33.9231 42.1902 33.9347 42.0957C33.9462 42.0012 33.9925 41.9144 34.0645 41.8522L36.3952 39.8665L31.8719 42.4732C31.7865 42.5205 31.6863 42.5334 31.5917 42.5093C31.4971 42.4853 31.4152 42.426 31.3628 42.3437C31.3104 42.2614 31.2913 42.1621 31.3096 42.0662C31.3278 41.9703 31.3819 41.885 31.4609 41.8277L32.2851 41.2527L30.1706 42.4732C30.0849 42.5231 29.9832 42.5378 29.8869 42.5143C29.7906 42.4908 29.7071 42.4309 29.6541 42.3471C29.601 42.2634 29.5824 42.1623 29.6022 42.0652C29.6221 41.968 29.6788 41.8824 29.7605 41.8261L31.7461 40.4569L28.254 42.4732C28.1952 42.508 28.1283 42.5266 28.06 42.5269Z" fill="#269245"/>
<path d="M31.4679 30.2588C31.3889 30.2588 31.3118 30.2345 31.2472 30.189C31.1826 30.1436 31.1336 30.0793 31.1069 30.005C31.0802 29.9306 31.0772 29.8499 31.0981 29.7737C31.1191 29.6976 31.1631 29.6298 31.2241 29.5795L32.1234 28.8343L30.163 29.9667C30.0795 30.0146 29.9811 30.0293 29.8873 30.0079C29.7935 29.9866 29.7111 29.9307 29.6565 29.8515C29.602 29.7722 29.5792 29.6753 29.5928 29.5801C29.6064 29.4848 29.6553 29.3981 29.7298 29.3373L31.9394 27.5494L28.9034 29.3043C28.8184 29.3526 28.7182 29.3667 28.6232 29.3436C28.5282 29.3205 28.4457 29.262 28.3924 29.18C28.3391 29.0981 28.3192 28.9988 28.3366 28.9027C28.3541 28.8065 28.4076 28.7206 28.4863 28.6626L29.6654 27.8047L28.1942 28.6534C28.1109 28.7 28.0133 28.7139 27.9203 28.6923C27.8274 28.6708 27.7458 28.6153 27.6916 28.5369C27.6373 28.4584 27.6143 28.3625 27.627 28.2679C27.6397 28.1733 27.6872 28.0869 27.7603 28.0255L31.185 25.2233L27.4038 27.406C27.3193 27.4545 27.2195 27.4689 27.1248 27.4464C27.03 27.424 26.9474 27.3663 26.8936 27.2851C26.8398 27.2039 26.819 27.1053 26.8353 27.0093C26.8516 26.9133 26.9038 26.8271 26.9813 26.7682L29.0858 25.1804L27.1048 26.3235C27.0212 26.3708 26.923 26.385 26.8295 26.3633C26.736 26.3416 26.654 26.2856 26.5998 26.2065C26.5455 26.1273 26.523 26.0306 26.5366 25.9356C26.5502 25.8406 26.5989 25.7541 26.6731 25.6933L28.9601 23.8533L27.1086 24.9167C27.0292 24.9622 26.9362 24.9779 26.8462 24.9608C26.7563 24.9437 26.6755 24.895 26.6184 24.8235C26.5612 24.752 26.5315 24.6625 26.5347 24.571C26.5379 24.4795 26.5736 24.3922 26.6356 24.3248L28.3721 22.4449L28.3077 22.4825C28.2195 22.5333 28.1148 22.5471 28.0165 22.5207C27.9182 22.4943 27.8345 22.43 27.7836 22.3418C27.7328 22.2537 27.7191 22.149 27.7455 22.0507C27.7718 21.9524 27.8362 21.8686 27.9243 21.8178L30.1745 20.5191C30.2539 20.473 30.3472 20.4569 30.4374 20.4738C30.5276 20.4907 30.6088 20.5394 30.6662 20.6111C30.7235 20.6827 30.7533 20.7726 30.75 20.8643C30.7467 20.9561 30.7106 21.0436 30.6483 21.1109L28.911 22.9931L32.8847 20.7C32.9682 20.6528 33.0664 20.6386 33.1599 20.6602C33.2534 20.6819 33.3354 20.7379 33.3896 20.8171C33.4439 20.8963 33.4664 20.9929 33.4528 21.0879C33.4393 21.1829 33.3905 21.2694 33.3163 21.3302L31.0293 23.1702L34.1006 21.3969C34.1851 21.3485 34.2848 21.3341 34.3796 21.3565C34.4743 21.379 34.557 21.4367 34.6108 21.5179C34.6645 21.5991 34.6854 21.6977 34.6691 21.7937C34.6528 21.8897 34.6006 21.9759 34.523 22.0348L32.4208 23.6218L34.8834 22.2011C34.9666 22.1545 35.0643 22.1407 35.1572 22.1622C35.2501 22.1838 35.3317 22.2392 35.386 22.3177C35.4402 22.3962 35.4632 22.4921 35.4505 22.5867C35.4378 22.6812 35.3903 22.7676 35.3173 22.829L31.8934 25.635L35.5734 23.506C35.6583 23.4577 35.7585 23.4436 35.8535 23.4667C35.9485 23.4898 36.031 23.5484 36.0843 23.6303C36.1376 23.7123 36.1575 23.8115 36.1401 23.9076C36.1226 24.0038 36.0691 24.0897 35.9904 24.1477L34.809 25.0071L35.7842 24.4452C35.8676 24.3982 35.9657 24.3841 36.059 24.4057C36.1523 24.4274 36.2341 24.4831 36.2883 24.5621C36.3426 24.641 36.3653 24.7374 36.352 24.8323C36.3387 24.9271 36.2904 25.0136 36.2166 25.0746L34.0094 26.8609L35.7267 25.8696C35.81 25.8214 35.9084 25.8063 36.0024 25.8272C36.0963 25.8482 36.1789 25.9038 36.2338 25.9829C36.2887 26.062 36.3118 26.1589 36.2985 26.2542C36.2852 26.3496 36.2365 26.4364 36.1622 26.4975L35.2353 27.2642C35.3203 27.232 35.414 27.231 35.4997 27.2615C35.5853 27.292 35.6574 27.3519 35.7029 27.4306C35.7538 27.5185 35.7677 27.6231 35.7415 27.7213C35.7154 27.8195 35.6513 27.9033 35.5634 27.9542L31.6634 30.2067C31.6041 30.2415 31.5366 30.2595 31.4679 30.2588Z" fill="#39B54A"/>
<path d="M25.524 10.7991C24.7573 11.9928 22.8544 11.7107 22.4719 13.1758C22.4404 21.2135 22.3837 29.3103 22.4443 37.358C22.5048 38.9795 24.5863 38.7012 25.3676 39.8428C26.4164 42.5552 27.2605 42.7055 30.0795 42.408C39.4405 43.0367 34.0708 41.1614 39.5908 38.4306C41.246 37.1625 40.0983 34.5374 40.4226 32.7135C39.7395 26.2076 41.8026 17.7344 39.603 11.9913C36.7096 11.4838 37.4019 8.57734 35.3266 8.19094C31.9463 8.61337 26.7637 6.47514 25.524 10.7991ZM27.617 8.6747C29.9262 8.6908 32.2875 8.6425 34.6059 8.6747C35.6846 8.79584 35.7099 10.1858 36.2864 10.9379C36.9573 12.2727 39.0181 11.9438 39.3117 13.428V36.8566C39.6575 38.2788 37.7998 38.5793 36.8906 39.2685C35.9261 39.8451 35.9069 41.2274 35.2407 41.925C33.1784 42.0017 31.0409 41.876 28.9594 41.925C27.3494 42.2877 27.2444 40.7283 26.5973 39.6848C25.928 38.3271 23.7384 38.6268 23.5552 37.0782V13.162C23.6127 12.5755 24.019 12.4038 24.5066 12.1799C26.2485 11.6532 26.8787 10.0777 27.617 8.6747Z" fill="#262626"/>
<path d="M32.4167 30.0118C37.2943 29.2559 38.0901 22.0231 33.1834 20.6546C24.9931 18.4865 23.7235 31.493 32.4167 30.0118ZM27.9701 22.9585C29.9971 19.1144 35.6544 21.4796 35.4757 25.4478C35.0518 32.8899 24.7347 29.0504 27.9716 22.9592L27.9701 22.9585Z" fill="#262626"/>
<path d="M3.56029 11.2883L9.55332 42.9026C9.96886 46.0773 17.0621 42.4426 19.3782 42.6327C18.5203 46.6569 22.3107 45.3927 24.889 45.5177C30.5799 45.5177 36.2732 45.5238 41.9642 45.5177C43.6508 45.3643 43.519 44.0756 43.4883 42.7975V5.98909C42.0646 3.81022 30.3446 5.66709 26.962 5.05452C26.7374 3.81559 26.5963 2.51609 26.2521 1.31012C24.7678 -0.749146 18.4766 2.27459 15.9113 2.20789C13.3951 3.27202 2.42256 3.32185 2.56286 6.02742C2.82122 7.78845 3.22909 9.54029 3.56029 11.2883ZM19.3782 26.3433C12.3371 28.3367 12.2298 16.0593 19.3782 18.4697V26.3433ZM19.3782 6.97885V17.5696C10.8804 15.7434 10.7915 29.2421 19.3782 27.0885V38.886C16.7991 40.0184 16.8397 37.8426 15.0373 36.8106C14.2484 36.3813 12.7028 36.4748 12.4414 35.5334C10.9847 27.8621 9.52981 20.188 8.07672 12.5111C7.50479 10.8321 10.0946 10.6359 10.471 9.14392C10.77 8.55589 10.7777 7.12605 11.3811 6.82859C13.4825 6.90909 18.4129 4.24645 19.3705 6.54032C19.3713 6.68829 19.3782 6.83625 19.3782 6.97655V6.97885ZM38.7304 5.65099C39.8681 5.92929 41.8913 4.95485 42.3782 6.30189C42.4104 18.8499 42.3552 31.4769 42.3782 44.0526C42.4203 46.19 32.4054 44.3807 30.1291 44.9496C28.1358 44.4819 20.8134 46.052 20.4883 44.0403C20.4408 31.4056 20.4998 18.7602 20.4883 6.12249C20.4952 5.70772 20.4055 5.70235 20.7888 5.65099C26.7566 5.62415 32.7519 5.67322 38.7304 5.65099ZM4.42356 4.89122C11.1242 3.65535 17.8479 2.29989 24.5271 1.08395C25.7423 1.45962 25.3919 4.02489 25.7921 5.05375C23.8885 5.19712 21.7778 4.73865 19.97 5.36425C17.6401 3.75425 13.9716 5.98219 11.2561 6.08032C10.0609 6.36705 9.93742 7.08312 9.72276 8.14419C9.14776 10.8628 5.62799 10.4994 7.18432 13.9709C8.56892 21.2593 9.95173 28.5495 11.3328 35.8416C11.7284 37.335 13.2011 36.8766 14.2959 37.5022C16.1436 39.231 16.4303 40.7091 19.3782 39.6488V42.1229C17.4293 42.0638 11.6348 44.5662 10.7401 43.0053C10.5968 42.4686 10.5301 41.8967 10.4266 41.3508C8.25689 29.9086 6.08773 18.4653 3.91909 7.02102C3.86466 6.20989 3.04126 4.80919 4.42356 4.89122Z" fill="#262626"/>
</svg>
