<svg width="24" height="25" viewBox="0 0 24 25" fill="none" xmlns="http://www.w3.org/2000/svg">
<path d="M20.6597 8.47731H21.8182C23.0232 8.47731 24 9.45414 24 10.6591V15.0228C24 16.2278 23.0232 17.2046 21.8182 17.2046H20.6597C20.1229 21.5096 16.4505 24.8409 12 24.8409V22.6591C15.6149 22.6591 18.5455 19.7286 18.5455 16.1137V9.56822C18.5455 5.95326 15.6149 3.02276 12 3.02276C8.38504 3.02276 5.45455 5.95326 5.45455 9.56822V17.2046H2.18182C0.976833 17.2046 0 16.2278 0 15.0228V10.6591C0 9.45414 0.976833 8.47731 2.18182 8.47731H3.34024C3.87708 4.17224 7.54951 0.840942 12 0.840942C16.4505 0.840942 20.1229 4.17224 20.6597 8.47731ZM2.18182 10.6591V15.0228H3.27273V10.6591H2.18182ZM20.7273 10.6591V15.0228H21.8182V10.6591H20.7273ZM7.37393 16.9699L8.53045 15.1195C9.5363 15.7495 10.7256 16.1137 12 16.1137C13.2744 16.1137 14.4637 15.7495 15.4695 15.1195L16.6261 16.9699C15.2849 17.8099 13.6992 18.2955 12 18.2955C10.3008 18.2955 8.71508 17.8099 7.37393 16.9699Z" fill="white"/>
</svg>
