<svg width="46" height="46" viewBox="0 0 46 46" fill="none" xmlns="http://www.w3.org/2000/svg">
<path d="M32.4877 26.3072C39.454 26.3072 45.1014 20.6615 45.1014 13.6973C45.1014 6.73304 39.454 1.0874 32.4877 1.0874C25.5214 1.0874 19.874 6.73304 19.874 13.6973C19.874 20.6615 25.5214 26.3072 32.4877 26.3072Z" stroke="#0F1225" stroke-width="1.79643" stroke-miterlimit="10" stroke-linecap="round" stroke-linejoin="round"/>
<path d="M3.1706 31.6443L1.60986 30.084C0.675621 29.1501 0.675621 27.6358 1.60986 26.7018L8.64936 19.6643C9.5836 18.7304 11.0984 18.7304 12.0326 19.6643L13.5933 21.2246M17.4597 25.0899L26.3052 33.9328C27.0247 34.6521 27.0247 35.8183 26.3052 36.5377C25.5856 37.257 24.419 37.257 23.6995 36.5377L18.1146 30.9544" stroke="#0F1225" stroke-width="1.79643" stroke-miterlimit="10" stroke-linecap="round" stroke-linejoin="round"/>
<path d="M18.1145 30.9541L23.6994 36.5374C24.419 37.2567 24.419 38.423 23.6994 39.1423C22.9799 39.8616 21.8133 39.8616 21.0937 39.1423L14.896 32.9465" stroke="#0F1225" stroke-width="1.79643" stroke-miterlimit="10" stroke-linecap="round" stroke-linejoin="round"/>
<path d="M21.0935 39.1426C21.8131 39.8619 21.8131 41.0281 21.0935 41.7475C20.374 42.4668 19.2074 42.4668 18.4878 41.7475" stroke="#0F1225" stroke-width="1.79643" stroke-miterlimit="10" stroke-linecap="round" stroke-linejoin="round"/>
<path d="M16.3127 39.5725L18.4881 41.7473C19.2077 42.4666 19.2077 43.6328 18.4881 44.3522C17.7686 45.0715 16.602 45.0715 15.8824 44.3522L13.7185 42.189M2.797 32.0175L7.07916 27.7367C7.79872 27.0174 8.96532 27.0174 9.68489 27.7367C10.4044 28.456 10.4044 29.6223 9.68489 30.3417L5.40272 34.6225C4.68316 35.3418 3.51656 35.3418 2.797 34.6225C2.07743 33.9032 2.07743 32.7369 2.797 32.0175Z" stroke="#0F1225" stroke-width="1.79643" stroke-miterlimit="10" stroke-linecap="round" stroke-linejoin="round"/>
<path d="M5.40246 34.6225L9.68463 30.3417C10.4042 29.6224 11.5708 29.6224 12.2904 30.3417C13.0099 31.061 13.0099 32.2273 12.2904 32.9466L8.00819 37.2274C7.28863 37.9467 6.12203 37.9467 5.40246 37.2274C4.6829 36.5082 4.6829 35.3419 5.40246 34.6225Z" stroke="#0F1225" stroke-width="1.79643" stroke-miterlimit="10" stroke-linecap="round" stroke-linejoin="round"/>
<path d="M8.00842 37.2275L12.2906 32.9467C13.0101 32.2274 14.1767 32.2274 14.8963 32.9467C15.6159 33.666 15.6159 34.8322 14.8963 35.5516L10.6141 39.8324C9.89459 40.5517 8.72798 40.5517 8.00842 39.8324C7.28886 39.1131 7.28886 37.9468 8.00842 37.2275Z" stroke="#0F1225" stroke-width="1.79643" stroke-miterlimit="10" stroke-linecap="round" stroke-linejoin="round"/>
<path d="M10.6139 39.8324L14.8961 35.5516C15.6156 34.8323 16.7822 34.8323 17.5018 35.5516C18.2213 36.2709 18.2213 37.4371 17.5018 38.1565L13.2196 42.4373C12.5001 43.1566 11.3335 43.1566 10.6139 42.4373C9.89433 41.718 9.89433 40.5517 10.6139 39.8324ZM26.7568 25.8181L19.5692 18.6326C18.635 17.6986 17.1202 17.6986 16.186 18.6326L12.2564 22.561C11.4475 23.3696 11.4475 24.6806 12.2564 25.4891C13.0652 26.2977 14.3765 26.2977 15.1854 25.4891L16.5222 24.1528L24.164 31.7923L26.7568 29.2003C27.6911 28.2663 27.6911 26.752 26.7568 25.8181Z" stroke="#0F1225" stroke-width="1.79643" stroke-miterlimit="10" stroke-linecap="round" stroke-linejoin="round"/>
<path d="M25.7426 13.4086L25.642 13.1068C25.5916 12.9556 25.4949 12.824 25.3655 12.7308C25.2362 12.6376 25.0808 12.5874 24.9214 12.5874V13.6824C24.9214 13.9002 25.0079 14.1091 25.1619 14.2631C25.3159 14.4171 25.5248 14.5036 25.7426 14.5036H26.2901V13.4086H25.7426Z" fill="#D6D6D4"/>
<path d="M29.4018 13.1068L29.3012 13.4086H28.48V14.5036H29.3012C29.519 14.5036 29.7279 14.4171 29.8819 14.2631C30.0359 14.1091 30.1224 13.9002 30.1224 13.6824V12.5874C29.963 12.5874 29.8076 12.6376 29.6783 12.7308C29.549 12.824 29.4522 12.9556 29.4018 13.1068Z" fill="#D6D6D4"/>
<path d="M39.3118 10.6997C39.2456 10.8696 39.2307 11.0551 39.2688 11.2334C39.307 11.4116 39.3966 11.5748 39.5265 11.7027L40.4162 12.5924C40.4589 12.6351 40.4906 12.6877 40.5084 12.7456C40.5261 12.8034 40.5295 12.8647 40.5181 12.9241C40.5067 12.9835 40.4809 13.0392 40.443 13.0864C40.4051 13.1335 40.3562 13.1707 40.3007 13.1946C40.238 13.2226 40.1686 13.2323 40.1007 13.2224C40.0328 13.2126 39.969 13.1836 39.9169 13.1389L39.3692 12.6825C39.1063 12.1587 38.7025 11.7186 38.2032 11.4117C37.704 11.1047 37.129 10.9431 36.543 10.9449C35.9841 10.9445 35.4406 10.7619 34.9949 10.4248L34.6081 10.1346C33.9354 9.62475 33.1218 9.33482 32.2782 9.30434C31.2148 9.27004 30.1811 9.6582 29.4031 10.3839L26.1888 13.1348H25.9397L25.9015 13.0202C25.8332 12.8145 25.7019 12.6357 25.5262 12.5088C25.3505 12.382 25.1394 12.3137 24.9227 12.3136C24.85 12.3134 24.7801 12.3422 24.7285 12.3935C24.6768 12.4448 24.6477 12.5145 24.6475 12.5873V13.6823C24.6475 13.9727 24.7628 14.2512 24.9682 14.4566C25.1735 14.6619 25.452 14.7773 25.7424 14.7773H26.0162V16.9672C26.0162 17.0398 26.045 17.1094 26.0964 17.1608C26.1477 17.2121 26.2173 17.241 26.2899 17.241H27.3849C27.4208 17.241 27.4564 17.2339 27.4896 17.2201C27.5229 17.2064 27.553 17.1862 27.5785 17.1608L28.3195 16.4197H28.7536V16.8945L27.6986 18.7408C27.679 18.7739 27.6664 18.8107 27.6615 18.8489C27.6566 18.8871 27.6596 18.9259 27.6703 18.9629C27.6874 19.0191 27.7221 19.0683 27.7693 19.1033C27.8165 19.1382 27.8736 19.1571 27.9324 19.1572H29.3011C29.3493 19.1572 29.3967 19.1444 29.4385 19.1202C29.4802 19.0959 29.5148 19.0611 29.5388 19.0192L30.6337 17.103C30.6574 17.0617 30.6698 17.0148 30.6698 16.9672V16.4197H31.491V16.8945L30.436 18.7408C30.4164 18.7739 30.4038 18.8107 30.3989 18.8489C30.3941 18.8871 30.3971 18.9259 30.4077 18.9629C30.4248 19.0191 30.4595 19.0683 30.5067 19.1033C30.5539 19.1382 30.6111 19.1571 30.6698 19.1572H32.0385C32.0868 19.1572 32.1342 19.1444 32.1759 19.1202C32.2176 19.0959 32.2522 19.0611 32.2762 19.0192L33.3712 17.103C33.3948 17.0617 33.4072 17.0148 33.4072 16.9672V16.4197H34.9668L36.3663 17.3527L35.885 18.7967C35.8667 18.8517 35.8663 18.9111 35.8838 18.9663C35.9013 19.0215 35.9359 19.0698 35.9826 19.1041C36.0319 19.1395 36.0913 19.1581 36.1521 19.1572H37.5134C37.5744 19.1571 37.6337 19.1367 37.6818 19.0992C37.7299 19.0616 37.7641 19.009 37.7789 18.9498L38.2888 16.9108L39.0922 17.1518L38.621 18.8008C38.6039 18.8573 38.6048 18.9177 38.6235 18.9737C38.6423 19.0273 38.6773 19.0737 38.7236 19.1066C38.7699 19.1394 38.8253 19.1571 38.8821 19.1572H40.2508C40.3131 19.1572 40.3735 19.1359 40.4221 19.0969C40.4707 19.058 40.5045 19.0036 40.518 18.9428L41.0655 16.4791C41.0755 16.4341 41.074 16.3874 41.0611 16.3432C41.0482 16.299 41.0244 16.2587 40.9918 16.2262L39.7033 14.9377V14.0929C39.7033 13.9391 39.692 13.7856 39.6697 13.6334C39.8139 13.7246 39.981 13.7733 40.1517 13.7737C40.3839 13.7733 40.6075 13.6854 40.7777 13.5273C40.9478 13.3693 41.0521 13.1529 41.0696 12.9213C41.0795 12.7898 41.0609 12.6576 41.0148 12.534C40.9688 12.4104 40.8966 12.2982 40.8031 12.2052L39.9018 11.3037C39.8499 11.2519 39.8146 11.1858 39.8004 11.114C39.7861 11.0421 39.7934 10.9676 39.8214 10.8999C39.8495 10.8322 39.897 10.7743 39.9579 10.7336C40.0188 10.6929 40.0905 10.6711 40.1638 10.6711H40.7983C40.8709 10.6711 40.9405 10.6423 40.9918 10.591C41.0432 10.5396 41.072 10.47 41.072 10.3974C41.072 10.3248 41.0432 10.2552 40.9918 10.2038C40.9405 10.1525 40.8709 10.1237 40.7983 10.1237H40.1638C39.98 10.1217 39.8001 10.1758 39.6479 10.2787C39.4957 10.3817 39.3785 10.5285 39.3118 10.6997ZM30.1223 16.8945L29.1422 18.6097H28.4041L29.265 17.103C29.2887 17.0617 29.3011 17.0148 29.3011 16.9672V16.4197H30.1223V16.8945ZM37.2996 18.6097H36.5245L36.9518 17.3275C36.9708 17.2706 36.9705 17.2089 36.951 17.1521C36.9316 17.0953 36.8939 17.0465 36.844 17.0132L35.9538 16.4197H37.134C37.3214 16.5689 37.5349 16.6819 37.7637 16.7528L37.2996 18.6097ZM40.4984 16.5071L40.0312 18.6097H39.245L39.6928 17.0425C39.7125 16.9733 39.7043 16.8991 39.6697 16.8359C39.6352 16.7728 39.5772 16.7258 39.5082 16.7051L37.9413 16.235C37.6586 16.1516 37.4107 15.9787 37.2348 15.7422C37.0589 15.5058 36.9645 15.2186 36.9659 14.924V14.5035H36.4184V14.924C36.4176 15.2562 36.5031 15.583 36.6665 15.8722H33.4072V14.7773H32.8597V16.8945L31.8796 18.6097H31.1415L32.0024 17.103C32.0261 17.0617 32.0385 17.0148 32.0385 16.9672V15.3248H31.491V15.8722H28.2061C28.1702 15.8722 28.1346 15.8793 28.1014 15.8931C28.0681 15.9068 28.038 15.927 28.0125 15.9524L27.2715 16.6935H26.5637V14.5035C26.5637 14.4309 26.5348 14.3613 26.4835 14.31C26.4321 14.2586 26.3625 14.2298 26.2899 14.2298H25.7424C25.5973 14.2296 25.4581 14.1719 25.3555 14.0692C25.2529 13.9666 25.1951 13.8275 25.1949 13.6823V12.9454C25.2828 13.0052 25.3486 13.0923 25.3821 13.1933L25.4828 13.4951C25.5009 13.5496 25.5358 13.597 25.5824 13.6306C25.629 13.6642 25.685 13.6823 25.7424 13.6823H29.3011C29.3585 13.6823 29.4145 13.6642 29.4611 13.6306C29.5077 13.597 29.5426 13.5496 29.5608 13.4951L29.6614 13.1933C29.6949 13.0923 29.7607 13.0052 29.8486 12.9454V13.6823C29.8484 13.8275 29.7907 13.9666 29.688 14.0692C29.5854 14.1719 29.4462 14.2296 29.3011 14.2298H28.4799V14.7773H29.3011C29.5914 14.7769 29.8697 14.6615 30.075 14.4562C30.2803 14.2509 30.3957 13.9726 30.3961 13.6823V12.5873C30.3961 12.5147 30.3672 12.4451 30.3159 12.3938C30.2645 12.3424 30.1949 12.3136 30.1223 12.3136C29.9054 12.3134 29.6939 12.3816 29.5179 12.5084C29.3419 12.6352 29.2104 12.8143 29.142 13.0202L29.1038 13.1348H27.0308L29.7635 10.7961C29.7665 10.7936 29.7694 10.7909 29.7723 10.7883C30.3712 10.2293 31.1476 9.89892 31.9656 9.85494C32.7836 9.81096 33.591 10.0562 34.2464 10.5477L34.6664 10.8628C35.212 11.2702 35.8743 11.4909 36.5553 11.4924C37.2447 11.4931 37.9057 11.7674 38.3933 12.2549C38.8808 12.7424 39.155 13.4034 39.1558 14.0929V15.051C39.1558 15.087 39.1629 15.1226 39.1766 15.1558C39.1904 15.189 39.2106 15.2192 39.236 15.2446L40.4984 16.5071Z" fill="#0F1225"/>
</svg>
