<svg width="101" height="34" viewBox="0 0 101 34" fill="none" xmlns="http://www.w3.org/2000/svg">
<rect width="101" height="34" rx="17" fill="#FFA41B" fill-opacity="0.12"/>
<rect x="0.5" y="0.5" width="100" height="33" rx="16.5" stroke="#FFA41B" stroke-opacity="0.37"/>
<path d="M20.4853 15.3842L19.5425 14.4414L13.3333 20.6505V21.5933H14.2761L20.4853 15.3842ZM21.4281 14.4414L22.3709 13.4986L21.4281 12.5558L20.4853 13.4986L21.4281 14.4414ZM14.8284 22.9267H12V20.0982L20.9567 11.1415C21.2171 10.8812 21.6391 10.8812 21.8995 11.1415L23.7851 13.0272C24.0455 13.2875 24.0455 13.7096 23.7851 13.97L14.8284 22.9267Z" fill="#F09308"/>
<path d="M30.6979 22V12.9H36.2099V13.888H31.7119V21.012H36.1839V22H30.6979ZM31.1659 17.814V16.826H35.4819V17.814H31.1659ZM40.2826 22.13C39.6673 22.13 39.1126 21.9783 38.6186 21.675C38.1333 21.3717 37.7476 20.9557 37.4616 20.427C37.1843 19.8897 37.0456 19.283 37.0456 18.607C37.0456 17.9223 37.1886 17.3157 37.4746 16.787C37.7606 16.2497 38.1463 15.8293 38.6316 15.526C39.117 15.2227 39.663 15.071 40.2696 15.071C40.6076 15.071 40.9326 15.123 41.2446 15.227C41.5653 15.331 41.8513 15.4783 42.1026 15.669C42.354 15.851 42.562 16.0633 42.7266 16.306C42.8913 16.54 42.991 16.787 43.0256 17.047L42.7266 16.943V12.38H43.7016V22H42.7396L42.7136 20.31L42.9606 20.219C42.926 20.4617 42.8263 20.7 42.6616 20.934C42.5056 21.1593 42.3063 21.363 42.0636 21.545C41.821 21.727 41.5436 21.87 41.2316 21.974C40.9283 22.078 40.612 22.13 40.2826 22.13ZM40.4256 21.233C40.8763 21.233 41.2793 21.1203 41.6346 20.895C41.99 20.6697 42.2673 20.3577 42.4666 19.959C42.6746 19.5603 42.7786 19.1053 42.7786 18.594C42.7786 18.0827 42.6746 17.632 42.4666 17.242C42.2673 16.8433 41.99 16.5313 41.6346 16.306C41.2793 16.072 40.8763 15.955 40.4256 15.955C39.9576 15.955 39.546 16.072 39.1906 16.306C38.844 16.5313 38.5666 16.8433 38.3586 17.242C38.1593 17.632 38.0596 18.0827 38.0596 18.594C38.0596 19.0967 38.1593 19.5473 38.3586 19.946C38.558 20.3447 38.8353 20.661 39.1906 20.895C39.546 21.1203 39.9576 21.233 40.4256 21.233ZM45.3609 22V15.214H46.3359V22H45.3609ZM45.8419 13.745C45.5992 13.745 45.4129 13.6843 45.2829 13.563C45.1615 13.433 45.1009 13.2597 45.1009 13.043C45.1009 12.8263 45.1659 12.653 45.2959 12.523C45.4259 12.393 45.6079 12.328 45.8419 12.328C46.0759 12.328 46.2579 12.393 46.3879 12.523C46.5179 12.6443 46.5829 12.8177 46.5829 13.043C46.5829 13.251 46.5179 13.42 46.3879 13.55C46.2579 13.68 46.0759 13.745 45.8419 13.745ZM48.9011 22V13.433H49.8761V22H48.9011ZM47.3671 16.15V15.214H51.5921V16.15H47.3671ZM55.8229 22V12.9H59.4239C59.9006 12.9 60.3296 13.017 60.7109 13.251C61.0922 13.485 61.3956 13.81 61.6209 14.226C61.8462 14.6333 61.9589 15.0927 61.9589 15.604C61.9589 16.1413 61.8462 16.6223 61.6209 17.047C61.3956 17.463 61.0922 17.7967 60.7109 18.048C60.3296 18.2907 59.9006 18.412 59.4239 18.412H56.8369V22H55.8229ZM56.8369 17.424H59.4759C59.7446 17.424 59.9829 17.346 60.1909 17.19C60.4076 17.0253 60.5809 16.8087 60.7109 16.54C60.8409 16.2627 60.9059 15.9463 60.9059 15.591C60.9059 15.2703 60.8409 14.9843 60.7109 14.733C60.5809 14.473 60.4076 14.2693 60.1909 14.122C59.9829 13.966 59.7446 13.888 59.4759 13.888H56.8369V17.424ZM63.0198 22V15.214H63.9948L64.0208 17.021L63.9168 16.774C64.0121 16.4707 64.1638 16.189 64.3718 15.929C64.5885 15.669 64.8441 15.461 65.1388 15.305C65.4335 15.149 65.7585 15.071 66.1138 15.071C66.2611 15.071 66.3998 15.084 66.5298 15.11C66.6598 15.1273 66.7681 15.1533 66.8548 15.188L66.5818 16.28C66.4691 16.228 66.3521 16.1933 66.2308 16.176C66.1181 16.15 66.0098 16.137 65.9058 16.137C65.6111 16.137 65.3468 16.189 65.1128 16.293C64.8788 16.397 64.6795 16.5443 64.5148 16.735C64.3501 16.917 64.2245 17.1293 64.1378 17.372C64.0511 17.6147 64.0078 17.8747 64.0078 18.152V22H63.0198ZM70.0804 22.13C69.4044 22.13 68.8021 21.9783 68.2734 21.675C67.7534 21.3717 67.3418 20.9513 67.0384 20.414C66.7438 19.8767 66.5964 19.2657 66.5964 18.581C66.5964 17.905 66.7438 17.3027 67.0384 16.774C67.3418 16.2453 67.7534 15.8293 68.2734 15.526C68.8021 15.2227 69.4044 15.071 70.0804 15.071C70.7478 15.071 71.3414 15.2227 71.8614 15.526C72.3901 15.8293 72.8018 16.2453 73.0964 16.774C73.3998 17.3027 73.5514 17.905 73.5514 18.581C73.5514 19.2657 73.3998 19.8767 73.0964 20.414C72.8018 20.9513 72.3901 21.3717 71.8614 21.675C71.3414 21.9783 70.7478 22.13 70.0804 22.13ZM70.0804 21.207C70.5571 21.207 70.9818 21.0943 71.3544 20.869C71.7271 20.635 72.0174 20.323 72.2254 19.933C72.4334 19.5343 72.5374 19.0837 72.5374 18.581C72.5374 18.0783 72.4334 17.632 72.2254 17.242C72.0174 16.852 71.7271 16.5487 71.3544 16.332C70.9818 16.1067 70.5571 15.994 70.0804 15.994C69.6038 15.994 69.1748 16.1067 68.7934 16.332C68.4208 16.5487 68.1261 16.8563 67.9094 17.255C67.7014 17.645 67.6018 18.087 67.6104 18.581C67.6018 19.0837 67.7014 19.5343 67.9094 19.933C68.1261 20.323 68.4208 20.635 68.7934 20.869C69.1748 21.0943 69.6038 21.207 70.0804 21.207ZM75 22V14.161C75 13.823 75.0737 13.524 75.221 13.264C75.3683 13.004 75.5763 12.8003 75.845 12.653C76.1223 12.497 76.443 12.419 76.807 12.419C77.0843 12.419 77.3313 12.471 77.548 12.575C77.7733 12.6703 77.9597 12.8047 78.107 12.978L77.769 13.745C77.6303 13.5977 77.4787 13.4937 77.314 13.433C77.158 13.3637 77.0063 13.329 76.859 13.329C76.6683 13.329 76.508 13.3637 76.378 13.433C76.248 13.4937 76.1483 13.589 76.079 13.719C76.0183 13.8403 75.988 13.9877 75.988 14.161V22H75.533C75.4377 22 75.3467 22 75.26 22C75.1733 22 75.0867 22 75 22ZM73.791 16.176V15.266H77.717V16.176H73.791ZM79.394 22V15.214H80.369V22H79.394ZM79.875 13.745C79.6323 13.745 79.446 13.6843 79.316 13.563C79.1947 13.433 79.134 13.2597 79.134 13.043C79.134 12.8263 79.199 12.653 79.329 12.523C79.459 12.393 79.641 12.328 79.875 12.328C80.109 12.328 80.291 12.393 80.421 12.523C80.551 12.6443 80.616 12.8177 80.616 13.043C80.616 13.251 80.551 13.42 80.421 13.55C80.291 13.68 80.109 13.745 79.875 13.745ZM82.0233 22V12.38H82.9983V22H82.0233ZM87.2803 22.13C86.6043 22.13 86.002 21.9827 85.4733 21.688C84.9533 21.3933 84.546 20.9817 84.2513 20.453C83.9566 19.9243 83.8093 19.3177 83.8093 18.633C83.8093 18.1043 83.8916 17.6277 84.0563 17.203C84.221 16.7697 84.4506 16.3927 84.7453 16.072C85.0486 15.7513 85.4083 15.5043 85.8243 15.331C86.2403 15.149 86.691 15.058 87.1763 15.058C87.6356 15.058 88.0516 15.1403 88.4243 15.305C88.8056 15.4697 89.1306 15.6993 89.3993 15.994C89.6766 16.28 89.8846 16.6223 90.0233 17.021C90.162 17.4197 90.2226 17.8573 90.2053 18.334L90.1923 18.789H84.5373L84.3943 17.97H89.4513L89.2173 18.191V17.879C89.2 17.567 89.109 17.268 88.9443 16.982C88.7796 16.6873 88.5456 16.449 88.2423 16.267C87.9476 16.085 87.5923 15.994 87.1763 15.994C86.691 15.994 86.2706 16.0937 85.9153 16.293C85.56 16.4837 85.287 16.7697 85.0963 17.151C84.9056 17.5323 84.8103 18.0047 84.8103 18.568C84.8103 19.1053 84.9143 19.5733 85.1223 19.972C85.3303 20.362 85.625 20.6653 86.0063 20.882C86.3963 21.0987 86.8643 21.207 87.4103 21.207C87.731 21.207 88.0473 21.155 88.3593 21.051C88.68 20.9383 89.031 20.7217 89.4123 20.401L89.9193 21.103C89.72 21.3023 89.4816 21.48 89.2043 21.636C88.927 21.7833 88.6236 21.9047 88.2943 22C87.965 22.0867 87.627 22.13 87.2803 22.13Z" fill="#F09308"/>
</svg>
