<svg width="26" height="24" viewBox="0 0 26 24" fill="none" xmlns="http://www.w3.org/2000/svg">
<path d="M2.19016 22.8409C1.53286 22.8409 1 22.2972 1 21.6268V2.0551C1 1.38454 1.54637 0.840942 2.19016 0.840942H23.8098C24.4672 0.840942 25 1.38477 25 2.0551V21.6268C25 22.2973 24.4536 22.8409 23.8098 22.8409H2.19016ZM22.6 15.5076V3.28539H3.4V20.3965L15.4 8.17428L22.6 15.5076ZM22.6 18.9645L15.4 11.6312L6.79412 20.3965H22.6V18.9645ZM8.2 10.6187C6.87452 10.6187 5.8 9.52434 5.8 8.17428C5.8 6.82425 6.87452 5.72983 8.2 5.72983C9.52548 5.72983 10.6 6.82425 10.6 8.17428C10.6 9.52434 9.52548 10.6187 8.2 10.6187Z" fill="white" stroke="#111117" stroke-width="0.5"/>
</svg>
