<svg width="24" height="29" viewBox="0 0 24 29" fill="none" xmlns="http://www.w3.org/2000/svg">
<path d="M13.3409 4.80684C13.2357 4.8083 13.1318 4.83048 13.0352 4.8721C12.9386 4.91371 12.8511 4.97396 12.7777 5.0494C12.7044 5.12483 12.6466 5.21398 12.6077 5.31175C12.5688 5.40951 12.5495 5.51399 12.551 5.61919V5.94072C11.4871 6.18693 10.6817 7.14456 10.6817 8.27843V9.07957C10.6817 10.3972 11.7675 11.483 13.0851 11.483H13.6192C14.0769 11.483 14.4203 11.8264 14.4203 12.2841V13.0853C14.4203 13.543 14.0769 13.8864 13.6192 13.8864H13.0851C12.6274 13.8864 12.284 13.543 12.284 13.0853C12.284 12.8728 12.1996 12.669 12.0493 12.5188C11.8991 12.3685 11.6953 12.2841 11.4828 12.2841C11.2704 12.2841 11.0666 12.3685 10.9163 12.5188C10.7661 12.669 10.6817 12.8728 10.6817 13.0853C10.6817 14.2191 11.4871 15.1768 12.551 15.423V15.7445C12.551 15.957 12.6354 16.1607 12.7857 16.311C12.9359 16.4612 13.1397 16.5456 13.3522 16.5456C13.5646 16.5456 13.7684 16.4612 13.9186 16.311C14.0689 16.1607 14.1533 15.957 14.1533 15.7445V15.423C15.2172 15.1768 16.0226 14.2191 16.0226 13.0853V12.2841C16.0226 10.9665 14.9368 9.88071 13.6192 9.88071H13.0851C12.6274 9.88071 12.284 9.53728 12.284 9.07957V8.27843C12.284 7.82072 12.6274 7.4773 13.0851 7.4773H13.6192C14.0769 7.4773 14.4203 7.82072 14.4203 8.27843C14.4203 8.49091 14.5047 8.69468 14.655 8.84492C14.8052 8.99516 15.009 9.07957 15.2215 9.07957C15.4339 9.07957 15.6377 8.99516 15.788 8.84492C15.9382 8.69468 16.0226 8.49091 16.0226 8.27843C16.0226 7.14456 15.2172 6.18693 14.1533 5.94072V5.61919C14.1548 5.5121 14.1348 5.40578 14.0945 5.30654C14.0542 5.2073 13.9945 5.11715 13.9187 5.04141C13.843 4.96567 13.7528 4.90589 13.6536 4.8656C13.5543 4.82531 13.448 4.80533 13.3409 4.80684ZM8.8236 18.1591C8.61112 18.1591 8.40735 18.2435 8.25711 18.3938C8.10687 18.544 8.02246 18.7478 8.02246 18.9603C8.02246 19.1727 8.10687 19.3765 8.25711 19.5267C8.40735 19.677 8.61112 19.7614 8.8236 19.7614H13.6192C13.8317 19.7614 14.0354 19.677 14.1857 19.5267C14.3359 19.3765 14.4203 19.1727 14.4203 18.9603C14.4203 18.7478 14.3359 18.544 14.1857 18.3938C14.0354 18.2435 13.8317 18.1591 13.6192 18.1591H8.8236ZM16.2897 18.1591C16.0772 18.1591 15.8734 18.2435 15.7232 18.3938C15.5729 18.544 15.4885 18.7478 15.4885 18.9603C15.4885 19.1727 15.5729 19.3765 15.7232 19.5267C15.8734 19.677 16.0772 19.7614 16.2897 19.7614H17.8807C18.0932 19.7614 18.297 19.677 18.4472 19.5267C18.5974 19.3765 18.6818 19.1727 18.6818 18.9603C18.6818 18.7478 18.5974 18.544 18.4472 18.3938C18.297 18.2435 18.0932 18.1591 17.8807 18.1591H16.2897Z" fill="white"/>
<path d="M2.40341 0C1.08581 0 0 1.08581 0 2.40341V22.1648C0 22.3772 0.0844051 22.581 0.234647 22.7313C0.38489 22.8815 0.588662 22.9659 0.801136 22.9659C1.01361 22.9659 1.21738 22.8815 1.36763 22.7313C1.51787 22.581 1.60227 22.3772 1.60227 22.1648V2.40341C1.60227 1.94569 1.94569 1.60227 2.40341 1.60227H3.73864V23.5H2.40341C1.08581 23.5 0 24.5858 0 25.9034V26.4375C0 27.7551 1.08581 28.8409 2.40341 28.8409H22.6876C22.9001 28.8409 23.1039 28.7565 23.2541 28.6063C23.4044 28.456 23.4888 28.2522 23.4888 28.0398C23.4888 27.8273 23.4044 27.6235 23.2541 27.4733C23.1039 27.323 22.9001 27.2386 22.6876 27.2386H2.40341C1.94569 27.2386 1.60227 26.8952 1.60227 26.4375V25.9034C1.60227 25.4457 1.94569 25.1023 2.40341 25.1023H4.53977C4.75225 25.1023 4.95602 25.0179 5.10626 24.8676C5.2565 24.7174 5.34091 24.5136 5.34091 24.3011V0.801136C5.34091 0.588662 5.2565 0.38489 5.10626 0.234647C4.95602 0.0844051 4.75225 0 4.53977 0H2.40341ZM7.21023 0C6.99775 0 6.79398 0.0844051 6.64374 0.234647C6.4935 0.38489 6.40909 0.588662 6.40909 0.801136C6.40909 1.01361 6.4935 1.21738 6.64374 1.36763C6.79398 1.51787 6.99775 1.60227 7.21023 1.60227H21.0966C21.5543 1.60227 21.8977 1.94569 21.8977 2.40341V22.6989C21.8977 23.1566 21.5543 23.5 21.0966 23.5H7.21023C6.99775 23.5 6.79398 23.5844 6.64374 23.7346C6.4935 23.8849 6.40909 24.0887 6.40909 24.3011C6.40909 24.5136 6.4935 24.7174 6.64374 24.8676C6.79398 25.0179 6.99775 25.1023 7.21023 25.1023H21.0966C22.4142 25.1023 23.5 24.0165 23.5 22.6989V2.40341C23.5 1.08581 22.4142 0 21.0966 0H7.21023Z" fill="white"/>
</svg>
