<svg width="46" height="46" viewBox="0 0 46 46" fill="none" xmlns="http://www.w3.org/2000/svg">
<path d="M41.8793 14.3449C38.456 17.1272 34.8653 19.7842 31.42 22.5868C30.2779 23.5159 29.0383 24.5964 27.4857 24.3528C26.8577 24.2543 26.3674 24.0003 25.7979 23.7515C24.9702 23.3897 24.0681 23.2563 23.1998 23.0249C21.4169 22.5499 19.7182 21.8112 17.9253 21.3606C16.01 20.8792 14.0154 20.5609 12.0731 20.1964C10.436 19.8892 8.82763 19.4617 7.19292 19.1487C6.4951 19.0151 5.88255 18.9183 5.24529 18.6034C4.83021 18.3983 4.51459 18.0795 4.21442 18.5701C3.92422 19.0446 4.26258 20.1523 4.35161 20.6489C4.49069 21.4247 4.69149 22.1879 4.87387 22.9545C5.33899 24.9089 5.6079 26.8962 5.93852 28.8777C6.4217 31.7733 6.20832 34.9358 7.53226 37.6323C8.2599 39.1142 9.32572 39.8143 10.6924 40.6246C12.2244 41.5328 13.8305 41.5393 15.5321 41.9625C17.1393 42.3623 18.7298 42.896 20.3617 43.2227C21.8086 43.5123 23.2278 43.8573 24.6886 44.0822C25.798 44.253 26.8556 44.6795 27.9652 44.826C29.0098 44.9638 30.3622 44.6533 31.3675 44.3385C32.5631 43.9641 33.5944 42.6611 34.457 41.8047C35.7737 40.4974 37.1028 39.2499 38.5203 38.0468C40.0871 36.7169 43.1722 35.0953 43.3244 32.7586C43.3549 32.2909 43.1894 31.8244 43.1321 31.3639C43.0309 30.55 43.0499 29.7182 43.0053 28.9003C42.9111 27.1773 42.7769 25.491 42.7779 23.7608C42.779 21.897 42.7749 20.0319 42.6768 18.1702C42.6281 17.2466 42.4661 16.3107 42.45 15.3889C42.4458 15.152 42.5385 13.8091 41.8793 14.3449Z" fill="#8BEB6A"/>
<path d="M42.1109 14.7574C42.1401 16.0367 41.2832 17.4266 40.518 18.3688C39.2924 19.8778 37.5758 21.033 36.0914 22.267C34.6018 23.5055 33.1168 24.7696 31.5205 25.8693C30.3782 26.6563 29.2197 27.3915 28.1335 28.2582C26.8111 29.3132 25.7932 30.6768 24.867 32.0814C23.1841 34.6339 22.5184 37.5992 21.4091 40.4017C20.094 43.7239 16.5565 42.6653 13.8868 41.7031C12.658 41.2602 11.4677 40.7157 10.2214 40.3169C9.59258 40.1158 8.84211 39.959 8.33153 39.5046C7.67576 38.921 7.33606 37.8644 7.07327 37.0602C6.45128 35.1569 6.14411 32.8778 5.91779 30.8923C5.60451 28.1438 4.97183 25.426 4.69385 22.6804C4.60706 21.8231 4.44193 21.0659 4.22576 20.2372C4.13583 19.8926 3.82596 19.1383 4.24822 18.8774C4.55432 18.6883 5.41628 19.0319 5.71798 19.1177C6.46332 19.3296 7.20319 19.5701 7.94341 19.8015C13.1033 21.4143 18.644 21.5433 23.8413 22.992C24.8731 23.2797 26.0109 23.6894 27.0763 23.7922C29.0984 23.9874 30.7545 22.8281 32.2795 21.6504C34.3954 20.0163 36.2895 18.2945 38.1711 16.401C38.6613 15.9075 41.4444 13.3675 42.1109 14.7574Z" fill="#6BD046"/>
<path d="M31.0409 4.80518C30.7789 4.70518 30.5275 4.57554 30.2699 4.46161C29.39 4.07259 28.4446 3.99092 27.5295 3.70621C26.5196 3.39193 25.4534 3.13354 24.4666 2.75557C23.8724 2.528 23.4634 2.3201 22.8148 2.42001C20.113 2.83598 17.9072 4.52846 15.4897 5.71925C13.5335 6.68282 11.6541 7.79338 9.69851 8.75794C8.21411 9.49008 6.90177 10.4102 5.48322 11.2383C4.46188 11.8346 3.45599 12.1684 3.06571 13.4001C2.66132 14.6763 3.07694 16.3752 3.49696 17.6089C3.89533 18.7791 4.51147 19.0593 5.68879 19.3505C7.84027 19.8826 10.0454 20.0441 12.1889 20.6412C14.0362 21.1558 15.9515 21.3778 17.8323 21.7269C19.6883 22.0714 21.5245 22.4984 23.3902 22.7923C24.9666 23.0408 26.5745 23.5297 28.1658 23.5397C29.6653 23.549 30.7681 23.0653 31.9426 22.1449C34.114 20.4433 36.1719 18.5976 38.381 16.9424C39.7871 15.8889 41.2239 14.8576 42.3671 13.5059C43.0135 12.7417 43.1326 12.1282 43.061 11.1304C42.9864 10.091 42.7407 8.71769 42.3262 7.74594C42.0815 7.17238 41.8833 7.14983 41.2819 7.00994C40.1746 6.75236 39.0823 6.5185 37.9495 6.40035C36.7354 6.27367 35.5177 6.04466 34.3445 5.70191C33.3442 5.40974 32.4207 4.90266 31.0409 4.80518Z" fill="#22AE7B"/>
<path d="M42.8349 13.132C43.36 12.6817 43.4188 11.8923 42.579 11.7967C41.4554 11.6688 40.1188 12.8035 39.3253 13.4341C38.2003 14.3281 37.0554 15.2025 36.0038 16.1828C34.4414 17.6394 32.0009 19.906 29.6543 19.4087C28.9461 19.2586 28.6016 18.8654 28.1287 18.361C27.6843 17.8868 27.3154 17.8047 26.6895 17.7772C25.3031 17.7167 24.1588 17.5843 22.832 17.167C21.3579 16.7035 19.8351 16.2318 18.337 15.8665C16.7713 15.4848 15.2088 15.1065 13.6428 14.7275C12.0073 14.3317 10.2851 14.1996 8.61684 13.9796C7.25796 13.8005 5.91291 13.5726 4.5489 13.4408C4.19518 13.4067 3.47203 13.2353 3.15964 13.4676C2.63612 13.8571 3.15911 15.0386 3.29702 15.5252C3.61318 16.6407 3.71829 17.9895 4.75482 18.6892C6.1368 19.622 8.24633 19.7313 9.85381 20.0549C14.7994 21.0507 19.8688 21.8003 24.7081 23.2737C25.6915 23.5732 27.0132 24.099 28.0525 23.9288C28.8113 23.8044 29.528 23.3665 30.1979 23.02C31.129 22.5383 32.039 22.013 32.9014 21.4153C35.0208 19.9461 37.0896 18.389 39.1465 16.8336C39.9706 16.2105 40.8474 15.5655 41.5882 14.8424C42.31 14.1379 42.7767 13.2442 43.4358 12.4877" fill="#119260"/>
<path d="M30.514 9.82642C30.9032 9.21305 33.7394 7.56173 33.9981 8.87479C34.1684 9.73891 32.655 11.0046 32.1445 11.4999C31.0712 12.5413 29.8907 13.5672 28.6263 14.3742C26.8834 15.4867 24.9489 16.1067 22.8774 16.0141C22.2278 15.9851 21.6953 15.9545 21.1202 15.6333C20.8108 15.4606 20.5002 14.9887 20.2233 14.8695C19.386 14.5089 18.6126 16.4698 17.7815 15.7711C17.0608 15.1652 19.0631 14.0305 19.4966 13.7165C20.3836 13.0739 20.8361 13.3044 21.5063 14.0838C22.6675 15.4341 24.3942 14.5629 25.6876 13.7873C26.5793 13.2526 27.4179 12.6392 28.2123 11.969C29.0613 11.253 30.0364 10.5681 30.514 9.82642ZM14.3296 11.7582C12.4193 12.1588 10.3656 11.8897 8.47897 11.4409C7.96479 11.3186 7.60218 11.1822 7.52635 10.6121C7.47083 10.1949 7.65474 9.60765 8.01789 9.35061C8.57474 8.95646 9.16627 9.29221 9.7021 9.5178C10.3608 9.79524 10.9454 10.1721 11.6468 10.3313C12.5322 10.5323 13.2414 10.4536 14.0938 10.1472C14.4278 10.027 16.0164 9.46246 16.2726 9.94402C16.5433 10.453 14.7845 11.3079 14.3296 11.7582Z" fill="#119260"/>
<path d="M16.5278 16.7142C16.5628 15.2129 17.9089 14.5832 18.9938 13.7601C19.3552 13.4858 19.7933 13.1231 20.2688 13.0748C20.705 13.0306 20.8844 13.3924 21.1499 13.6616C21.5366 14.0536 21.9787 14.2699 22.4882 14.4696C23.6288 14.9165 24.9232 14.6797 25.9654 14.0609C27.334 13.2482 28.6946 12.1133 29.7771 10.9524C30.7417 9.91773 33.1974 6.77185 31.5413 5.41126C30.5082 4.5625 29.1882 5.43686 28.163 4.95072C28.4055 4.59341 28.9091 4.42594 29.1879 4.11104C28.7841 3.82093 28.094 3.82408 27.6145 3.74331C27.0844 3.654 26.8114 3.46802 26.3526 3.68904C25.5618 4.06989 24.8542 4.62261 24.0684 5.01981C23.7433 5.18413 23.2801 5.46867 22.8982 5.4436C22.8213 5.43819 22.7449 5.42677 22.6698 5.40946C22.2263 5.30937 21.8006 5.03849 21.3154 5.01999C20.6806 4.99582 20.0502 5.40398 19.4598 5.34881C19.4193 4.96464 19.6743 4.57274 19.6765 4.16728C19.6792 3.67727 19.536 3.15456 19.3507 2.70651C18.7715 1.30584 17.7888 0.280368 16.1766 0.547474C14.8806 0.7622 13.5137 1.57852 12.4482 2.31093C11.4303 3.01063 10.4801 3.9265 9.78649 4.95503C8.83558 6.36531 8.1861 8.6229 9.89349 9.69572C11.1395 10.4786 13.2287 10.3418 14.5768 9.93022C15.2042 9.73867 16.6561 9.12944 17.2345 9.57291C18.1468 10.2724 15.2477 11.5645 14.884 11.7677C14.2103 12.1451 13.5214 12.4949 12.8193 12.8164C12.2579 13.0728 11.3366 13.3817 11.1582 14.0495C11.0465 14.4676 11.2889 15.0205 11.3381 15.4413C11.4375 16.2921 11.426 17.1598 11.4573 18.0147C11.4913 18.9432 11.6482 19.8592 11.6915 20.7873C11.7486 22.0094 11.5229 23.3106 11.7581 24.5084C11.9998 25.7393 11.9594 27.0544 12.0953 28.3109C12.3916 31.0495 12.8711 33.7738 12.9344 36.5331C12.965 37.863 12.9775 39.5637 13.605 40.7756C14.1206 41.7715 15.6156 42.4992 16.5868 42.8767C17.4941 43.2295 18.3853 43.3507 18.5873 42.1882C18.9594 40.0453 18.5261 37.5605 18.4068 35.4089C18.2515 32.6091 17.8228 29.8183 17.5277 27.0313C17.3582 25.4312 17.3119 23.8119 17.0713 22.2262C16.7914 20.3818 16.4844 18.5791 16.5278 16.7142Z" fill="#F13636"/>
<path d="M31.3479 8.32005C31.1736 8.66541 30.8984 8.93476 30.645 9.22379C29.8877 10.0875 29.1303 10.9741 28.3049 11.7744C27.1165 12.9267 25.6333 13.9942 24.0136 14.4338C23.0634 14.6917 21.6151 14.856 20.9327 13.9775C20.4818 13.3969 20.5012 12.6119 20.5207 11.9151C20.5295 11.6029 20.4824 10.5054 20.73 10.2485C20.9304 10.0407 21.266 10.0673 21.5283 9.95835C22.1625 9.69484 22.6115 9.14509 23.187 8.80063C23.6086 8.54826 23.6774 8.50648 23.8812 8.97223C24.0249 9.30061 23.9744 9.68155 24.1756 10.0035C24.4349 10.4184 24.8272 10.6272 25.2832 10.7458C27.8075 11.403 29.2453 8.89883 30.5882 7.30428C30.7937 7.06026 31.7298 5.94692 32.1678 6.3116C32.6919 6.74779 31.5715 8.33362 31.3479 8.32005ZM18.1447 9.62243C17.8679 9.5369 17.847 9.23844 17.7844 8.97403C17.5881 8.1454 17.7751 7.07841 18.5349 6.58229C19.3065 6.07845 19.502 6.55471 19.7905 7.20455C20.0948 7.88952 20.6178 8.06247 21.3685 7.89509C21.7337 7.81369 22.5689 7.17167 22.8712 7.60373C23.0986 7.92878 22.6865 8.58689 22.5021 8.80745C21.5367 9.96249 19.2915 10.6493 18.1447 9.62243Z" fill="#E81D1D"/>
<path d="M14.6869 10.2513C13.6361 10.3194 12.718 10.4949 11.6488 10.2814C10.0542 9.96287 8.7393 8.69257 8.9561 6.94358C9.04881 6.19537 9.41053 5.0875 10.1511 4.7266C10.8485 4.38672 11.1178 4.95013 11.4707 5.44409C12.419 6.77126 13.7277 7.28993 15.2683 6.67405C16.0547 6.35969 16.3391 6.00157 16.238 5.15138C16.1758 4.62831 15.8018 3.6421 16.4474 3.33214C16.9056 3.11211 17.0896 3.5394 17.1969 3.9066C17.3567 4.4533 17.4143 4.80279 17.6868 5.3113C18.4413 6.71924 18.0287 8.07049 17.133 9.33244C16.6347 10.0344 15.1316 10.5103 14.6869 10.2513ZM27.5714 7.59414C26.9818 7.42578 26.3843 7.49918 25.7408 7.55847C25.3821 7.59154 24.1209 7.88685 24.7342 8.46841C25.3993 9.09921 27.1415 8.9073 27.9235 8.68404C28.6176 8.48593 28.6482 8.12099 28.0712 7.80123C27.9131 7.71327 27.7453 7.64378 27.5714 7.59414ZM13.7697 14.6127C13.8182 14.3807 13.9103 14.1615 14.0845 13.9649C14.4673 13.5328 15.0194 13.273 15.5122 12.9914C16.2571 12.5658 16.8785 12.3973 17.7363 12.4008C18.2456 12.4028 18.8496 12.5511 19.354 12.4612C19.8349 12.3754 20.6555 11.6515 20.517 11.0645C20.3744 10.4603 19.4057 10.7319 19.022 10.6111C18.3968 10.4143 18.2561 9.72865 17.5279 9.97545C16.9844 10.1597 16.4819 10.616 15.983 10.9012C15.4031 11.2327 14.8106 11.5191 14.2051 11.8002C13.6829 12.0427 13.1702 12.3084 12.6429 12.5314C12.1036 12.7595 11.9629 13.0223 11.7333 13.5845C11.2722 14.7128 11.3087 15.806 11.3167 17.0046C11.3279 18.6556 11.6401 20.268 11.7151 21.9142C11.796 23.6879 11.9074 25.4566 12.0373 27.2278C12.2202 29.7209 12.253 32.2859 12.5852 34.7625C12.7401 35.9178 12.9026 37.0694 13.0601 38.2246C13.1761 39.0755 13.1844 40.1206 13.614 40.8874C13.9866 41.5527 14.5661 42.0788 15.2984 42.2758C15.6669 42.3749 17.106 42.6511 17.3124 42.1114C17.4068 41.8644 17.1164 41.6197 17.0057 41.4325C16.7506 41.0014 16.6071 40.5159 16.4719 40.0372C15.8682 37.9004 15.3696 35.7009 15.0554 33.5037C14.4476 29.2535 13.7655 25.0419 13.4229 20.7611C13.2938 19.1492 13.59 17.551 13.7048 15.9481C13.737 15.4984 13.6815 15.0343 13.7697 14.6127Z" fill="#E81D1D"/>
<path d="M43.9035 13.0096C44.192 12.2408 43.8836 11.3237 43.7505 10.5551C43.5523 9.41117 43.5642 8.05237 43.1782 6.95682C42.9567 6.32854 42.4759 6.06737 41.8544 5.95255C40.7218 5.7433 39.561 5.65508 38.4236 5.45958C36.2117 5.07982 34.014 4.62154 31.8347 4.0856C29.4321 3.49416 27.0955 2.6924 24.7071 2.06008C22.9779 1.60232 21.1469 1.56207 19.696 2.63418C19.3167 0.951317 18.3951 -0.391306 16.1888 0.104182C13.7631 0.648903 11.246 2.19053 9.7215 4.15119C8.79827 5.33856 7.83138 7.43578 8.35705 8.98558C6.62792 9.809 4.85962 10.6385 3.22761 11.6246C1.63693 12.5859 1.90826 14.1878 2.19935 15.8032C2.35119 16.6458 2.51237 17.5871 2.88225 18.3659C3.10524 18.8354 3.42033 19.1106 3.81474 19.2978C4.46134 23.9232 5.16859 28.535 5.924 33.1445L6.47267 36.4925C6.62936 37.4487 6.63574 38.6591 7.17588 39.4926C7.61081 40.1638 8.3416 40.398 9.07256 40.6153C10.2634 40.9692 11.446 41.3452 12.6295 41.7226C12.8513 41.7934 13.0358 41.7432 13.1714 41.6325C13.2697 41.7918 13.3928 41.9344 13.5362 42.0548C14.2235 42.6308 15.2881 42.8815 16.1206 43.1622C16.9103 43.4285 18.2692 44.1234 19.0514 43.5325C19.09 43.5033 19.1253 43.4722 19.1581 43.44C20.5916 43.9338 22.032 44.374 23.499 44.7734C25.0055 45.1836 26.626 45.8467 28.1852 45.9885C29.6449 46.1213 30.829 45.079 31.954 44.2915C33.2416 43.3902 34.5011 42.4493 35.7344 41.4752C38.2239 39.5087 40.7529 37.4343 42.9212 35.1109C43.9567 34.0014 43.7851 32.6909 43.7722 31.2601C43.7561 29.4732 43.7219 27.6864 43.6723 25.9002C43.5621 21.9528 43.3683 18.0083 43.0909 14.0692C43.4419 13.7617 43.7497 13.4194 43.9035 13.0096ZM32.787 5.75912C35.424 6.35747 38.0798 6.83149 40.7493 7.28789C38.2192 9.41018 35.6498 11.4823 33.0565 13.5272C31.6905 14.6043 30.3295 15.6941 28.93 16.7276C28.0469 17.3798 27.3641 17.5487 26.3058 17.2972C25.4198 17.0866 24.5399 16.8454 23.6586 16.6164C21.881 16.1547 20.103 15.6965 18.3207 15.2625C18.5781 15.0935 18.8379 14.9395 19.0512 14.7896L20.5228 13.7549C20.631 13.9831 20.7635 14.2035 20.9292 14.4129C21.6552 15.3303 22.7512 15.6023 23.8773 15.4135C26.5871 14.9593 29.2433 12.6613 30.9238 10.5914C31.7883 9.52662 33.112 7.34521 32.787 5.75912ZM17.1912 16.5995C17.2185 16.405 17.2973 16.23 17.4075 16.0692C20.0454 16.709 22.6697 17.399 25.2827 18.07C26.0501 18.2671 26.7272 18.4333 27.3887 18.416C27.4255 20.0882 27.3839 21.8038 27.5095 23.4786C27.1868 23.4206 26.8658 23.3164 26.5676 23.239C25.5599 22.9771 24.5543 22.707 23.551 22.4286C21.5538 21.8761 19.5727 21.2715 17.5676 20.7487L17.5558 20.631L17.3372 18.4647C17.2779 17.8768 17.1075 17.1949 17.1912 16.5995ZM16.915 14.9263C15.3844 14.5666 13.8498 14.2294 12.3087 13.9282C12.4519 13.7921 12.6361 13.6683 12.8648 13.5246C13.4585 13.1513 14.0582 12.7877 14.6412 12.3977C15.6524 11.7213 16.667 11.0519 17.6905 10.3947C18.3207 10.9057 19.3104 11.0093 20.0787 10.9434C20.0736 11.5421 20.088 12.1454 20.1961 12.723C19.3197 13.3041 18.4419 13.8833 17.5674 14.4671C17.3447 14.6159 17.122 14.7646 16.915 14.9263ZM30.2613 5.45338C30.7305 5.49498 31.2255 5.58527 31.3413 6.08013C31.4408 6.50536 31.2481 7.04505 31.1102 7.44898C30.7768 8.42594 30.174 9.29716 29.4883 10.0594C28.2562 11.4291 26.7134 12.7589 25.0479 13.5658C24.0951 14.0274 22.7908 14.4804 21.9182 13.6499C21.1485 12.9174 21.0687 11.7648 21.0732 10.7465C21.9429 10.4733 22.7193 9.94565 23.2921 9.2242L23.6406 10.9993C23.7496 11.5542 24.5746 11.314 24.4821 10.7674L24.1622 8.8766C24.8931 8.72557 25.6662 8.78747 26.392 8.92386C26.8855 9.09447 27.1188 8.27375 26.6086 8.13808C25.8307 7.93117 25.0886 7.92327 24.3218 7.98912C24.2257 7.98661 24.1292 7.98634 24.0326 7.98643C24.1433 7.72058 24.2272 7.4453 24.2655 7.17002C24.3307 7.15687 24.3939 7.1348 24.4532 7.10443C26.2178 6.18767 28.2054 5.27091 30.2613 5.45338ZM27.5535 4.38352C26.3226 4.69384 25.0806 5.19849 24.0481 5.91724C24.0193 5.86756 23.9906 5.81778 23.9559 5.76945C23.9102 5.70624 23.8612 5.64548 23.8092 5.58743C24.7604 5.12419 25.7136 4.64658 26.6175 4.09953C26.9296 4.19377 27.2409 4.29107 27.5535 4.38352ZM20.2009 3.87051C21.6123 2.64792 23.6047 3.17405 25.2028 3.66989C25.2476 3.68373 25.2925 3.69685 25.3372 3.71068C24.5977 4.13465 23.8761 4.59582 23.1616 5.05465C22.3865 4.57309 21.3589 4.34498 20.5584 4.45746C20.3344 4.489 20.1284 4.54901 19.9348 4.62799C19.9263 4.42559 19.9138 4.22337 19.8975 4.02145C20.01 3.99843 20.1147 3.9464 20.2009 3.87051ZM22.9256 6.62988C22.9397 6.65126 22.9553 6.66977 22.9715 6.68648C23.2059 7.74753 21.4228 9.17721 20.5814 9.46022C19.8616 9.70235 18.5512 9.89641 18.2839 8.90571C18.1274 8.32595 18.5466 7.36435 18.8639 6.90139C19.7762 5.57026 21.9388 5.13497 22.9256 6.62988ZM10.8521 4.83813C11.9919 3.46316 13.5884 2.49582 15.2379 1.85263C16.142 1.50008 17.4564 0.917805 18.1752 1.87185C18.7935 2.69249 19.1245 3.99171 19.2716 5.01503C19.1151 5.13686 18.9686 5.27114 18.8337 5.41654C18.7462 5.47819 18.6615 5.54363 18.5797 5.61267C18.3698 5.16004 18.1261 4.72412 17.8243 4.32378C17.4932 3.88453 16.844 4.2484 17.0816 4.7579C17.2933 5.21206 17.4773 5.66999 17.6312 6.14185C17.1259 6.18857 16.6186 6.28021 16.123 6.35406C15.4887 6.44858 15.7455 7.45824 16.3927 7.3321C16.7457 7.26328 17.1048 7.20955 17.4622 7.14909C17.2155 7.70073 17.0418 8.33592 17.0496 8.92619C15.0776 9.51763 13.1418 9.96595 11.0708 9.53237C8.49963 8.99429 9.69257 6.2369 10.8521 4.83813ZM5.09878 12.0122C6.31701 11.2436 7.53911 10.4812 8.76503 9.7249C8.94337 9.94268 9.16906 10.139 9.44991 10.3069C10.5274 10.9511 12.1007 11.0108 13.3205 11.0017C13.9565 10.9972 14.5911 10.9421 15.2184 10.8369C14.8995 11.0144 14.5811 11.1928 14.2613 11.369C13.3027 11.8974 12.0919 12.4015 11.3022 13.1715C11.1422 13.3275 11.0271 13.4951 10.9444 13.6716C8.61769 13.2518 6.2743 12.9246 3.90611 12.734C4.28489 12.4392 4.77714 12.2153 5.09878 12.0122ZM3.66533 15.775C3.52886 15.1311 3.24136 14.2434 3.35869 13.559C5.83838 13.7803 8.30189 14.1494 10.7517 14.6133C10.7457 14.857 10.7606 15.1081 10.7758 15.3623C10.8593 16.7555 10.9577 18.1481 11.0535 19.5405C9.6127 19.2914 8.17934 19.0032 6.75748 18.6613C6.18877 18.5245 4.87346 18.3959 4.41319 17.9981C3.91887 17.571 3.7947 16.3853 3.66533 15.775ZM9.97882 39.54C9.57416 39.4051 8.96879 39.3017 8.62389 39.034C8.13855 38.6575 8.12085 38.0522 8.02005 37.5067C7.6339 35.4169 7.26096 33.3247 6.88146 31.2337C6.17331 27.3327 5.41108 23.4459 4.61309 19.5631C6.71498 20.0832 8.84041 20.5164 10.9788 20.8552C11.0353 20.8637 11.0927 20.8656 11.1497 20.8608C11.5 25.7614 11.9318 30.6559 12.3681 35.5495C12.4855 36.867 12.608 38.1841 12.7297 39.5012C12.7579 39.8066 12.7735 40.1248 12.8101 40.4369C11.8647 40.1425 10.9179 39.8531 9.97882 39.54ZM18.2017 42.5044C18.0359 42.5844 17.303 42.2325 17.1501 42.1824C16.3034 41.905 14.8471 41.6284 14.3016 40.9053C13.9607 40.4533 14.0013 39.6549 13.9418 39.1062C13.8705 38.4477 13.8 37.7891 13.7304 37.1304C13.2284 32.3897 12.7966 27.644 12.4399 22.89C12.243 20.265 11.9423 17.5995 11.9315 14.9659C11.9313 14.9235 11.9325 14.8835 11.934 14.8441C13.353 15.1299 14.7674 15.4434 16.1778 15.7755C16.1193 15.8928 16.0676 16.0157 16.0332 16.1529C15.8022 17.0728 16.0533 18.1313 16.1461 19.0555L16.5218 22.7973C16.9959 27.5198 17.4765 32.2416 17.9636 36.9628C18.0771 38.063 18.1848 39.1642 18.2611 40.2678C18.3013 40.849 18.3509 41.4382 18.3536 42.0212C18.3547 42.2889 18.426 42.3963 18.2017 42.5044ZM28.3092 44.6119C28.1199 44.6168 27.9305 44.6004 27.7448 44.5629C26.7467 44.3655 25.7589 44.0895 24.7704 43.8491C23.0173 43.4228 21.2738 43.024 19.5023 42.7072C19.5583 42.3534 19.5266 41.9684 19.5151 41.6312C19.4687 40.2665 19.3612 38.905 19.2373 37.5454C18.9986 34.9253 18.7343 32.3075 18.4701 29.6899L17.6788 21.8479C19.6077 22.6082 21.5828 23.2369 23.5663 23.8429C24.8017 24.2203 26.3214 24.9217 27.7319 24.9746C28.0829 31.5234 28.3886 38.051 28.3092 44.6119ZM42.2736 33.4997C42.1227 33.9962 41.6297 34.371 41.2775 34.7225C40.5922 35.4066 39.8942 36.0779 39.1839 36.736C36.385 39.3297 33.3801 41.6958 30.2106 43.8208C29.9531 43.9935 29.7103 44.1509 29.467 44.2794C29.6841 37.8529 29.4497 31.3542 28.4655 24.9972C28.4954 24.9767 28.5238 24.9535 28.5485 24.9251C28.771 24.8855 28.9886 24.824 29.1992 24.7344C33.0869 23.0777 36.3335 19.7169 39.5132 17.033L41.7733 15.1253C41.9843 18.7801 42.1408 22.4386 42.2244 26.0984C42.2728 28.2158 42.2927 30.3334 42.3053 32.4512C42.3071 32.7652 42.3682 33.1885 42.2736 33.4997ZM42.5799 12.2846C42.4565 13.0089 41.161 13.7699 40.6404 14.2138L38.358 16.1598C35.5795 18.5286 32.8408 20.9869 29.658 22.8101C29.3432 22.9904 28.9983 23.2177 28.6448 23.3667C28.5674 21.6794 28.3224 19.9717 28.1677 18.2997C28.499 18.2054 28.8337 18.051 29.1813 17.8127C30.671 16.7915 32.0835 15.6253 33.5088 14.5164C36.3153 12.3333 39.0523 10.0576 41.7555 7.74789C41.7669 7.81384 41.7789 7.89317 41.7975 7.99128C41.8841 8.44948 41.9804 8.90607 42.0718 9.36337C42.1633 9.82076 42.2583 10.2777 42.3415 10.7367C42.4221 11.1814 42.6573 11.83 42.5799 12.2846Z" fill="#010124"/>
</svg>
