<svg width="20" height="20" viewBox="0 0 20 20" fill="none" xmlns="http://www.w3.org/2000/svg">
<path d="M17.1834 7.04232C16.3084 3.19232 12.9501 1.45898 10.0001 1.45898C10.0001 1.45898 10.0001 1.45898 9.99175 1.45898C7.05008 1.45898 3.68341 3.18398 2.80841 7.03398C1.83341 11.334 4.46675 14.9756 6.85008 17.2673C7.73341 18.1173 8.86675 18.5423 10.0001 18.5423C11.1334 18.5423 12.2667 18.1173 13.1417 17.2673C15.5251 14.9756 18.1584 11.3423 17.1834 7.04232Z" fill="#3C5FF9"/>
<path d="M10 11.2168C11.4497 11.2168 12.625 10.0415 12.625 8.5918C12.625 7.14205 11.4497 5.9668 10 5.9668C8.55025 5.9668 7.375 7.14205 7.375 8.5918C7.375 10.0415 8.55025 11.2168 10 11.2168Z" fill="#FBFBFD"/>
</svg>
