<svg width="20" height="20" viewBox="0 0 20 20" fill="none" xmlns="http://www.w3.org/2000/svg">
<path d="M4.16667 9.16663H10.8333V10.8333H4.16667V13.3333L0 9.99996L4.16667 6.66663V9.16663ZM3.33273 15H5.59029C6.76552 16.0372 8.30926 16.6666 10 16.6666C13.6819 16.6666 16.6667 13.6819 16.6667 9.99996C16.6667 6.31806 13.6819 3.33329 10 3.33329C8.30926 3.33329 6.76552 3.96268 5.59029 4.99996H3.33273C4.85307 2.97588 7.27363 1.66663 10 1.66663C14.6023 1.66663 18.3333 5.39758 18.3333 9.99996C18.3333 14.6023 14.6023 18.3333 10 18.3333C7.27363 18.3333 4.85307 17.024 3.33273 15Z" fill="white"/>
</svg>
