<svg width="21" height="25" viewBox="0 0 21 25" fill="none" xmlns="http://www.w3.org/2000/svg">
<path d="M10.5 18.8637C10.8719 18.8637 11.1838 18.7472 11.4358 18.5142C11.6869 18.282 11.8125 17.9939 11.8125 17.65V12.7954C11.8125 12.4516 11.6869 12.1631 11.4358 11.9301C11.1838 11.6979 10.8719 11.5818 10.5 11.5818C10.1281 11.5818 9.81663 11.6979 9.5655 11.9301C9.3135 12.1631 9.1875 12.4516 9.1875 12.7954V17.65C9.1875 17.9939 9.3135 18.282 9.5655 18.5142C9.81663 18.7472 10.1281 18.8637 10.5 18.8637ZM10.5 9.15447C10.8719 9.15447 11.1838 9.03796 11.4358 8.80494C11.6869 8.57273 11.8125 8.28468 11.8125 7.94082C11.8125 7.59695 11.6869 7.3085 11.4358 7.07548C11.1838 6.84327 10.8719 6.72716 10.5 6.72716C10.1281 6.72716 9.81663 6.84327 9.5655 7.07548C9.3135 7.3085 9.1875 7.59695 9.1875 7.94082C9.1875 8.28468 9.3135 8.57273 9.5655 8.80494C9.81663 9.03796 10.1281 9.15447 10.5 9.15447ZM10.5 24.8409H10.1719C10.0625 24.8409 9.96406 24.8207 9.87656 24.7803C7.01094 23.9509 4.64844 22.3072 2.78906 19.8492C0.929688 17.3919 0 14.6766 0 11.7031V5.96863C0 5.46294 0.158812 5.00782 0.476437 4.60327C0.793187 4.19872 1.20313 3.90542 1.70625 3.72337L9.58125 0.992649C9.8875 0.891511 10.1938 0.840942 10.5 0.840942C10.8062 0.840942 11.1125 0.891511 11.4187 0.992649L19.2938 3.72337C19.7969 3.90542 20.2073 4.19872 20.5249 4.60327C20.8416 5.00782 21 5.46294 21 5.96863V11.7031C21 14.6766 20.0703 17.3919 18.2109 19.8492C16.3516 22.3072 13.9891 23.9509 11.1234 24.7803C11.0141 24.8207 10.8062 24.8409 10.5 24.8409ZM10.5 22.3833C12.775 21.7158 14.6562 20.3808 16.1437 18.3782C17.6312 16.3757 18.375 14.1507 18.375 11.7031V5.96863L10.5 3.23791L2.625 5.96863V11.7031C2.625 14.1507 3.36875 16.3757 4.85625 18.3782C6.34375 20.3808 8.225 21.7158 10.5 22.3833Z" fill="white"/>
</svg>
