<svg width="23" height="24" viewBox="0 0 23 24" fill="none" xmlns="http://www.w3.org/2000/svg">
<path d="M12.741 7.79042L14.3958 9.44516C17.5944 12.6438 17.5944 17.8297 14.3958 21.0283L13.9821 21.442C10.7835 24.6406 5.59755 24.6406 2.39895 21.442C-0.79965 18.2434 -0.79965 13.0574 2.39895 9.85885L4.0537 11.5136C1.76898 13.7983 1.76898 17.5026 4.0537 19.7872C6.33841 22.0719 10.0426 22.0719 12.3274 19.7872L12.741 19.3736C15.0257 17.0888 15.0257 13.3846 12.741 11.0999L11.0863 9.44516L12.741 7.79042ZM20.601 14.8231L18.9463 13.1684C21.231 10.8836 21.231 7.17935 18.9463 4.89464C16.6616 2.60992 12.9574 2.60992 10.6727 4.89464L10.259 5.30832C7.97425 7.59303 7.97425 11.2973 10.259 13.582L11.9137 15.2367L10.259 16.8914L8.60421 15.2367C5.40561 12.0382 5.40561 6.85219 8.60421 3.65358L9.01791 3.23989C12.2165 0.0412921 17.4025 0.0412921 20.601 3.23989C23.7997 6.43849 23.7997 11.6244 20.601 14.8231Z" fill="white"/>
</svg>
