<svg width="327" height="157" viewBox="0 0 327 157" fill="none" xmlns="http://www.w3.org/2000/svg">
<path d="M8.92765 90.3773C13.7484 69.1237 39.1083 63.1403 45.4147 56.9454C55.2422 47.2909 43.6618 30.7236 50.4171 18.7166C57.1809 6.69417 76.1094 -2.11467 89.5994 0.76821C110.969 5.33369 118.532 19.0816 142.516 21.68C154.163 22.942 160.095 17.59 175.13 14.9547C186.843 12.902 196.491 20.6168 204.241 19.4859C219.249 15.6795 220.564 1.89909 239.866 0.943838C256.274 -0.503169 262.208 7.10711 270.131 19.8389C283.605 41.49 307.514 18.7166 319.924 47.141C327.78 65.1348 307.404 85.1941 311.806 93.8976C314.288 98.8024 321.307 107.183 323.695 112.135C329.982 125.17 322.351 137.142 314.279 150.147L30.0151 148.959C29.7212 148.958 29.2757 148.831 29.0255 148.677C29.0264 148.677 -0.205035 130.642 8.92765 90.3773Z" fill="#FFD698"/>
<path d="M223.646 140.025C227.903 141.557 232.487 140.555 237.397 137.02C231.455 135.864 226.871 136.865 223.646 140.025Z" fill="#3D0505"/>
<path d="M230.167 134.408C234.075 135.727 238.234 135.004 242.643 131.693C237.206 130.744 233.047 131.469 230.167 134.408Z" fill="#3D0505"/>
<path d="M236.342 129.052C240.252 129.314 243.829 127.389 247.074 123.279C241.848 123.719 238.271 125.643 236.342 129.052Z" fill="#3D0505"/>
<path d="M249.748 115.641C245.534 117.018 242.959 119.299 242.025 122.481C245.304 121.931 247.879 119.651 249.748 115.641Z" fill="#3D0505"/>
<path d="M249.551 109.624C246.284 111.384 244.501 113.642 244.204 116.396C246.817 115.463 248.6 113.205 249.551 109.624Z" fill="#3D0505"/>
<path d="M243.117 113.703C245.224 111.899 246.081 109.152 245.688 105.463C243.267 108.279 242.41 111.026 243.117 113.703Z" fill="#3D0505"/>
<path d="M225.864 126.122C222.567 131.26 221.807 135.933 223.584 140.139C226.594 136.719 227.353 132.047 225.864 126.122Z" fill="#3D0505"/>
<path d="M233.682 130.272C235.047 126.798 234.327 122.991 231.522 118.851C230.428 123.722 231.149 127.53 233.682 130.272Z" fill="#3D0505"/>
<path d="M235.773 114.625C234.817 118.864 235.443 122.176 237.652 124.562C238.843 121.541 238.216 118.228 235.773 114.625Z" fill="#3D0505"/>
<path d="M240.461 118.847C241.644 115.825 241.018 112.513 238.582 108.91C237.627 113.152 238.253 116.464 240.461 118.847Z" fill="#3D0505"/>
<path d="M215.982 145.451C225.187 139.757 224.291 139.762 229.283 135.41C230.633 134.236 231.888 133.046 233.046 131.841C235.388 129.342 237.453 126.596 239.203 123.651C241.325 120.242 242.549 117.492 242.875 115.402L243.015 115.166C243.079 115.115 243.098 115.026 243.058 114.954C243.067 114.874 243.041 114.793 242.989 114.733C242.917 114.689 242.836 114.662 242.752 114.656C242.671 114.648 242.591 114.673 242.531 114.726L242.4 114.84C242.358 114.913 242.331 114.994 242.321 115.079L242.284 115.09L242.272 115.274C241.909 117.31 240.706 119.982 238.663 123.29C236.911 126.192 234.848 128.894 232.508 131.347C231.344 132.591 230.118 133.774 228.833 134.892L228.497 135.182C230.727 131.732 230.782 127.463 228.665 122.379C226.411 127.398 226.355 131.666 228.497 135.182C223.568 139.428 224.61 139.297 215.634 144.846L215.982 145.451Z" fill="#3D0505"/>
<path d="M119.262 143.929C123.156 145.33 127.349 144.414 131.839 141.181C126.405 140.123 122.212 141.039 119.262 143.929Z" fill="#3D0505"/>
<path d="M125.209 138.579C128.912 139.304 132.561 137.9 136.16 134.368C131.115 134.162 127.466 135.566 125.209 138.579Z" fill="#3D0505"/>
<path d="M130.983 132.929C134.564 133.093 137.798 131.264 140.686 127.442C135.916 127.946 132.681 129.775 130.983 132.929Z" fill="#3D0505"/>
<path d="M142.793 120.557C138.939 121.817 136.585 123.903 135.73 126.813C138.728 126.31 141.083 124.225 142.793 120.557Z" fill="#3D0505"/>
<path d="M142.614 115.054C139.626 116.665 137.995 118.73 137.724 121.248C140.114 120.396 141.743 118.331 142.614 115.054Z" fill="#3D0505"/>
<path d="M136.729 118.785C138.656 117.134 139.439 114.622 139.08 111.249C136.866 113.825 136.083 116.337 136.729 118.785Z" fill="#3D0505"/>
<path d="M120.202 130.275C117.186 134.974 116.491 139.248 118.117 143.096C120.87 139.968 121.565 135.694 120.202 130.275Z" fill="#3D0505"/>
<path d="M128.283 133.264C129.531 130.086 128.873 126.604 126.307 122.818C125.306 127.273 125.965 130.755 128.283 133.264Z" fill="#3D0505"/>
<path d="M130.012 119.63C129.138 123.507 129.711 126.537 131.731 128.719C132.82 125.955 132.247 122.925 130.012 119.63Z" fill="#3D0505"/>
<path d="M134.301 123.49C135.383 120.726 134.81 117.696 132.582 114.401C131.708 118.28 132.282 121.31 134.301 123.49Z" fill="#3D0505"/>
<path d="M111.91 147.824C120.329 142.616 119.51 142.621 124.076 138.64C125.31 137.566 126.458 136.478 127.517 135.375C129.66 133.09 131.548 130.578 133.149 127.884C135.09 124.766 136.21 122.25 136.508 120.338L136.635 120.123C136.695 120.077 136.711 119.995 136.676 119.929C136.683 119.855 136.66 119.782 136.612 119.727C136.546 119.686 136.472 119.662 136.395 119.656C136.321 119.649 136.248 119.672 136.193 119.72L136.073 119.824C136.035 119.891 136.01 119.966 136.001 120.043L135.967 120.053L135.956 120.222C135.624 122.083 134.524 124.528 132.655 127.554C131.053 130.209 129.165 132.68 127.026 134.923C125.962 136.061 124.84 137.144 123.665 138.166L123.357 138.431C125.396 135.274 125.447 131.371 123.51 126.721C121.448 131.312 121.397 135.215 123.357 138.431C118.848 142.314 119.801 142.194 111.591 147.269L111.91 147.824Z" fill="#3D0505"/>
<path d="M18.3211 101.307C18.3211 101.307 16.3206 104.823 19.3483 111.162C22.435 117.621 21.7942 122.094 21.7942 122.094L24.6565 124.587C24.6565 124.587 25.2914 117.781 22.5636 112.709C19.1427 106.365 18.3211 101.307 18.3211 101.307Z" fill="#3D0505"/>
<path d="M9.7368 103.184C9.7368 103.184 9.17564 106.112 12.6351 110.24C16.1691 114.442 16.7268 117.841 16.7268 117.841L19.1128 119.793C19.1128 119.793 18.1327 114.067 15.1513 110.817C11.4271 106.75 9.7368 103.184 9.7368 103.184Z" fill="#3D0505"/>
<path d="M24.5205 108.103C24.5205 108.103 27.1292 109.957 28.7236 117.369C30.0232 123.409 28.6139 126.549 29.433 130.251L25.7559 126.198C25.5571 123.575 27.2586 121.866 26.3453 116.332C25.4912 111.15 24.5205 108.103 24.5205 108.103Z" fill="#3D0505"/>
<path d="M47.8604 130.687C47.8604 130.687 48.993 133.69 46.1838 140.724C43.8946 146.464 40.8798 147.2 40.287 148.523L39.0225 145.601C40.6494 143.354 42.4596 143.645 44.7882 138.541C46.9669 133.752 47.8604 130.687 47.8604 130.687Z" fill="#3D0505"/>
<path d="M30.6016 112.782C30.6016 112.782 32.3561 118.022 32.7357 121.354C33.2848 126.092 31.3906 128.607 31.6031 133.486L35.347 138.756C35.347 138.756 36.5378 131.589 35.6271 125.77C34.0996 116.005 30.6016 112.782 30.6016 112.782Z" fill="#3D0505"/>
<path d="M39.6253 115.313C39.0761 118.364 38.9759 121.479 39.328 124.559C40.4623 133.884 35.4805 140.897 35.4805 140.897L37.4107 142.776C37.4107 142.776 43.4746 137.913 42.3017 130.108C41.0535 121.861 39.6253 115.313 39.6253 115.313Z" fill="#3D0505"/>
<path d="M25.949 126.86C25.949 126.86 23.7558 126.065 14.6111 127.165C8.75114 127.871 10.4792 125.665 4.94043 127.3C9.14266 127.7 10.5545 130.781 16.0436 130.44C20.4334 130.164 24.8379 130.233 29.2166 130.645L25.949 126.86Z" fill="#3D0505"/>
<path d="M8.1875 132.678C8.1875 132.678 11.7446 137.219 19.8544 136.696C24.8456 136.386 29.8541 136.9 34.6791 138.216L32.2623 134.115C32.2623 134.115 28.9211 131.655 20.5415 133.008C14.7834 133.937 8.1875 132.678 8.1875 132.678Z" fill="#3D0505"/>
<path d="M12.9678 140.415C12.9678 140.415 16.5249 144.956 24.6338 144.433C29.6251 144.123 34.6335 144.636 39.4585 145.952L37.0417 141.852C37.0417 141.852 33.7005 139.391 25.3209 140.745C19.5637 141.673 12.9678 140.415 12.9678 140.415Z" fill="#3D0505"/>
<path d="M2.56445 117.8C2.56445 117.8 5.13463 120.162 10.2467 119.638C15.4307 119.105 19.232 120.246 19.232 120.246L17.785 118.711C17.785 118.711 15.6732 117.155 10.3761 118.009C6.73413 118.595 2.56445 117.8 2.56445 117.8Z" fill="#3D0505"/>
<path d="M21.4135 122.759C21.4135 122.759 17.4263 122.327 11.5586 122.802C7.8558 123.091 2.9502 120.829 2.9502 120.829C2.9502 120.829 6.70779 126.157 12.2465 125.379C18.5974 124.484 24.8592 125.384 24.8592 125.384L21.4135 122.759Z" fill="#3D0505"/>
<path d="M18.1677 119.326C18.1677 119.326 14.8907 114.104 9.33316 113.034C6.04505 112.373 2.89059 111.166 0 109.464C0 109.464 3.04052 114.851 8.24683 115.284C13.0522 115.696 16.3669 118.892 16.3669 118.892L18.1677 119.326Z" fill="#3D0505"/>
<path d="M39.8367 148.615L40.6746 148.272C38.5584 143.103 28.976 126.294 16.8311 117.861L16.3145 118.605C28.2906 126.922 37.7454 143.513 39.8367 148.615Z" fill="#3D0505"/>
<path d="M187.653 107.127C187.653 107.127 186.114 109.83 188.443 114.704C190.817 119.671 190.323 123.11 190.323 123.11L192.525 125.028C192.525 125.028 193.013 119.794 190.916 115.893C188.284 111.015 187.653 107.127 187.653 107.127Z" fill="#3D0505"/>
<path d="M181.051 108.57C181.051 108.57 180.62 110.822 183.28 113.995C185.997 117.227 186.426 119.841 186.426 119.841L188.262 121.343C188.262 121.343 187.508 116.939 185.215 114.44C182.351 111.312 181.051 108.57 181.051 108.57Z" fill="#3D0505"/>
<path d="M192.421 112.353C192.421 112.353 194.426 113.779 195.652 119.479C196.652 124.124 195.568 126.539 196.198 129.385L193.37 126.268C193.218 124.251 194.526 122.937 193.823 118.682C193.167 114.696 192.421 112.353 192.421 112.353Z" fill="#3D0505"/>
<path d="M210.369 129.72C210.369 129.72 211.24 132.029 209.079 137.439C207.32 141.853 205 142.419 204.545 143.436L203.572 141.189C204.823 139.462 206.216 139.684 208.006 135.76C209.682 132.077 210.369 129.72 210.369 129.72Z" fill="#3D0505"/>
<path d="M197.098 115.95C197.098 115.95 198.447 119.979 198.739 122.543C199.162 126.185 197.705 128.12 197.869 131.872L199.855 134.33C199.855 134.33 201.664 130.413 200.963 125.938C199.788 118.43 197.098 115.95 197.098 115.95Z" fill="#3D0505"/>
<path d="M204.413 118.033C203.991 120.378 203.914 122.774 204.185 125.143C205.057 132.313 201.226 137.706 201.226 137.706L202.709 139.151C202.709 139.151 207.373 135.411 206.47 129.41C205.512 123.068 204.413 118.033 204.413 118.033Z" fill="#3D0505"/>
<path d="M193.52 126.776C193.52 126.776 191.834 126.165 184.802 127.01C180.295 127.554 181.624 125.857 177.365 127.114C180.597 127.422 181.682 129.79 185.903 129.528C189.279 129.317 192.666 129.37 196.033 129.687L193.52 126.776Z" fill="#3D0505"/>
<path d="M179.862 131.25C179.862 131.25 182.598 134.742 188.834 134.34C192.672 134.102 196.524 134.497 200.233 135.509L198.374 132.356C198.374 132.356 195.805 130.464 189.361 131.505C184.934 132.218 179.862 131.25 179.862 131.25Z" fill="#3D0505"/>
<path d="M183.535 137.2C183.535 137.2 186.271 140.692 192.507 140.29C196.345 140.052 200.197 140.447 203.907 141.459L202.048 138.305C202.048 138.305 199.479 136.413 193.035 137.454C188.607 138.168 183.535 137.2 183.535 137.2Z" fill="#3D0505"/>
<path d="M175.536 119.81C175.536 119.81 177.513 121.625 181.444 121.222C185.43 120.812 188.354 121.69 188.354 121.69L187.241 120.51C187.241 120.51 185.617 119.314 181.543 119.97C178.742 120.421 175.536 119.81 175.536 119.81Z" fill="#3D0505"/>
<path d="M190.032 123.624C190.032 123.624 186.965 123.291 182.453 123.657C179.605 123.879 175.833 122.14 175.833 122.14C175.833 122.14 178.723 126.237 182.982 125.638C187.867 124.95 192.681 125.642 192.681 125.642L190.032 123.624Z" fill="#3D0505"/>
<path d="M187.536 120.983C187.536 120.983 185.016 116.968 180.742 116.145C178.213 115.636 175.788 114.708 173.564 113.4C173.564 113.4 175.902 117.543 179.906 117.876C183.601 118.193 186.15 120.65 186.15 120.65L187.536 120.983Z" fill="#3D0505"/>
<path d="M204.197 143.505L204.842 143.242C203.215 139.267 195.845 126.341 186.506 119.856L186.108 120.428C195.318 126.823 202.589 139.582 204.197 143.505Z" fill="#3D0505"/>
<path d="M269.637 117.097C269.637 117.097 270.422 120.076 266.953 124.149C263.417 128.298 263.014 131.715 263.014 131.715L260.419 132.99C260.419 132.99 261.284 127.857 264.284 124.658C268.043 120.658 269.637 117.097 269.637 117.097Z" fill="#3D0505"/>
<path d="M275.587 120.157C275.587 120.157 275.427 122.422 272.074 124.783C268.65 127.183 267.575 129.576 267.575 129.576L265.437 130.546C265.437 130.546 267.278 126.524 270.109 124.715C273.646 122.452 275.587 120.157 275.587 120.157Z" fill="#3D0505"/>
<path d="M263.745 120.884C263.745 120.884 261.463 121.738 258.839 126.881C256.7 131.072 257.123 133.659 255.796 136.222L259.296 133.959C259.955 132.068 259.037 130.477 260.792 126.582C262.434 122.937 263.745 120.884 263.745 120.884Z" fill="#3D0505"/>
<path d="M242.148 132.937C242.148 132.937 240.726 134.925 241.417 140.653C241.978 145.325 244.053 146.456 244.23 147.547L245.733 145.643C244.976 143.672 243.586 143.53 242.872 139.319C242.206 135.367 242.148 132.937 242.148 132.937Z" fill="#3D0505"/>
<path d="M258.353 123.138C258.353 123.138 256.037 126.65 255.105 129.03C253.773 132.408 254.676 134.631 253.563 138.18L251.037 140.027C251.037 140.027 250.303 135.817 252.112 131.713C255.148 124.826 258.353 123.138 258.353 123.138Z" fill="#3D0505"/>
<path d="M251.216 123.235C251.024 125.587 250.487 127.9 249.625 130.097C246.965 136.738 249.26 142.874 249.26 142.874L247.472 143.878C247.472 143.878 243.961 139.113 246.351 133.599C248.884 127.774 251.216 123.235 251.216 123.235Z" fill="#3D0505"/>
<path d="M259.021 134.41C259.021 134.41 260.791 134.254 267.305 136.853C271.479 138.52 270.64 136.558 274.396 138.845C271.224 138.317 269.583 140.307 265.61 138.983C262.433 137.921 259.179 137.109 255.875 136.556L259.021 134.41Z" fill="#3D0505"/>
<path d="M270.955 142.168C270.955 142.168 267.449 144.814 261.583 142.842C257.97 141.637 254.183 141.035 250.375 141.059L252.956 138.515C252.956 138.515 255.897 137.357 261.799 139.994C265.854 141.803 270.955 142.168 270.955 142.168Z" fill="#3D0505"/>
<path d="M265.923 146.926C265.923 146.926 262.416 149.573 256.55 147.601C252.938 146.396 249.151 145.794 245.343 145.818L247.924 143.273C247.924 143.273 250.864 142.116 256.766 144.753C260.822 146.562 265.923 146.926 265.923 146.926Z" fill="#3D0505"/>
<path d="M278.005 132.319C278.005 132.319 275.652 133.553 271.992 132.167C268.281 130.761 265.26 130.856 265.26 130.856L266.625 130.01C266.625 130.01 268.484 129.278 272.216 130.944C274.781 132.088 278.005 132.319 278.005 132.319Z" fill="#3D0505"/>
<path d="M263.163 132.279C263.163 132.279 266.182 132.742 270.408 134.24C273.077 135.177 277.13 134.472 277.13 134.472C277.13 134.472 273.322 137.658 269.398 136.001C264.899 134.1 260.114 133.536 260.114 133.536L263.163 132.279Z" fill="#3D0505"/>
<path d="M266.224 130.387C266.224 130.387 269.657 127.186 273.956 127.486C276.506 127.643 279.063 127.373 281.524 126.686C281.524 126.686 278.232 130.056 274.315 129.355C270.698 128.718 267.634 130.421 267.634 130.421L266.224 130.387Z" fill="#3D0505"/>
<path d="M244.543 147.702L243.994 147.285C246.563 143.896 256.906 133.4 267.494 129.571L267.729 130.219C257.287 133.997 247.081 144.356 244.543 147.702Z" fill="#3D0505"/>
<path d="M134.788 40.9981C134.314 40.1602 133.734 39.3052 133.063 38.4562C132.809 38.134 132.864 37.6663 133.186 37.4118C133.508 37.1574 133.976 37.2122 134.23 37.5343C134.948 38.4433 135.571 39.3626 136.082 40.2664C136.285 40.6237 136.159 41.0778 135.801 41.2799C135.718 41.3271 135.629 41.3562 135.539 41.369C135.245 41.4102 134.943 41.2722 134.788 40.9981ZM130.995 36.155C130.253 35.4259 129.468 34.744 128.659 34.128C128.333 33.8787 128.269 33.4126 128.518 33.0854C128.768 32.759 129.234 32.6956 129.561 32.9449C130.419 33.5985 131.252 34.3216 132.038 35.0935C132.331 35.3814 132.335 35.8526 132.047 36.1447C131.928 36.2664 131.777 36.3375 131.622 36.3598C131.4 36.3923 131.167 36.3238 130.995 36.155ZM93.3628 38.5076C92.9533 38.5333 92.5994 38.2223 92.5737 37.8128C92.548 37.4033 92.859 37.0494 93.2685 37.0237C94.2375 36.9621 95.2741 36.8318 96.3433 36.6365C96.7477 36.5628 97.1349 36.8301 97.2086 37.2345C97.2823 37.6389 97.015 38.0261 96.6106 38.0998C96.1942 38.176 95.7787 38.2437 95.3744 38.3003C94.6864 38.3962 94.0096 38.4665 93.3628 38.5076ZM98.8647 36.8498C98.7559 36.454 98.9897 36.0445 99.3855 35.9357C100.355 35.6701 101.363 35.3557 102.381 35.0002C102.769 34.8648 103.193 35.0695 103.328 35.4568C103.464 35.8449 103.259 36.269 102.871 36.4043C101.821 36.7701 100.781 37.0957 99.7788 37.3698C99.7479 37.3784 99.7162 37.3844 99.6854 37.3896C99.3204 37.441 98.9649 37.2148 98.8647 36.8498ZM90.0541 38.4553C88.8667 38.3302 87.7624 38.0801 86.7728 37.7117C86.3882 37.5686 86.192 37.1402 86.3351 36.7556C86.4781 36.3709 86.9065 36.1747 87.2912 36.3178C88.1642 36.6425 89.146 36.8644 90.21 36.9766C90.6187 37.0195 90.9151 37.3861 90.8714 37.7939C90.8346 38.14 90.5664 38.4056 90.2366 38.4528C90.1775 38.4613 90.1166 38.4622 90.0541 38.4553ZM126.087 32.4308C125.167 31.9151 124.231 31.4859 123.306 31.156C122.919 31.0181 122.718 30.5923 122.856 30.2059C122.993 29.8187 123.418 29.6174 123.806 29.7553C124.81 30.1134 125.822 30.5769 126.814 31.1338C127.173 31.3342 127.3 31.7883 127.099 32.1464C126.981 32.3572 126.776 32.4874 126.554 32.5191C126.398 32.5405 126.234 32.5139 126.087 32.4308ZM104.917 34.8485C104.759 34.469 104.939 34.0338 105.318 33.877C106.272 33.4812 107.24 33.0494 108.194 32.5945C108.565 32.418 109.009 32.5748 109.186 32.9457C109.362 33.3167 109.205 33.7605 108.834 33.937C107.857 34.403 106.866 34.8451 105.888 35.2503C105.828 35.2752 105.767 35.2914 105.706 35.3C105.379 35.3471 105.049 35.1681 104.917 34.8485ZM110.702 32.1755C110.507 31.814 110.641 31.3634 111.003 31.168C111.35 30.9804 111.69 30.7928 112.022 30.6043C112.645 30.2522 113.289 29.948 113.937 29.7005C114.321 29.554 114.751 29.7459 114.897 30.1297C115.044 30.5135 114.852 30.9436 114.468 31.0901C113.889 31.3111 113.312 31.5835 112.754 31.8997C112.413 32.0924 112.065 32.2852 111.71 32.4771C111.63 32.5199 111.545 32.5473 111.46 32.5593C111.161 32.6013 110.854 32.4574 110.702 32.1755ZM83.806 36.0017C83.0332 35.3497 82.365 34.5666 81.8201 33.6731C81.6059 33.3227 81.7165 32.8652 82.0677 32.651C82.4181 32.4368 82.8756 32.5473 83.0898 32.8986C83.5516 33.6551 84.1153 34.3173 84.7655 34.8656C85.0791 35.1304 85.1194 35.5999 84.8546 35.9134C84.7321 36.0591 84.5651 36.1456 84.3903 36.1704C84.1881 36.1987 83.9748 36.1439 83.806 36.0017ZM120.368 30.4304C119.355 30.2933 118.347 30.2779 117.372 30.385C116.964 30.4295 116.597 30.1357 116.552 29.727C116.507 29.3184 116.802 28.9517 117.21 28.9063C118.305 28.7855 119.435 28.8026 120.567 28.956C120.974 29.0108 121.259 29.386 121.205 29.793C121.159 30.1305 120.894 30.3841 120.572 30.4295C120.506 30.4398 120.437 30.4398 120.368 30.4304Z" fill="white"/>
<path d="M136.385 38.4532L134.965 41.7062L152.217 50.3L136.385 38.4532Z" fill="#BDCDFF"/>
<path d="M133.834 45.5317L135.261 48.8421L151.447 49.901L133.834 45.5317Z" fill="#BDCDFF"/>
<path d="M152.217 50.3006L124.372 44.8887L133.127 40.3892L152.217 50.3006Z" fill="white"/>
<path d="M136.386 38.453L152.217 50.2998L141.831 35.2172L136.386 38.453Z" fill="white"/>
<path d="M172.309 157C255.918 157 323.697 153.84 323.697 149.942C323.697 146.044 255.918 142.885 172.309 142.885C88.7004 142.885 20.9219 146.044 20.9219 149.942C20.9219 153.84 88.7004 157 172.309 157Z" fill="#AFB2B8"/>
<path d="M97.6857 149.454L45.3261 149.487C40.453 149.491 36.0144 145.542 35.4129 140.668L20.9917 23.8185C20.3903 18.9446 23.8532 14.9908 28.7271 14.9882L81.0866 14.9548C85.9597 14.9514 90.3984 18.9001 90.9998 23.774L105.421 140.623C106.022 145.497 102.559 149.45 97.6857 149.454Z" fill="white"/>
<path d="M102.548 149.454L50.1884 149.487C45.3153 149.491 40.8767 145.542 40.2752 140.668L25.854 23.8185C25.2526 18.9446 28.7155 14.9908 33.5894 14.9882L85.9489 14.9548C90.822 14.9514 95.2607 18.9001 95.8621 23.774L110.283 140.623C110.885 145.497 107.421 149.45 102.548 149.454Z" fill="#F09308"/>
<path d="M99.9582 145.732L51.8616 145.762C48.0604 145.765 44.5983 142.685 44.1297 138.883L30.2473 26.4041C29.7779 22.6028 32.4791 19.5186 36.2804 19.5169L84.3769 19.4861C88.1782 19.4835 91.6402 22.5634 92.1088 26.3647L105.99 138.844C106.461 142.645 103.759 145.73 99.9582 145.732Z" fill="#F09308"/>
<path d="M97.9162 140.684L52.6349 140.713C49.6989 140.714 47.0251 138.336 46.6627 135.399L45.4838 125.842L44.9749 121.712L43.994 113.761L36.4351 52.4572L33.5565 29.1123C33.1941 26.1763 35.2803 23.7938 38.2162 23.7921L45.1035 23.7886L45.2362 24.863C45.4821 26.8394 47.2812 28.4398 49.2586 28.4381L74.8909 28.4107C76.8674 28.409 78.2707 26.8043 78.0257 24.8278L77.8946 23.7672L83.4984 23.7638C86.4336 23.7612 89.1074 26.1412 89.4706 29.0772L90.2605 35.4829L102.576 135.363C102.939 138.301 100.852 140.682 97.9162 140.684Z" fill="#232323"/>
<path d="M72.0134 26.3396H50.3905C49.694 26.3396 49.0592 25.775 48.9735 25.0776C48.8878 24.3811 49.3839 23.8157 50.0804 23.8157H71.7041C72.4006 23.8157 73.0354 24.3803 73.1211 25.0776C73.2059 25.775 72.7108 26.3396 72.0134 26.3396Z" fill="#FFD698"/>
<path d="M97.9158 140.684L52.6345 140.713C49.6985 140.715 47.0246 138.337 46.6623 135.4L45.4834 125.842L102.576 135.364C102.939 138.301 100.852 140.682 97.9158 140.684Z" fill="black"/>
<path d="M90.2605 35.4844L36.4351 52.4587L33.5565 29.1138C33.1941 26.1778 35.2803 23.7952 38.2162 23.7935L45.1035 23.7901L45.2362 24.8644C45.4821 26.8409 47.2813 28.4413 49.2586 28.4395L74.8909 28.4121C76.8674 28.4104 78.2707 26.8058 78.0257 24.8293L77.8946 23.7687L83.4984 23.7653C86.4336 23.7627 89.1074 26.1427 89.4706 29.0787L90.2605 35.4844Z" fill="black"/>
<path d="M193.48 99.5368L191.826 99.0442L193.139 95.7981L195.304 96.2059L193.48 99.5368Z" fill="#DE623C"/>
<path d="M195.49 99.2723C195.601 97.5015 197.706 96.4743 197.802 97.1159C197.915 97.8664 197.616 98.9879 197.616 98.9879C198.106 99.2303 200.363 98.3779 199.36 95.5207L200.135 94.2922L198.466 92.9531L197.363 93.6154C193.897 94.4798 193.395 95.5833 193.269 98.3291C193.148 101.03 195.386 100.936 195.49 99.2723Z" fill="#F37A50"/>
<path d="M197.556 97.2941C197.501 97.3164 197.443 97.3258 197.386 97.3292C197.39 97.3387 197.394 97.3472 197.398 97.3567C197.62 97.9144 197.474 98.4944 197.075 98.6529C197.009 98.6786 196.94 98.6906 196.871 98.6923C196.886 99.0735 196.731 99.4025 196.446 99.5156C196.333 99.5602 196.211 99.5653 196.09 99.5387C196.129 99.9191 195.959 100.273 195.64 100.4C195.24 100.558 194.763 100.301 194.573 99.8257C194.384 99.3503 194.555 98.8354 194.955 98.6769C195.056 98.6366 195.163 98.6237 195.268 98.6332C195.13 98.1286 195.282 97.6402 195.644 97.4963C195.71 97.4706 195.779 97.4586 195.848 97.4569C195.833 97.0757 195.988 96.7467 196.273 96.6336C196.378 96.5916 196.491 96.5839 196.604 96.6045C196.553 96.2686 196.697 95.9491 196.979 95.8377C197.316 95.704 197.72 95.9208 197.879 96.3226C198.039 96.7253 197.894 97.1605 197.556 97.2941Z" fill="#DE623C"/>
<path d="M194.497 94.778C194.581 94.2948 195.066 93.3113 195.938 93.2187C196.81 93.1253 197.994 94.7471 197.293 94.778C196.592 94.8088 196.025 94.2065 196.025 94.2065L194.497 94.778Z" fill="#DE623C"/>
<path d="M224.476 59.2668C219.388 59.2813 214.204 61.3238 214.332 71.0322C214.46 80.7406 213.61 90.0249 210.926 91.4548C213.475 93.9153 231.468 99.0813 238.655 92.5128C235.458 88.6242 233.647 75.4349 233.647 71.8572C233.647 66.9824 232.286 59.2436 224.476 59.2668Z" fill="#201D40"/>
<path d="M228.514 145.419C228.282 143.108 231.062 125.589 231.062 125.589C234.435 110.125 231.523 98.9821 231.523 98.9821L222.289 107.279L224.525 122.722C224.525 122.722 224.118 123.845 223.904 124.744C222.741 129.615 223.9 135.437 224.616 139.318C224.948 141.117 225.465 144.896 225.478 145.755L224.021 147.638C224.021 147.638 229.292 153.471 230.103 153.507C231.679 153.579 231.214 152.018 231.214 152.018C229.049 149.794 228.581 146.081 228.514 145.419Z" fill="#F37A50"/>
<path d="M223.931 149.706L224.221 153.453L224.894 153.483L225.235 150.003C227.028 150.461 228.313 153.714 228.313 153.714C229.547 154.157 232.687 154.461 233.804 153.886C234.074 152.791 231.209 152.023 231.209 152.023C230.951 152.33 229.421 152.565 228.878 152.236C226.879 150.534 225.904 148.058 225.477 145.756C225.478 145.756 222.318 145.976 223.931 149.706Z" fill="#201D40"/>
<path d="M216.521 102.563C213.94 108.952 213.619 118.309 213.454 121.61C207.616 122.621 196.183 131.256 196.183 131.256L194.063 131.364C194.063 131.364 193.176 138.318 193.623 138.887C194.49 139.995 195.276 138.774 195.276 138.774C195.524 136.017 197.278 134.014 197.636 133.542C198.175 132.832 215.757 128.493 219.233 127.009C222.708 125.526 225.971 103.19 225.971 103.19L216.521 102.563Z" fill="#F37A50"/>
<path d="M192.61 132.502L190.243 134.875L190.613 135.348L193.166 133.558C193.898 135.037 192.442 137.795 192.442 137.795C192.86 138.888 194.477 141.189 195.515 141.61C196.413 141.157 195.269 138.773 195.269 138.773C194.911 138.775 193.865 137.877 193.771 137.319C193.762 134.977 194.871 132.88 196.181 131.254C196.181 131.256 194.198 129.246 192.61 132.502Z" fill="#201D40"/>
<path d="M229.495 77.4758C229.495 77.4758 234.561 81.547 238.655 86.8193C239.784 88.6861 240.893 92.1224 240.893 92.1224C239.481 92.6047 227.144 82.7635 227.144 82.7635C227.144 82.7635 225.505 81.9582 226.1 79.8618C226.742 77.5992 229.495 77.4758 229.495 77.4758Z" fill="#F37A50"/>
<path d="M225.662 74.3329L222.132 73.8043L222.413 77.0804C222.413 77.0804 224.201 80.3017 225.896 79.7466C227.592 79.1914 226.765 77.7684 226.765 77.7684L225.662 74.3329Z" fill="#DE623C"/>
<path d="M220.638 71.0148C222.038 74.882 224.178 76.6811 227.273 76.018C229.83 75.4697 231.908 71.3232 230.818 67.4422C229.728 63.5621 226.374 61.1102 223.327 61.9661C220.28 62.8219 219.265 67.2255 220.638 71.0148Z" fill="#F37A50"/>
<path d="M223.839 69.4685C223.88 69.4505 223.916 69.4179 223.939 69.3751C224.268 68.7454 225.08 68.6589 225.088 68.658C225.202 68.6469 225.285 68.5458 225.275 68.4318C225.264 68.3179 225.084 68.1294 224.872 68.1722C224.83 68.1808 223.965 68.2725 223.53 69.1043C223.477 69.2054 223.559 69.4093 223.66 69.4625C223.717 69.4933 223.783 69.4933 223.839 69.4685Z" fill="#201D40"/>
<path d="M230.152 68.0202C230.172 68.0099 230.19 67.9953 230.205 67.9782C230.282 67.8934 230.276 67.7623 230.192 67.6852C229.536 67.0855 228.767 67.3742 228.736 67.3871C228.629 67.4282 228.576 67.549 228.617 67.6552C228.659 67.7614 228.778 67.8146 228.885 67.7734C228.91 67.764 229.451 67.5687 229.913 67.991C229.98 68.0527 230.076 68.0622 230.152 68.0202Z" fill="#201D40"/>
<path d="M227.551 70.0667C227.85 70.3511 228.114 70.6467 228.395 70.8086C228.49 70.8634 228.524 70.9851 228.473 71.0827C228.267 71.4845 227.632 71.8332 227.241 72.0174C227.184 72.044 227.134 71.9703 227.18 71.9266C227.567 71.5599 227.729 71.2943 227.796 71.1496C227.829 71.0776 227.825 70.9945 227.786 70.9251C227.698 70.7657 227.522 70.441 227.4 70.1712C227.359 70.0786 227.477 69.9955 227.551 70.0667Z" fill="#DE623C"/>
<path d="M225.795 73.5595C225.674 73.4576 225.733 73.2623 225.889 73.2443C226.288 73.1997 226.943 73.1115 227.555 72.9676C228.166 72.8236 228.792 72.6094 229.169 72.4724C229.317 72.4184 229.456 72.5675 229.394 72.7123C229.202 73.1577 228.757 73.8697 227.82 74.0907C226.882 74.3118 226.166 73.8731 225.795 73.5595Z" fill="white"/>
<path d="M218.464 71.1C222.117 70.466 227.105 66.0727 227.452 64.1365C226.653 61.8576 224.056 60.3969 221.961 61.5483C219.866 62.6989 216.797 68.2582 218.464 71.1Z" fill="#201D40"/>
<path d="M226.246 65.6461C226.246 65.6461 228.621 66.7565 230.9 66.9818C229.795 64.4887 228.991 62.5945 227.582 62.1267C226.173 61.6589 224.691 61.7352 224.691 61.7352L226.246 65.6461Z" fill="#201D40"/>
<path d="M221.59 69.5975C222.36 70.1501 222.617 71.1087 222.166 71.7393C221.714 72.3698 220.723 72.4324 219.953 71.8798C219.183 71.3272 218.925 70.3685 219.377 69.738C219.829 69.1083 220.82 69.0449 221.59 69.5975Z" fill="#F37A50"/>
<path d="M221.242 71.5966C221.269 71.582 221.293 71.5606 221.312 71.5332C221.584 71.1399 221.595 70.7098 221.339 70.3826C221.078 70.0476 220.613 69.9071 220.232 70.0502C220.124 70.0904 220.07 70.2095 220.11 70.3166C220.15 70.4237 220.269 70.4785 220.376 70.4383C220.585 70.3603 220.864 70.4477 221.012 70.6379C221.154 70.8204 221.139 71.0542 220.971 71.2976C220.906 71.3918 220.929 71.5203 221.023 71.5863C221.09 71.6317 221.175 71.6334 221.242 71.5966Z" fill="#DE623C"/>
<path d="M228.6 68.9107C228.64 69.2208 228.922 69.4393 229.233 69.3998C229.543 69.3604 229.761 69.0777 229.722 68.7676C229.682 68.4574 229.4 68.239 229.089 68.2784C228.779 68.3178 228.561 68.6005 228.6 68.9107Z" fill="black"/>
<path d="M224.481 70.0779C224.523 70.4086 224.826 70.6425 225.157 70.6005C225.487 70.5585 225.721 70.2561 225.679 69.9254C225.637 69.5947 225.335 69.3608 225.004 69.4028C224.673 69.4448 224.439 69.7472 224.481 70.0779Z" fill="black"/>
<path d="M237.216 76.3822C236.935 81.0702 237.886 86.7297 237.706 89.6828L240.893 92.1211C242.58 89.7711 241.654 82.6937 239.62 77.9817C238.816 76.9296 237.216 76.3822 237.216 76.3822Z" fill="#F37A50"/>
<path d="M239.402 73.2272C239.402 73.2272 240.226 74.9363 240.589 76.5059C240.578 76.541 239.885 77.5339 239.62 77.982C238.639 77.4371 237.852 77.1612 237.126 76.4562C237.447 73.8594 239.161 73.2306 239.402 73.2272Z" fill="#DE623C"/>
<path d="M239.82 79.2871C239.07 79.431 238.346 78.941 238.202 78.1914L236.945 71.6588L239.659 71.1371L240.915 77.6696C241.059 78.4192 240.569 79.1432 239.82 79.2871Z" fill="#494C7F"/>
<path d="M240.921 76.603C240.882 76.5541 240.835 76.5164 240.784 76.4839C240.793 76.477 240.802 76.4719 240.809 76.465C241.298 76.0727 241.464 75.4704 241.182 75.12C241.136 75.0626 241.079 75.0163 241.017 74.9795C241.226 74.6402 241.255 74.2624 241.053 74.0122C240.974 73.9129 240.866 73.846 240.742 73.8075C240.973 73.4828 241.001 73.0733 240.776 72.7931C240.494 72.4436 239.928 72.4316 239.511 72.7666C239.095 73.1015 238.986 73.6576 239.268 74.0071C239.339 74.0953 239.429 74.1622 239.53 74.2076C239.145 74.5957 239.032 75.1174 239.288 75.4336C239.334 75.491 239.391 75.5372 239.453 75.5741C239.243 75.9133 239.215 76.2911 239.416 76.5413C239.491 76.6338 239.588 76.6981 239.701 76.7375C239.483 77.0168 239.45 77.3817 239.648 77.6276C239.886 77.9232 240.364 77.9335 240.716 77.6499C241.067 77.368 241.16 76.8985 240.921 76.603Z" fill="#F37A50"/>
<path d="M237.044 76.4746C236.614 75.8021 236.332 73.8136 237.806 72.9449C239.498 71.9477 238.841 73.3732 238.45 73.6919C237.397 74.5512 238.275 75.2392 237.878 76.0017C237.669 76.4018 237.32 76.9055 237.044 76.4746Z" fill="#F37A50"/>
<path d="M243.86 56.6063C243.86 56.6063 241.759 62.7833 237.195 65.5608C237.344 65.9078 240.272 70.8802 240.272 70.8802C240.272 70.8802 246.026 69.7279 251.581 71.3154C249.349 67.8431 243.86 56.6063 243.86 56.6063Z" fill="#95A6DB"/>
<path d="M250.283 62.5206C252.383 66.7117 253.114 70.5961 251.915 71.1975C250.715 71.7989 248.041 68.8886 245.94 64.6975C243.839 60.5064 243.109 56.622 244.309 56.0206C245.508 55.4192 248.183 58.3295 250.283 62.5206Z" fill="#494C7F"/>
<path d="M237.444 65.4033C236.353 65.8994 232.9 67.5229 234.273 70.5839C235.373 73.0393 238.734 71.8056 240.271 70.8804C239.639 69.8069 237.444 65.4033 237.444 65.4033Z" fill="#494C7F"/>
<path d="M244.833 62.2038C244.833 62.2038 247.164 60.8476 248.504 62.8815C249.596 64.8159 247.481 66.2038 246.836 66.352C246.151 65.5227 244.833 62.2038 244.833 62.2038Z" fill="#768FDB"/>
<path d="M212.035 120.955C212.867 118.172 211.953 101.867 219.296 96.4507L231.932 97.782C234.851 102.509 234.186 115.729 234.56 127.019C220.315 130.718 222.133 120.27 212.035 120.955Z" fill="#E62552"/>
<path d="M232.088 94.6683C232.088 91.9011 234.486 87.7554 233.336 84.9625C232.499 82.7153 230.854 77.6461 229.061 77.3034C228.334 77.1646 227.424 77.0866 226.529 77.0258C226.529 77.0258 227.055 79.3724 225.871 79.4675C223.592 79.6499 222.394 76.7285 222.394 76.7285C221.166 76.6111 216.88 77.8902 216.883 78.3529C216.897 81.9777 218.49 87.8394 219.453 91.758C219.631 93.7534 219.491 95.3014 219.29 96.4306C218.925 97.6077 218.48 98.282 218.477 98.5364C218.477 98.5364 226.924 101.406 232.298 98.4473C232.3 98.4473 232.088 96.5368 232.088 94.6683Z" fill="#E62552"/>
<path d="M199.927 94.4623C203.739 91.5803 205.957 87.988 207.713 85.6072L204.244 82.4219C202.203 84.4986 200.137 88.622 198.284 93.0632C198.387 94.3835 199.927 94.4623 199.927 94.4623Z" fill="#F37A50"/>
<path d="M220.085 82.9958C220.085 82.9958 212.036 85.8067 207.713 85.6071C205.58 85.1522 204.243 82.4218 204.243 82.4218L217.809 77.5822C217.809 77.5822 219.519 76.9371 220.64 78.8064C221.85 80.8232 220.085 82.9958 220.085 82.9958Z" fill="#F37A50"/>
<path d="M277.215 60.4611C276.957 56.9477 277.972 53.8429 280.775 52.2622C283.614 50.6602 287.172 52.2314 287.172 52.2314C287.172 52.2314 290.183 51.1605 292.912 54.1659C295.641 57.1721 293.577 59.8168 294.693 62.0092C295.354 63.3071 298.715 63.5753 297.847 67.8041C297.597 69.0232 296.131 69.8448 294.888 69.9262C292.705 70.0692 290.673 69.2262 289.788 70.0692C286.873 72.8502 280.411 71.8444 279.507 69.3008C279.227 68.5117 273.415 70.0384 273.994 64.6667C274.287 61.9458 277.445 63.601 277.215 60.4611Z" fill="#2C2858"/>
<path d="M294.929 77.7568C297.882 76.2396 304.659 73.6848 307.516 70.8962L303.129 67.7769C303.129 67.7769 293.104 71.0461 290.87 72.2353C289.166 73.6266 291.601 77.0877 294.929 77.7568Z" fill="#F5A3B7"/>
<path d="M311.608 50.9417C310.533 49.5427 309.929 50.5125 309.371 50.8003C307.815 51.6039 308.894 47.9354 307.181 48.4392C307.637 51.0334 306.591 50.9717 307.38 53.4742L307.194 54.5142L309.7 56.357L309.981 55.209C311.597 54.4834 313.343 53.1323 311.608 50.9417Z" fill="#DE623C"/>
<path d="M311.994 51.5113C311.651 50.6665 311.051 50.2647 310.77 50.1302C310.435 49.9786 309.418 50.3435 309.249 50.7334C309.081 51.1232 309.201 51.543 309.511 51.6989C309.595 51.7366 309.674 51.7494 309.775 51.7332C309.635 52.1435 309.756 52.5633 310.036 52.6987C310.091 52.7158 310.145 52.733 310.199 52.7492C310.174 53.0636 310.299 53.3532 310.521 53.4466C310.605 53.4843 310.709 53.4929 310.785 53.4809C310.725 53.749 310.81 54.1457 311.033 54.2382C311.248 54.5364 311.667 54.3916 311.909 54.1431C312.403 53.6325 312.576 52.9411 311.994 51.5113Z" fill="#F37A50"/>
<path d="M307.088 54.2278C307.088 54.2278 304.018 63.9199 303.129 67.7777C302.776 69.3096 306.305 70.6589 307.516 70.8971C308.824 69.612 309.701 66.4258 310.111 55.7519C309.193 54.699 307.088 54.2278 307.088 54.2278Z" fill="#F5A3B7"/>
<path d="M278.578 77.7587C275.26 76.8206 267.597 73.0904 264.74 70.3018L268.148 67.1045C268.148 67.1045 277.97 69.8263 280.202 71.0154C280.422 73.0613 280.246 76.5293 278.578 77.7587Z" fill="#F5A3B7"/>
<path d="M260.125 49.6939C261.201 48.2949 261.805 49.2647 262.362 49.5525C263.919 50.3561 262.839 46.6876 264.553 47.1914C264.096 49.7856 265.142 49.7239 264.354 52.2264L264.539 53.2664L262.033 55.1093L261.753 53.9612C260.137 53.2356 258.391 51.8845 260.125 49.6939Z" fill="#DE623C"/>
<path d="M259.738 50.2633C260.082 49.4186 260.682 49.0168 260.963 48.8823C261.298 48.7307 262.315 49.0956 262.483 49.4854C262.652 49.8752 262.531 50.295 262.222 50.451C262.138 50.4887 262.058 50.5015 261.958 50.4852C262.098 50.8956 261.977 51.3154 261.697 51.4508C261.642 51.4679 261.588 51.485 261.533 51.5013C261.559 51.8157 261.434 52.1053 261.212 52.1987C261.128 52.2364 261.024 52.2449 260.948 52.2329C261.007 52.5011 260.922 52.8978 260.7 52.9903C260.485 53.2884 260.066 53.1436 259.824 52.8952C259.33 52.3846 259.157 51.6932 259.738 50.2633Z" fill="#F37A50"/>
<path d="M264.645 52.9786C264.645 52.9786 267.686 63.1274 268.575 66.9852C268.928 68.5171 265.949 70.0634 264.739 70.3016C264.366 68.8666 261.52 64.9008 261.623 54.5019C262.541 53.4507 264.645 52.9786 264.645 52.9786Z" fill="#F5A3B7"/>
<path d="M283.185 64.901V72.9422C283.185 72.9422 286.17 74.3721 288.758 72.9422C288.36 71.1551 288.124 65.463 288.124 65.463L283.185 64.901Z" fill="#DE623C"/>
<path d="M279.894 71.0137H283.183C283.183 71.0137 284.585 73.3431 286.598 73.1632C288.612 72.9833 288.488 71.0137 288.488 71.0137L292.543 71.5517C292.543 71.5517 295.664 76.9996 295.184 81.3441C294.674 85.9601 291.402 87.8406 291.579 94.8589C286.43 96.479 281.311 96.4789 277.736 92.2099C279.03 87.3026 279.099 83.306 278.084 77.3971C278.614 74.5682 279.894 71.0137 279.894 71.0137Z" fill="#F5A3B7"/>
<path d="M292.278 61.9033C292.278 66.1201 289.736 69.5376 286.599 69.5376C283.463 69.5376 280.92 66.1193 280.92 61.9033C280.92 57.6874 283.463 54.269 286.599 54.269C289.736 54.269 292.278 57.6865 292.278 61.9033Z" fill="#F37A50"/>
<path d="M280.544 61.903C283.679 61.502 286.594 59.7552 288.24 57.4977C289.303 60.1364 292.279 61.903 292.279 61.903C292.279 61.903 294.509 56.856 290.454 54.1333C286.585 51.5358 277.352 53.31 280.544 61.903Z" fill="#2C2858"/>
<path d="M284.211 63.5318C283.877 63.5318 283.607 63.262 283.607 62.9287C283.607 62.5954 283.877 62.3247 284.211 62.3247C284.544 62.3247 284.814 62.5946 284.814 62.9287C284.815 63.262 284.544 63.5318 284.211 63.5318Z" fill="black"/>
<path d="M289.021 63.5318C288.688 63.5318 288.418 63.262 288.418 62.9287C288.418 62.5954 288.688 62.3247 289.021 62.3247C289.354 62.3247 289.625 62.5946 289.625 62.9287C289.625 63.262 289.354 63.5318 289.021 63.5318Z" fill="black"/>
<path d="M290.083 62.3844C289.984 62.3844 289.888 62.3338 289.834 62.2422C289.685 61.9911 289.504 61.8404 289.298 61.7941C288.94 61.7153 288.586 61.9535 288.582 61.956C288.45 62.046 288.271 62.0134 288.18 61.8823C288.089 61.7513 288.121 61.5722 288.251 61.4805C288.273 61.4651 288.809 61.0959 289.417 61.2269C289.789 61.3075 290.098 61.5491 290.334 61.9466C290.415 62.0845 290.369 62.2619 290.232 62.3441C290.184 62.3715 290.134 62.3844 290.083 62.3844Z" fill="#2C2858"/>
<path d="M283.066 62.4127C283.002 62.4127 282.938 62.3922 282.885 62.3493C282.76 62.2491 282.74 62.0666 282.84 61.9415C283.221 61.466 283.642 61.2073 284.093 61.1722C284.675 61.1268 285.074 61.4857 285.091 61.5012C285.209 61.6091 285.217 61.7924 285.109 61.9107C285.002 62.028 284.819 62.0366 284.701 61.9304C284.693 61.9227 284.455 61.7222 284.13 61.7505C283.848 61.7753 283.566 61.9612 283.291 62.3039C283.235 62.3759 283.151 62.4127 283.066 62.4127Z" fill="#2C2858"/>
<path d="M287.199 63.7211C287.98 64.2839 288.224 64.5153 288.524 64.7029C288.316 65.3994 287.223 65.7455 286.912 65.6658C287.674 65.2906 287.781 64.7817 287.781 64.7817L287.199 63.7211Z" fill="#DE623C"/>
<path d="M280.536 61.7401C280.536 61.7401 280.016 54.7509 286.911 54.4056C289.905 54.2557 291.91 56.3598 291.91 56.3598C291.91 56.3598 290.517 52.9038 286.152 53.2953C281.845 53.6526 278.722 56.6665 280.536 61.7401Z" fill="#C4204A"/>
<path d="M281.769 62.4918C282.42 63.316 282.452 64.3749 281.841 64.8572C281.23 65.3396 280.207 65.0629 279.557 64.2378C278.906 63.4137 278.874 62.3548 279.485 61.8724C280.096 61.3909 281.118 61.6677 281.769 62.4918Z" fill="#F37A50"/>
<path d="M281.198 64.274C281.173 64.274 281.147 64.2688 281.122 64.2585C281.024 64.2166 280.978 64.1035 281.02 64.0049C281.157 63.6785 281.161 63.4155 281.029 63.2236C280.826 62.928 280.345 62.8364 279.997 62.8475C279.89 62.8509 279.8 62.7678 279.797 62.6607C279.794 62.5537 279.877 62.4646 279.984 62.4611C280.452 62.4457 281.056 62.5802 281.348 63.0043C281.493 63.2159 281.616 63.5869 281.376 64.1549C281.345 64.2294 281.273 64.274 281.198 64.274Z" fill="#DE623C"/>
<path d="M285.093 66.6953C285.012 66.5634 285.127 66.3989 285.279 66.4306C285.664 66.512 286.303 66.6328 286.918 66.6876C287.533 66.7425 288.182 66.7365 288.576 66.7253C288.731 66.721 288.815 66.9027 288.712 67.0183C288.395 67.3747 287.759 67.9007 286.817 67.8168C285.874 67.7328 285.341 67.1023 285.093 66.6953Z" fill="white"/>
<path d="M283.183 70.8982C283.183 70.8982 284.349 72.9766 286.43 73.1728C285.97 73.967 285.491 74.5701 284.503 74.3345C282.649 73.8933 283.183 70.8982 283.183 70.8982Z" fill="white"/>
<path d="M288.489 71.0137C288.358 71.532 288.606 73.0227 286.431 73.1718C286.645 73.5684 287.086 74.7216 288.363 74.3103C289.822 73.8391 289.057 71.3092 288.489 71.0137Z" fill="white"/>
<path d="M262.902 107.823L260.427 110.534C260.427 110.534 259.039 110.815 258.039 111.235C257.848 111.315 257.671 111.4 257.521 111.49C257.516 111.493 257.511 111.497 257.505 111.499C257.322 111.61 257.083 111.749 256.808 111.895C256.648 111.98 256.475 112.068 256.293 112.155C255.204 112.672 253.81 113.133 252.947 112.666C250.988 110.175 254.011 107.126 256.507 105.983C259.004 104.839 259.782 103.153 260.974 103.53C262.167 103.906 262.902 107.823 262.902 107.823Z" fill="#494C7F"/>
<path d="M261.516 106.731C262.001 107.086 263.778 108.534 263.778 108.534L261.365 112.066C261.365 112.066 260.901 111.354 259.821 110.34C257.579 108.236 260.361 105.888 261.516 106.731Z" fill="#F37A50"/>
<path d="M276.94 119.059C273.259 113.094 263.259 107.411 263.259 107.411C263.259 107.411 261.561 109.677 260.842 112.198C260.842 112.198 269.882 121.965 272.515 124.63C275.173 126.638 278.779 122.659 276.94 119.059Z" fill="#4364CC"/>
<path d="M282.455 129.538L280.469 132.412L283.643 133.605L285.669 131.32L282.455 129.538Z" fill="#F37A50"/>
<path d="M291.394 99.0392L282.323 104.026C282.323 104.026 291.389 116.535 296.841 119.538C297.791 120.061 302.978 117.025 302.913 115.936C302.676 111.964 291.394 99.0392 291.394 99.0392Z" fill="#4364CC"/>
<path d="M296.067 113.812C295.075 113.691 282.454 129.537 282.454 129.537C282.454 129.537 284.542 131.334 286.728 132.143C295.596 123.603 300.032 120.148 302.954 116.73C304.03 113.973 299.812 111.892 296.067 113.812Z" fill="#4364CC"/>
<path d="M286.341 101.622C286.341 101.622 278.237 92.8127 275.914 95.0479C273.592 97.2831 273.09 115.355 271.78 122.137C271.125 125.523 276.115 126.712 277.291 125.069C279.413 122.105 286.341 101.622 286.341 101.622Z" fill="#768FDB"/>
<path d="M287.235 139.578C283.344 138.384 280.65 136.087 279.394 134.828C278.92 134.353 278.91 133.588 279.374 133.102C280.013 132.432 280.823 131.618 281.344 131.148C281.447 131.055 281.539 130.975 281.616 130.913L284.628 132.497L284.75 132.561C284.67 133.177 284.804 133.708 285.057 134.184C285.135 134.335 285.227 134.479 285.327 134.619C285.459 134.803 285.607 134.98 285.762 135.15C285.876 135.276 285.996 135.4 286.118 135.521C287.397 136.793 288.869 137.805 287.235 139.578Z" fill="#494C7F"/>
<path d="M274.568 100.22C274.568 100.22 274.019 96.5487 277.737 92.2102C280.873 94.6844 284.01 96.2103 291.579 94.8592C292.192 98.7633 291.86 99.8847 291.86 99.8847L285.522 103.476L274.568 100.22Z" fill="#768FDB"/>
<path d="M135.278 106.2C135.278 106.2 133.923 105.851 134.35 105.42C135.036 104.729 135.075 105.687 135.801 105.835C136.446 105.965 135.466 102.77 132.349 103.3C131.896 103.377 131.024 102.598 131.024 102.598L130.046 104.943L130.109 105.428C130.086 107.218 130.951 107.76 131.649 108.188L135.278 106.2Z" fill="#DE623C"/>
<path d="M112.932 80.9294C110.514 84.5705 112.356 90.212 116.595 99.3353C120.41 99.1237 121.285 96.5895 121.285 96.5895C121.285 96.5895 120.381 88.1122 119.608 85.5626C117.753 79.4421 114.098 79.174 112.932 80.9294Z" fill="#0E6A41"/>
<path d="M131.232 102.598L121.285 96.5903L116.596 99.3361C119.332 101.788 122.783 103.973 130.032 105.63C130.975 104.355 131.232 102.598 131.232 102.598Z" fill="#0E6A41"/>
<path d="M81.0493 110.134L78.545 112.878C78.545 112.878 77.14 113.161 76.1282 113.586C75.9355 113.667 75.7564 113.753 75.6048 113.844C75.5996 113.847 75.5936 113.851 75.5885 113.853C75.4034 113.966 75.161 114.106 74.8826 114.253C74.7206 114.34 74.545 114.428 74.3617 114.517C73.2599 115.04 71.8489 115.507 70.9759 115.034C68.9934 112.513 72.0519 109.428 74.5784 108.271C77.1058 107.114 77.8922 105.408 79.0985 105.788C80.3065 106.171 81.0493 110.134 81.0493 110.134Z" fill="#181630"/>
<path d="M76.1284 113.587C75.9357 113.668 75.7566 113.754 75.605 113.845L74.8716 112.006C74.8116 111.857 74.8845 111.688 75.0335 111.628C75.0738 111.613 75.1149 111.606 75.156 111.608C75.2666 111.613 75.3685 111.682 75.4113 111.79L76.1284 113.587Z" fill="white"/>
<path d="M74.8835 114.255C74.7215 114.341 74.5459 114.43 74.3626 114.518L73.7569 113C73.6978 112.85 73.7706 112.681 73.9196 112.621C73.9591 112.605 74.001 112.599 74.0413 112.601C74.1518 112.606 74.2546 112.674 74.2975 112.784L74.8835 114.255Z" fill="white"/>
<path d="M79.6476 109.03C80.1385 109.389 81.9377 110.854 81.9377 110.854L79.4952 114.429C79.4952 114.429 79.0265 113.708 77.9325 112.682C75.6639 110.551 78.4791 108.176 79.6476 109.03Z" fill="#F37A50"/>
<path d="M95.2555 121.503C91.5313 115.467 81.4116 109.717 81.4116 109.717C81.4116 109.717 79.6931 112.01 78.9648 114.561C78.9648 114.561 88.1129 124.445 90.7774 127.141C93.4675 129.173 97.1163 125.146 95.2555 121.503Z" fill="#C4204A"/>
<path d="M117.14 144.266L118.342 147.591L121.189 145.678L120.498 142.665L117.14 144.266Z" fill="#F37A50"/>
<path d="M108.897 102.599L99.2354 106.646C99.2354 106.646 107.019 120.204 112.184 123.81C113.083 124.438 118.627 121.938 118.679 120.834C118.866 116.811 108.897 102.599 108.897 102.599Z" fill="#C4204A"/>
<path d="M112.184 123.809C111.501 124.556 117.139 144.265 117.139 144.265C117.139 144.265 119.845 143.601 121.797 142.275C119.974 129.951 119.734 124.267 118.636 119.851C116.998 117.344 112.804 119.595 112.184 123.809Z" fill="#C4204A"/>
<path d="M104.77 103.891C104.77 103.891 97.4569 97.0204 95.1069 99.2822C92.7569 101.544 91.3604 117.789 90.0342 124.652C89.372 128.079 94.4207 129.282 95.6106 127.619C97.7602 124.619 104.77 103.891 104.77 103.891Z" fill="#E62552"/>
<path d="M117.179 63.2479C118.289 60.0497 116.475 55.5811 112.929 56.359C109.383 57.1377 107.29 58.2815 106.053 53.9824C105.067 50.5581 100.719 48.4634 96.1325 50.4262C90.264 52.9372 94.288 56.0274 90.9853 56.3247C87.6827 56.622 84.4828 57.2731 86.1817 61.5096C87.8806 65.7461 92.7879 67.5015 97.3491 64.9699C101.91 62.4383 101.465 66.2413 104.205 66.1213C108.101 65.95 117.179 63.2479 117.179 63.2479Z" fill="#201D40"/>
<path d="M110.336 67.4118C108.821 71.4067 110.136 75.609 113.274 76.799C116.411 77.9889 120.182 75.7152 121.697 71.7203C123.212 67.7262 121.897 63.5231 118.759 62.3332C115.622 61.144 111.851 63.4178 110.336 67.4118Z" fill="#F37A50"/>
<path d="M110.79 72.1128L114.4 76.4093C114.4 76.4093 114.111 78.7575 114.098 79.0882C114.042 80.483 112.252 80.4307 111.185 79.1559C110.117 77.8811 109.565 76.4427 109.565 76.4427L110.79 72.1128Z" fill="#F37A50"/>
<path d="M122.148 70.9954C121.094 70.4908 115.607 66.6698 115.312 65.3127C114.402 67.9386 109.375 69.4533 109.132 68.4938C109.083 62.9962 111.953 59.3705 117.74 60.2958C125.676 61.5646 122.148 70.9954 122.148 70.9954Z" fill="#2C2858"/>
<path d="M114.49 70.4697C114.566 70.8338 114.922 71.0669 115.286 70.9915C115.65 70.9161 115.883 70.5597 115.808 70.1956C115.732 69.8315 115.376 69.5984 115.012 69.6738C114.648 69.7492 114.414 70.1056 114.49 70.4697Z" fill="black"/>
<path d="M118.921 72.0482C118.992 72.39 119.327 72.6085 119.668 72.5374C120.01 72.4663 120.228 72.1322 120.157 71.7903C120.086 71.4485 119.751 71.23 119.41 71.3011C119.069 71.3714 118.85 71.7064 118.921 72.0482Z" fill="black"/>
<path d="M121.013 71.4021C121.039 71.4004 121.066 71.3936 121.091 71.3824C121.215 71.3259 121.272 71.1665 121.22 71.0277C120.81 69.9491 119.847 69.8609 119.807 69.8583C119.674 69.848 119.558 69.9603 119.55 70.1102C119.543 70.2593 119.644 70.3895 119.778 70.4006C119.81 70.4032 120.483 70.476 120.772 71.2342C120.814 71.3447 120.912 71.409 121.013 71.4021Z" fill="#2C2858"/>
<path d="M114.319 69.0481C114.3 69.0301 114.284 69.0078 114.273 68.9821C114.217 68.8579 114.277 68.7003 114.407 68.63C115.421 68.08 116.208 68.6411 116.241 68.666C116.35 68.7457 116.364 68.9059 116.271 69.0241C116.179 69.1423 116.018 69.174 115.909 69.0952C115.883 69.0772 115.325 68.6917 114.612 69.0789C114.508 69.1346 114.391 69.1192 114.319 69.0481Z" fill="#2C2858"/>
<path d="M118.313 72.3088C118.354 72.7663 118.358 73.2066 118.473 73.5493C118.513 73.665 118.451 73.7918 118.338 73.8363C117.87 74.0205 117.084 73.8449 116.622 73.7121C116.554 73.6924 116.567 73.5939 116.636 73.5913C117.229 73.569 117.56 73.4662 117.722 73.3942C117.802 73.3583 117.86 73.2863 117.879 73.1998C117.921 73.0019 118.013 72.6009 118.11 72.2865C118.143 72.1777 118.303 72.1957 118.313 72.3088Z" fill="#DE623C"/>
<path d="M111.229 69.5554C111.635 70.4747 111.355 71.4882 110.603 71.8206C109.851 72.153 108.912 71.6775 108.506 70.7591C108.099 69.8407 108.38 68.8263 109.132 68.4939C109.883 68.1615 110.822 68.637 111.229 69.5554Z" fill="#F37A50"/>
<path d="M110.178 71.0304C110.21 71.0236 110.241 71.0099 110.269 70.9876C110.667 70.6732 110.81 70.2405 110.652 69.8293C110.491 69.4086 110.062 69.1233 109.632 69.1499C109.511 69.1576 109.419 69.2621 109.426 69.3829C109.434 69.5037 109.538 69.5963 109.659 69.5885C109.895 69.574 110.151 69.7488 110.242 69.9869C110.329 70.2157 110.242 70.4487 109.996 70.6432C109.901 70.7186 109.885 70.8565 109.96 70.9516C110.014 71.0184 110.099 71.0467 110.178 71.0304Z" fill="#DE623C"/>
<path d="M110.972 105.063C101.838 105.169 94.25 100.123 94.25 100.123C94.6689 99.0697 95.7844 96.9339 98.7615 93.8702C99.5214 90.6207 101.122 83.1055 101.663 81.2712C104.397 76.8248 105.309 78.2744 105.289 75.694L109.618 76.2885C109.618 76.2885 110.396 79.2494 112.784 79.7908C114.278 80.1292 114.129 78.5023 114.129 78.5023C114.129 78.5023 116.234 80.1464 116.798 80.8026C116.798 80.8026 118.082 86.4056 117.725 87.9571C117.074 90.7852 112.632 98.3869 112.632 98.3869C112.632 98.3869 110.903 104.25 110.972 105.063Z" fill="#3F964F"/>
<path d="M85.48 97.2529C85.4192 96.1855 85.456 94.6416 86.0557 94.7359C87.0187 94.8867 87.334 95.2516 88.0502 95.4461C88.6842 95.6192 88.3809 94.4369 86.1431 92.5829L86.2314 91.7245L83.9225 90.968L83.8591 91.3724C82.3333 92.2231 81.5305 94.3761 82.3633 96.6147C82.7188 97.5699 85.5605 98.6768 85.48 97.2529Z" fill="#F37A50"/>
<path d="M108.183 77.2347C105.09 74.1454 99.5263 75.2471 89.7459 77.6031C89.6028 80.4329 90.3902 82.6664 90.3902 82.6664C90.3902 82.6664 99.6719 83.1196 102.324 82.8651C108.689 82.2543 109.674 78.7246 108.183 77.2347Z" fill="#0E6A41"/>
<path d="M86.5533 92.1327L93.1055 82.5323C93.1055 82.5323 91.0451 78.743 89.748 77.6035C87.356 80.8933 85.1003 84.9037 83.541 90.8853C84.7995 91.8474 86.5533 92.1327 86.5533 92.1327Z" fill="#0E6A41"/>
<path d="M129.563 146.055C126.293 148.559 121.473 149.601 119.697 149.895C119.027 150.007 118.392 149.565 118.264 148.897C118.088 147.977 117.893 146.832 117.812 146.126C117.795 145.986 117.784 145.864 117.778 145.764L120.853 144.214L120.977 144.151C121.438 144.579 121.954 144.781 122.495 144.852C122.665 144.875 122.837 144.884 123.012 144.884C123.241 144.884 123.473 144.866 123.705 144.838C123.876 144.818 124.049 144.791 124.22 144.763C126.02 144.457 129.062 143.668 129.563 146.055Z" fill="#181630"/>
<path d="M123.011 144.885L123.034 145.791C123.037 145.933 122.925 146.051 122.782 146.056C122.639 146.059 122.521 145.946 122.517 145.804L122.493 144.853C122.664 144.876 122.837 144.885 123.011 144.885Z" fill="white"/>
<path d="M124.218 144.764L124.235 145.449C124.239 145.591 124.125 145.709 123.983 145.714C123.841 145.717 123.723 145.605 123.719 145.462L123.703 144.839C123.875 144.818 124.047 144.792 124.218 144.764Z" fill="white"/>
<path d="M105.005 104.471L104.618 104.377C106.356 100.338 109.992 93.7348 112.165 89.6867C112.363 89.3175 112.549 88.9714 112.72 88.6527C114.699 84.9593 112.989 79.8704 112.973 79.8216L113.392 79.8121C113.409 79.8644 113.873 81.1632 114.039 82.8929C114.191 84.495 114.147 86.8278 113.069 88.8394C112.898 89.159 112.712 89.5051 112.514 89.8735C110.341 93.9155 106.736 100.447 105.005 104.471Z" fill="#0E6A41"/>
<path d="M114.484 74.1649C114.463 74.0218 114.614 73.9079 114.728 73.9816C115.016 74.1692 115.499 74.4673 115.985 74.6987C116.471 74.93 117.008 75.1176 117.335 75.223C117.463 75.2649 117.47 75.4534 117.346 75.5271C116.964 75.7541 116.26 76.0403 115.516 75.6847C114.77 75.3309 114.549 74.6044 114.484 74.1649Z" fill="white"/>
<path d="M169.359 76.1133C164.613 78.8762 169.48 91.2619 174.427 95.1488C174.427 95.1488 180.424 94.1662 179.139 91.6885C175.483 84.6454 173.076 73.95 169.359 76.1133Z" fill="#4364CC"/>
<path d="M193.22 95.7826L178.413 90.5C178.413 90.5 176.221 92.4439 174.429 95.1494C176.791 96.7764 181.124 98.5532 191.908 99.0295C192.666 98.2079 193.22 95.7826 193.22 95.7826Z" fill="#4364CC"/>
<path d="M165.377 68.866L165.38 68.8669L167.805 69.2815L167.604 75.4388L164.315 76.1276L161.541 74.1443L162.99 68.4771L165.377 68.866Z" fill="#F37A50"/>
<path d="M161.238 63.9728C161.096 68.2213 163.686 71.7561 167.023 71.8684C170.36 71.9797 173.18 68.6256 173.322 64.3772C173.464 60.1287 170.874 56.5938 167.537 56.4816C164.201 56.3702 161.38 59.7243 161.238 63.9728Z" fill="#F37A50"/>
<path d="M169.19 65.394C169.659 66.2765 170.258 67.3551 170.258 67.3551C170.258 67.3551 169.886 68.2255 168.709 68.1561C169.221 67.9848 169.737 67.6841 169.58 67.0055C169.423 66.3279 169.19 65.394 169.19 65.394Z" fill="#DE623C"/>
<path d="M160.451 60.4063C160.759 56.3866 164.617 55.6943 164.617 55.6943C164.617 55.6943 163.85 55.2711 164.247 54.1068C164.764 54.5566 165.44 54.8376 166.123 54.883C170.727 55.1906 173.452 56.4114 172.706 58.1103C172.44 58.7151 175.323 59.529 173.315 63.5008C173.118 62.9593 173.176 61.06 172.364 60.504C171.549 59.9462 171.831 61.4824 169.869 60.9238C167.889 60.36 166.715 59.3028 165.112 59.8546C163.815 60.3806 161.54 64.9572 161.552 65.2982C161.524 64.5169 160.316 62.1729 160.451 60.4063Z" fill="#201D40"/>
<path d="M172.975 66.652C172.975 66.652 172.213 68.8461 171.618 69.3678C171.674 68.3774 169.439 68.6327 168.498 68.5599C166.795 68.4271 165.34 66.6529 164.406 68.763C162.248 68.5299 162.256 63.6946 162.256 63.6946C160.156 68.1778 161.937 72.0005 167.04 73.3439C170.402 74.228 173.021 70.186 172.975 66.652Z" fill="#201D40"/>
<path d="M166.81 64.7435C166.489 64.7118 166.253 64.4256 166.285 64.1035C166.317 63.7822 166.603 63.5466 166.925 63.5792C167.246 63.6109 167.482 63.897 167.449 64.2191C167.419 64.5396 167.132 64.7752 166.81 64.7435Z" fill="black"/>
<path d="M171.605 65.3629C171.284 65.3312 171.049 65.045 171.081 64.7229C171.113 64.4016 171.399 64.166 171.721 64.1986C172.042 64.2303 172.278 64.5164 172.245 64.8385C172.213 65.1598 171.927 65.3946 171.605 65.3629Z" fill="black"/>
<path d="M172.765 64.3195C172.666 64.3101 172.574 64.2501 172.53 64.1533C172.406 63.8877 172.241 63.7198 172.039 63.6538C171.69 63.5399 171.313 63.7429 171.31 63.7446C171.17 63.8217 170.994 63.7712 170.916 63.6315C170.838 63.4919 170.888 63.3163 171.026 63.2383C171.05 63.2246 171.621 62.9102 172.213 63.1004C172.576 63.2169 172.86 63.4885 173.055 63.9074C173.123 64.0531 173.06 64.2253 172.915 64.2929C172.867 64.3169 172.815 64.3246 172.765 64.3195Z" fill="#201D40"/>
<path d="M165.664 63.606C165.6 63.6 165.538 63.5726 165.49 63.5246C165.375 63.4124 165.373 63.2291 165.485 63.1143C165.912 62.6782 166.357 62.4615 166.81 62.4709C167.393 62.4829 167.757 62.8795 167.772 62.8967C167.879 63.0157 167.869 63.1991 167.75 63.3062C167.631 63.4124 167.449 63.4038 167.342 63.2856C167.334 63.2771 167.117 63.0543 166.79 63.05C166.507 63.0466 166.208 63.2042 165.9 63.5186C165.836 63.5855 165.748 63.6137 165.664 63.606Z" fill="#201D40"/>
<path d="M162.2 63.703C162.801 64.5015 162.758 65.5484 162.104 66.0401C161.45 66.5319 160.433 66.2835 159.832 65.4841C159.231 64.6857 159.274 63.6387 159.928 63.147C160.582 62.6552 161.599 62.9037 162.2 63.703Z" fill="#F37A50"/>
<path d="M161.219 65.6065C161.251 65.5997 161.282 65.586 161.311 65.5645C161.708 65.2544 161.855 64.8252 161.701 64.4148C161.544 63.995 161.12 63.7072 160.691 63.7303C160.57 63.7372 160.478 63.84 160.485 63.9608C160.492 64.0816 160.594 64.1741 160.715 64.1672C160.95 64.1544 161.204 64.3309 161.292 64.5682C161.377 64.7961 161.288 65.0274 161.042 65.2193C160.947 65.293 160.93 65.4309 161.004 65.526C161.056 65.5937 161.14 65.6219 161.219 65.6065Z" fill="#DE623C"/>
<path d="M168.534 70.4287C167.052 70.4287 166.102 69.1753 166.089 69.159C166.01 69.0528 166.033 68.902 166.139 68.8232C166.245 68.7443 166.395 68.7666 166.474 68.8728C166.53 68.9474 167.858 70.6848 169.798 69.5865C169.914 69.5214 170.059 69.5617 170.125 69.6773C170.19 69.7921 170.15 69.9386 170.034 70.0046C169.493 70.3104 168.989 70.4287 168.534 70.4287Z" fill="#DE623C"/>
<path d="M169.35 143.436L170.029 146.05L173.846 144.783L173.766 142.887L169.35 143.436Z" fill="#F37A50"/>
<path d="M143.391 144.956L143.941 142.511L148.194 142.783L147.239 144.751L143.391 144.956Z" fill="#F37A50"/>
<path d="M173.842 144.684C175.912 147.845 181.354 145.701 180.978 149.826C172.708 149.38 169.268 149.271 169.268 149.271C169.323 148.321 169.594 146.076 169.826 145.203L173.842 144.684Z" fill="#181630"/>
<path d="M147.221 144.556C149.125 147.82 154.875 146.047 154.286 150.147L142.619 149.356C142.619 147.842 143.11 145.815 143.387 144.955L147.221 144.556Z" fill="#181630"/>
<path d="M165.329 97.3529L154.546 103.414C154.546 103.414 163.953 120.007 169.233 125.077C170.152 125.96 175.231 124.402 175.567 123.305C176.798 119.302 165.329 97.3529 165.329 97.3529Z" fill="#181630"/>
<path d="M168.354 122.953C166.508 130.555 168.746 143.995 168.746 143.995C168.746 143.995 172.15 144.114 174.734 143.08C174.452 130.123 176.148 125.778 175.505 121.061C173.905 118.213 169.771 118.732 168.354 122.953Z" fill="#181630"/>
<path d="M162.988 100.021L150.63 99.467C150.63 99.467 149.845 118.525 151.647 125.62C151.961 126.856 155.935 128.436 156.801 127.682C159.962 124.935 162.988 100.021 162.988 100.021Z" fill="#201D40"/>
<path d="M151.601 122.522C146.593 128.532 143.3 142.248 143.3 142.248C143.3 142.248 145.764 144.117 148.54 144.327C155.019 133.039 155.94 129.58 157.892 125.699C159.165 121.96 154.733 119.357 151.601 122.522Z" fill="#201D40"/>
<path d="M153.803 74.1838C153.803 74.1838 157.512 72.2939 161.766 73.5584C165.954 77.005 167.613 75.2085 167.613 75.2085C169.368 75.2462 171.261 76.126 171.261 76.126C171.705 84.9323 169.57 103.187 169.57 103.187C169.57 103.187 163.136 104.322 158.351 103.187C153.58 101.988 149.394 99.9815 149.394 99.9815C149.394 99.9815 152.556 79.2831 153.803 74.1838Z" fill="#768FDB"/>
<path d="M159.617 75.0427C155.436 69.2778 146.868 79.2801 142.519 83.9176C142.519 83.9176 142.902 89.7587 147.165 89.5599C150.509 88.4051 162.143 78.5253 159.617 75.0427Z" fill="#4364CC"/>
<path d="M132.741 107.272C132.852 105.501 134.957 104.473 135.053 105.115C135.167 105.866 134.868 106.987 134.868 106.987C135.358 107.23 137.614 106.377 136.611 103.52L137.967 102.226L135.317 99.9482L134.615 101.615C131.149 102.479 130.383 103.672 130.259 106.417C130.137 109.119 132.638 108.936 132.741 107.272Z" fill="#DE623C"/>
<path d="M138.263 103.875L147.826 89.0407C147.826 89.0407 144.485 86.4996 142.52 83.9183C140.314 86.3763 138.536 90.4945 134.541 100.522C135.066 101.507 138.263 103.875 138.263 103.875Z" fill="#4364CC"/>
<path d="M132.269 106.669C132.324 106.671 132.375 106.684 132.425 106.703C132.425 106.693 132.425 106.685 132.425 106.675C132.447 106.127 132.785 105.695 133.178 105.711C133.242 105.713 133.304 105.729 133.363 105.754C133.492 105.429 133.744 105.211 134.025 105.223C134.137 105.228 134.24 105.269 134.332 105.336C134.44 105.004 134.714 104.77 135.028 104.783C135.422 104.799 135.726 105.192 135.707 105.66C135.688 106.129 135.353 106.496 134.96 106.479C134.861 106.475 134.766 106.447 134.682 106.4C134.61 106.873 134.301 107.225 133.945 107.21C133.88 107.208 133.818 107.192 133.76 107.167C133.63 107.492 133.378 107.71 133.097 107.698C132.994 107.693 132.897 107.658 132.81 107.599C132.727 107.899 132.488 108.113 132.212 108.101C131.879 108.087 131.622 107.756 131.638 107.36C131.654 106.964 131.937 106.655 132.269 106.669Z" fill="#F37A50"/>
<path d="M60.7344 134.954L61.0882 137.164L64.7927 136.199L64.7593 134.332L60.7344 134.954Z" fill="#F37A50"/>
<path d="M64.806 135.959C66.7927 138.993 72.0342 136.753 71.6735 140.712L60.3682 140.707C60.4221 139.796 60.7288 137.294 60.9525 136.456L64.806 135.959Z" fill="#181630"/>
<path d="M57.5522 92.193L48.4375 97.3162C48.4375 97.3162 56.3888 111.341 60.8514 115.627C61.6285 116.373 65.9207 115.056 66.206 114.129C67.2452 110.745 57.5522 92.193 57.5522 92.193Z" fill="#181630"/>
<path d="M60.1086 113.831C57.9368 120.967 60.2259 135.427 60.2259 135.427C60.2259 135.427 63.1028 135.528 65.2875 134.654C65.0493 123.702 66.6976 116.219 66.1545 112.231C64.8009 109.825 61.3063 110.263 60.1086 113.831Z" fill="#181630"/>
<path d="M55.5723 94.4476L45.1271 93.979C45.1271 93.979 44.464 110.087 45.9864 116.084C46.2512 117.128 49.6104 118.464 50.3429 117.827C53.0133 115.505 55.5723 94.4476 55.5723 94.4476Z" fill="#201D40"/>
<path d="M49.8172 118.423C48.5758 119.134 47.008 120.283 44.9741 121.712L43.9932 113.76C44.9673 113.445 45.9319 113.261 46.8683 113.247C50.5531 112.481 52.4602 116.384 49.8172 118.423Z" fill="#201D40"/>
<path d="M76.1383 72.1712C75.6671 72.7212 74.8344 74.002 74.2689 74.6137L72.5032 73.7047C71.9446 71.4584 72.965 69.1135 73.0532 68.8299C73.2828 68.0932 73.3445 67.7333 73.4627 67.7162C73.581 67.6999 74.2852 67.7856 73.9853 68.8676C73.6092 70.2264 75.1059 70.3069 76.3156 67.526C76.6181 66.8295 77.5553 66.8389 77.5922 67.5474C77.6324 68.3296 78.2818 69.6687 76.1383 72.1712Z" fill="#F37A50"/>
<path d="M63.7032 80.5231C63.2886 81.6232 64.7261 86.1775 65.1314 86.1081C69.6275 83.6433 74.5151 74.5423 74.5151 74.5423L72.0571 73.0071C72.0563 73.0079 69.0458 76.8109 63.7032 80.5231Z" fill="#C4204A"/>
<path d="M54.3514 74.6496C56.0537 77.6293 63.9013 85.9473 65.1316 86.1083L65.5617 80.2543C65.5617 80.2543 59.6648 71.1739 58.4645 69.6781C56.3904 67.0839 51.5628 69.7903 54.3514 74.6496Z" fill="#C4204A"/>
<path d="M77.8173 67.3336L74.1334 73.0565C73.986 73.2861 73.6802 73.352 73.4506 73.2047L72.6769 72.7069C72.4473 72.5596 72.3814 72.2537 72.5287 72.0241L76.2126 66.3012C76.36 66.0716 76.6658 66.0056 76.8954 66.153L77.6691 66.6507C77.8987 66.7981 77.9646 67.1039 77.8173 67.3336Z" fill="#201D40"/>
<path d="M77.4755 67.1103L73.7916 72.8332C73.6442 73.0628 73.3384 73.1288 73.1088 72.9814L72.3351 72.4837C72.1055 72.3363 72.0396 72.0305 72.1869 71.8009L75.8708 66.0779C76.0182 65.8483 76.324 65.7824 76.5536 65.9297L77.3273 66.4275C77.5569 66.5757 77.6237 66.8807 77.4755 67.1103Z" fill="white"/>
<path d="M75.9688 70.2711C76.057 69.8504 75.9302 68.101 76.4622 68.107C76.5924 68.1532 76.6404 68.4094 76.6404 68.4094C76.7158 68.1498 76.87 67.0104 77.2924 67.2117C77.6531 67.527 77.5965 67.7746 77.5965 67.7746L75.9688 70.2711Z" fill="#F37A50"/>
<path d="M57.1815 69.8576C57.7041 70.7623 52.6271 70.9893 52.1919 69.1953C51.7558 67.4014 53.4487 62.674 53.4487 62.674L57.9174 64.432C57.9174 64.432 56.5012 68.6796 57.1815 69.8576Z" fill="#DE623C"/>
<path d="M52.0322 58.8171C51.9731 62.9543 54.5596 66.346 57.8091 66.3923C61.0587 66.4386 63.7402 63.1222 63.7994 58.9851C63.8585 54.8479 61.272 51.4562 58.0225 51.4099C54.7729 51.3636 52.0914 54.68 52.0322 58.8171Z" fill="#F37A50"/>
<path d="M62.0076 60.3636C62.1498 60.6703 62.5148 60.804 62.8215 60.6609C63.1282 60.5187 63.2619 60.1537 63.1188 59.847C62.9766 59.5403 62.6116 59.4075 62.3049 59.5497C61.9982 59.6928 61.8645 60.0569 62.0076 60.3636Z" fill="black"/>
<path d="M57.9281 59.8519C58.0823 60.1843 58.4764 60.3282 58.8088 60.174C59.1412 60.0198 59.2851 59.6257 59.1309 59.2933C58.9767 58.9609 58.5826 58.817 58.2502 58.9712C57.9178 59.1254 57.7739 59.5195 57.9281 59.8519Z" fill="black"/>
<path d="M60.8304 60.3418C61.0463 61.2902 61.3333 62.4562 61.3333 62.4562C61.3333 62.4562 60.7627 63.1793 59.6738 62.8134C60.199 62.7835 60.7602 62.6318 60.7859 61.955C60.8124 61.2782 60.8304 60.3418 60.8304 60.3418Z" fill="#DE623C"/>
<path d="M62.061 58.9543C62.133 58.9894 62.2212 58.986 62.2932 58.9388C62.3 58.9346 62.5425 58.7812 62.7892 58.8506C62.9631 58.8994 63.1122 59.0519 63.233 59.3047C63.2887 59.422 63.4292 59.4709 63.5466 59.4152C63.6639 59.3595 63.7128 59.219 63.6571 59.1016C63.4737 58.7195 63.2227 58.4813 62.91 58.3965C62.4525 58.2714 62.0499 58.5362 62.0327 58.5473C61.9248 58.6193 61.8965 58.7658 61.9685 58.8737C61.9916 58.9097 62.0242 58.9371 62.061 58.9543Z" fill="#201D40"/>
<path d="M58.9554 58.5645C58.8783 58.5877 58.7918 58.5714 58.7284 58.5131C58.7224 58.5071 58.5057 58.3195 58.2521 58.3495C58.073 58.3709 57.9017 58.4986 57.744 58.7299C57.6704 58.837 57.5247 58.8644 57.4176 58.7907C57.3105 58.717 57.2831 58.5714 57.3568 58.4643C57.5967 58.1148 57.8811 57.9186 58.2032 57.8826C58.6744 57.8295 59.0317 58.1533 59.0463 58.167C59.1414 58.2553 59.1474 58.4035 59.0591 58.4994C59.03 58.5303 58.994 58.5525 58.9554 58.5645Z" fill="#201D40"/>
<path d="M60.9267 64.2799C61.0518 64.1822 61.0004 63.9826 60.8436 63.9595C60.4444 63.8995 59.7881 63.7864 59.1781 63.6185C58.5681 63.4506 57.9462 63.2124 57.5726 63.0599C57.4253 62.9999 57.2796 63.1447 57.337 63.2929C57.5135 63.7479 57.935 64.4812 58.8697 64.7391C59.8044 64.9961 60.542 64.5814 60.9267 64.2799Z" fill="white"/>
<path d="M53.0942 60.7191C53.4292 59.2421 54.0709 59.2729 55.1692 57.8756C55.7475 55.9591 56.8389 54.8026 58.3776 55.9566C59.9574 57.1414 61.3367 57.2348 62.1241 56.827C63.954 55.8795 63.7998 58.8309 63.7998 58.8309C63.7998 58.8309 65.6512 55.7355 64.5863 54.0384C63.0665 51.6172 62.2183 52.8201 60.51 51.1529C58.8017 49.4849 55.7603 49.6605 54.9062 50.7408C54.0058 51.8794 54.0632 52.354 52.1312 52.8578C50.1985 53.3615 48.7557 55.3534 49.95 57.5681C51.1443 59.7827 48.0498 60.241 50.3715 62.5593C51.272 63.4589 52.8423 63.763 53.2167 63.4503C52.8226 62.675 52.8792 61.6709 53.0942 60.7191Z" fill="#2C2858"/>
<path d="M54.3151 58.9287C54.7503 59.7992 54.525 60.793 53.8131 61.1494C53.1011 61.5049 52.1707 61.0885 51.7364 60.2181C51.3012 59.3477 51.5265 58.3539 52.2384 57.9975C52.9504 57.6411 53.8808 58.0583 54.3151 58.9287Z" fill="#F37A50"/>
<path d="M53.1599 60.4847C53.1419 60.4761 53.1239 60.465 53.1093 60.4504C53.0416 60.3836 53.0416 60.2757 53.1076 60.208C53.3526 59.9604 53.4529 59.7368 53.4057 59.5432C53.3278 59.221 52.8574 59.0026 52.6835 58.9452C52.5936 58.9152 52.5447 58.8192 52.5738 58.7284C52.603 58.6385 52.6998 58.5896 52.7906 58.6188C52.824 58.6299 53.6011 58.8904 53.7399 59.4618C53.817 59.7788 53.6859 60.1103 53.3526 60.4487C53.2995 60.501 53.2232 60.513 53.1599 60.4847Z" fill="#DE623C"/>
<path d="M60.417 96.0507C56.7845 96.2974 46.2844 97.6768 43.0983 95.9153C42.0711 93.9183 44.045 84.658 44.5898 80.9329C46.1422 70.313 47.0709 67.341 52.1222 66.9409C53.2539 67.6571 56.004 68.5353 57.3302 68.7238C57.3302 68.7238 59.7779 73.3047 59.9578 76.4163C60.1402 79.5716 59.4737 85.0487 59.1087 88.1885C58.7035 91.6754 60.2602 93.7992 60.417 96.0507Z" fill="#E62552"/>
<path d="M39.5088 77.3914C39.5088 77.3914 47.6879 65.6115 51.1054 67.5597C53.7133 69.6784 47.6245 77.8918 40.2567 83.4545L39.5088 77.3914Z" fill="#C4204A"/>
<path d="M233.642 46.6627H256.691C258.509 46.6627 259.983 45.1891 259.983 43.3703V33.5351C259.983 31.7171 258.509 30.2435 256.691 30.2435H233.642C231.824 30.2435 230.351 31.7171 230.351 33.5351V43.3703C230.35 45.1891 231.823 46.6627 233.642 46.6627Z" fill="white"/>
<path d="M234.546 45.9266V52.0394C234.546 52.5303 235.206 52.6879 235.428 52.251L238.641 45.9275H234.546V45.9266Z" fill="white"/>
<path d="M234.214 35.3739H255.841C256.673 35.3739 257.347 34.6997 257.347 33.8678C257.347 33.0359 256.673 32.3617 255.841 32.3617H234.214C233.382 32.3617 232.708 33.0359 232.708 33.8678C232.708 34.6997 233.382 35.3739 234.214 35.3739Z" fill="#E3EAFF"/>
<path d="M234.214 40.1526H255.841C256.673 40.1526 257.347 39.4784 257.347 38.6465C257.347 37.8146 256.673 37.1404 255.841 37.1404H234.214C233.382 37.1404 232.708 37.8146 232.708 38.6465C232.708 39.4784 233.382 40.1526 234.214 40.1526Z" fill="#E3EAFF"/>
<path d="M233.993 44.9296H247.872C248.581 44.9296 249.157 44.3547 249.157 43.6445V43.2024C249.157 42.4931 248.582 41.9174 247.872 41.9174H233.993C233.284 41.9174 232.708 42.4922 232.708 43.2024V43.6445C232.708 44.3539 233.284 44.9296 233.993 44.9296Z" fill="#E3EAFF"/>
<path d="M181.448 31.9763C182.518 35.1736 180.793 38.6322 177.596 39.7022C174.399 40.7723 170.94 39.0468 169.87 35.8504C168.8 32.6531 170.525 29.1945 173.722 28.1245C176.919 27.0553 180.378 28.7799 181.448 31.9763Z" fill="#7F99EB"/>
<path d="M172.515 32.9424C173.053 32.7625 173.636 33.053 173.816 33.591C173.996 34.129 173.705 34.7116 173.167 34.8915C172.629 35.0714 172.047 34.781 171.867 34.243C171.687 33.7041 171.977 33.1224 172.515 32.9424Z" fill="white"/>
<path d="M177.475 31.2825C178.013 31.1026 178.596 31.3931 178.776 31.9311C178.956 32.4691 178.665 33.0517 178.127 33.2316C177.589 33.4115 177.007 33.1211 176.827 32.583C176.647 32.0442 176.937 31.4624 177.475 31.2825Z" fill="white"/>
<path d="M173.691 36.2729C173.639 36.29 173.589 36.3149 173.542 36.3466C173.334 36.4888 173.284 36.7218 173.428 36.8674C174.14 37.5845 175.431 37.7953 176.641 37.39C177.817 36.9968 178.694 36.1135 178.877 35.1386C178.916 34.9355 178.744 34.7727 178.493 34.7762C178.243 34.7787 178.009 34.9467 177.972 35.1497C177.844 35.8274 177.234 36.4425 176.416 36.7158C175.574 36.9977 174.676 36.8512 174.18 36.3526C174.068 36.2395 173.87 36.2129 173.691 36.2729Z" fill="white"/>
<path d="M261.362 88.2021C260.205 91.3694 256.701 92.9989 253.534 91.8423C250.367 90.6857 248.737 87.1817 249.894 84.0144C251.05 80.8471 254.554 79.2176 257.721 80.3742C260.889 81.5308 262.518 85.0348 261.362 88.2021Z" fill="#7F99EB"/>
<path d="M253.778 83.3898C254.311 83.5843 254.585 84.1746 254.39 84.7074C254.196 85.2403 253.605 85.5145 253.073 85.32C252.54 85.1255 252.266 84.5352 252.46 84.0023C252.654 83.4695 253.245 83.1945 253.778 83.3898Z" fill="white"/>
<path d="M258.691 85.184C259.224 85.3785 259.498 85.9687 259.303 86.5016C259.109 87.0345 258.519 87.3087 257.986 87.1142C257.453 86.9197 257.179 86.3294 257.373 85.7965C257.568 85.2637 258.158 84.9887 258.691 85.184Z" fill="white"/>
<path d="M252.618 86.7269C252.566 86.7081 252.512 86.6961 252.456 86.6918C252.205 86.6738 252.02 86.8237 252.042 87.0276C252.152 88.0325 253.031 89.0015 254.229 89.4393C255.393 89.8642 256.63 89.7203 257.381 89.0726C257.538 88.9372 257.504 88.7034 257.306 88.55C257.109 88.3967 256.822 88.3821 256.666 88.5166C256.144 88.9672 255.283 89.0675 254.473 88.7719C253.64 88.4678 253.028 87.7935 252.952 87.0944C252.933 86.9351 252.795 86.7912 252.618 86.7269Z" fill="white"/>
<path d="M201.259 48.4947C199.889 51.4521 196.38 52.7389 193.422 51.369C190.465 49.9991 189.178 46.49 190.548 43.5326C191.919 40.5752 195.427 39.2884 198.384 40.6583C201.342 42.0282 202.629 45.5364 201.259 48.4947Z" fill="white"/>
<path d="M194.341 43.2441C194.839 43.4746 195.056 44.0657 194.825 44.5635C194.595 45.0612 194.004 45.278 193.506 45.0475C193.008 44.8171 192.791 44.2259 193.022 43.7282C193.252 43.2304 193.843 43.0137 194.341 43.2441Z" fill="#CDD8FA"/>
<path d="M198.929 45.3705C199.427 45.6009 199.644 46.1921 199.413 46.6898C199.183 47.1876 198.592 47.4043 198.094 47.1739C197.596 46.9434 197.379 46.3523 197.61 45.8545C197.84 45.3559 198.431 45.14 198.929 45.3705Z" fill="#CDD8FA"/>
<path d="M192.954 46.3654C192.906 46.3431 192.855 46.3269 192.801 46.3183C192.56 46.2806 192.37 46.41 192.374 46.6079C192.399 47.5845 193.167 48.5895 194.286 49.1086C195.373 49.6124 196.577 49.5738 197.353 49.0101C197.514 48.8928 197.502 48.664 197.323 48.5004C197.145 48.3367 196.87 48.299 196.708 48.4164C196.169 48.8088 195.332 48.8354 194.575 48.485C193.796 48.1243 193.262 47.4252 193.245 46.7458C193.241 46.5916 193.12 46.4425 192.954 46.3654Z" fill="#CDD8FA"/>
<path d="M23.8456 84.5532C25.0262 87.2322 23.8122 90.361 21.1332 91.5415C18.4543 92.7221 15.3255 91.5081 14.1449 88.8291C12.9644 86.1502 14.1783 83.0214 16.8573 81.8408C19.5363 80.6603 22.6651 81.8751 23.8456 84.5532Z" fill="white"/>
<path d="M16.2007 86.0992C16.6513 85.9004 17.1782 86.1052 17.377 86.5558C17.5757 87.0064 17.371 87.5333 16.9204 87.7321C16.4697 87.9308 15.9428 87.7261 15.7441 87.2754C15.5453 86.8248 15.7492 86.2988 16.2007 86.0992Z" fill="#CDD8FA"/>
<path d="M20.3558 84.268C20.8065 84.0692 21.3334 84.274 21.5321 84.7246C21.7309 85.1753 21.5261 85.7021 21.0755 85.9009C20.6249 86.0997 20.098 85.8949 19.8992 85.4443C19.7005 84.9936 19.9052 84.4667 20.3558 84.268Z" fill="#CDD8FA"/>
<path d="M17.4806 88.889C17.4369 88.9079 17.3958 88.9336 17.3581 88.9644C17.1902 89.104 17.1636 89.3097 17.3007 89.4236C17.9741 89.9873 19.1067 90.0653 20.1211 89.6181C21.1054 89.1837 21.7934 88.3501 21.8739 87.4926C21.8911 87.3135 21.7291 87.1876 21.5132 87.2098C21.2973 87.2321 21.1089 87.3957 21.0917 87.5748C21.036 88.1711 20.5571 88.7519 19.8718 89.0535C19.1667 89.3645 18.3776 89.3105 17.9099 88.9181C17.8036 88.8299 17.6314 88.8222 17.4806 88.889Z" fill="#CDD8FA"/>
<path d="M313.577 125.36L316.018 133.123C316.111 133.42 315.947 133.734 315.651 133.827L302.158 138.069C301.862 138.162 301.548 137.998 301.454 137.702L299.013 129.938C298.92 129.642 299.085 129.327 299.38 129.235L312.874 124.992C313.169 124.9 313.484 125.064 313.577 125.36Z" fill="#CDD8FA"/>
<path d="M313.577 125.359L313.712 125.789L308.952 132.137C308.495 132.771 307.68 133.036 306.938 132.789L299.09 130.183L299.013 129.938C298.921 129.642 299.084 129.327 299.38 129.234L312.872 124.992C313.169 124.9 313.483 125.064 313.577 125.359Z" fill="white"/>
<path d="M223.159 16.9612L219.987 25.1524C219.866 25.4642 219.516 25.6193 219.204 25.4985L204.968 19.9855C204.656 19.8647 204.501 19.5143 204.623 19.2024L207.794 11.0113C207.915 10.6994 208.265 10.5444 208.577 10.6652L222.813 16.1782C223.125 16.299 223.279 16.6494 223.159 16.9612Z" fill="#CDD8FA"/>
<path d="M223.159 16.9612L222.983 17.4144L214.693 19.5614C213.881 19.7884 213.014 19.462 212.555 18.7544L207.693 11.27L207.794 11.0113C207.914 10.6994 208.266 10.5444 208.577 10.6652L222.813 16.1773C223.125 16.2981 223.28 16.6494 223.159 16.9612Z" fill="white"/>
<path d="M129.375 67.5113C129.342 67.3185 129.357 67.1301 129.406 66.9527C129.637 65.2084 132.071 64.9137 135.49 64.242C136.061 64.1298 135.616 63.5113 135.161 62.0651C134.864 61.1244 135.234 59.5378 136.282 59.357C138.011 59.0597 136.582 60.7038 138.689 63.7983C139.814 65.4517 141.468 64.1324 141.778 65.9349L142.484 70.0378C142.605 70.7394 142.652 71.4257 141.68 71.7067C140.737 71.98 141.07 72.6242 139.685 72.8624L132.748 74.0567C132.041 74.1783 131.368 73.7046 131.247 73.0012C131.197 72.7099 131.254 72.4263 131.383 72.183C130.952 72.0322 130.612 71.6656 130.53 71.1875C130.48 70.8962 130.537 70.6135 130.665 70.3702C130.234 70.2194 129.893 69.8536 129.81 69.3738C129.75 69.026 129.838 68.6859 130.026 68.416C129.696 68.2327 129.445 67.9114 129.375 67.5113Z" fill="white"/>
<path d="M134.184 67.9968L130.877 68.5665C130.427 68.6437 129.963 68.4766 129.667 68.1313C129.545 67.9891 129.562 67.7741 129.706 67.6524C129.849 67.5308 130.065 67.5479 130.188 67.691C130.328 67.8555 130.549 67.9343 130.762 67.8974L134.148 67.3149C134.484 67.2575 134.71 66.9388 134.653 66.6046C134.596 66.2705 134.276 66.0461 133.94 66.1035L131.677 66.4933C131.491 66.525 131.314 66.4016 131.283 66.2166C131.251 66.0315 131.376 65.8559 131.561 65.8242L133.825 65.4344C134.531 65.3127 135.205 65.7856 135.326 66.4898C135.393 66.8822 135.27 67.2609 135.03 67.5436C135.307 67.7347 135.509 68.0302 135.57 68.3858C135.637 68.779 135.514 69.1594 135.272 69.4413C135.547 69.6323 135.747 69.927 135.808 70.2817C135.882 70.7101 135.732 71.1256 135.445 71.4134C135.685 71.6045 135.862 71.8761 135.918 72.2008C136.038 72.9041 135.562 73.575 134.856 73.6966L132.748 74.059C132.298 74.1361 131.834 73.9699 131.538 73.6238C131.416 73.4816 131.433 73.2665 131.577 73.1449C131.721 73.0232 131.936 73.0395 132.057 73.1826C132.199 73.3471 132.419 73.4259 132.632 73.389L134.74 73.0267C135.076 72.9693 135.302 72.6497 135.245 72.3164C135.188 71.9823 134.868 71.7578 134.532 71.8152L132.032 72.2453C131.582 72.3224 131.117 72.1562 130.822 71.8101C130.699 71.667 130.716 71.4529 130.86 71.3312C131.005 71.2078 131.22 71.2258 131.341 71.3689C131.484 71.536 131.699 71.6131 131.916 71.5762L134.631 71.1093C134.967 71.0519 135.193 70.7323 135.135 70.3982C135.078 70.0641 134.758 69.8396 134.423 69.897L131.312 70.4325C130.862 70.5096 130.399 70.3434 130.102 69.9973C129.98 69.8551 129.997 69.64 130.141 69.5184C130.285 69.3967 130.5 69.413 130.622 69.5561C130.765 69.7231 130.98 69.8002 131.197 69.7625L134.393 69.2125C134.728 69.1551 134.955 68.8356 134.897 68.5014C134.84 68.1639 134.52 67.9394 134.184 67.9968Z" fill="#BDCDFF"/>
<path d="M142.69 71.851L144.85 71.4792C145.149 71.4278 145.35 71.1434 145.298 70.8444L144.193 64.4258C144.142 64.1268 143.858 63.9255 143.559 63.9777L141.399 64.3496C141.1 64.401 140.898 64.6854 140.951 64.9844L142.055 71.403C142.106 71.702 142.391 71.9024 142.69 71.851Z" fill="#BDCDFF"/>
<path d="M280.872 17.3464C280.919 17.1571 280.917 16.9678 280.88 16.787C280.771 15.0307 278.363 14.5681 274.999 13.6599C274.436 13.5083 274.922 12.9223 275.478 11.5113C275.84 10.5937 275.582 8.9848 274.548 8.73207C272.844 8.31484 274.156 10.0549 271.839 12.996C270.601 14.5672 269.043 13.1365 268.609 14.9125L267.62 18.9562C267.45 19.6476 267.356 20.3287 268.306 20.6774C269.227 21.0149 268.85 21.6352 270.215 21.9693L277.052 23.6425C277.749 23.813 278.453 23.3872 278.623 22.6941C278.693 22.4071 278.656 22.1201 278.545 21.8682C278.984 21.7474 279.348 21.4056 279.464 20.9344C279.534 20.6474 279.497 20.3612 279.386 20.1094C279.826 19.9894 280.192 19.6476 280.307 19.1747C280.391 18.832 280.327 18.4867 280.159 18.204C280.503 18.0438 280.775 17.7414 280.872 17.3464Z" fill="#E3EAFF"/>
<path d="M276.042 17.4973L279.301 18.2949C279.745 18.4037 280.219 18.2692 280.538 17.9445C280.67 17.8109 280.668 17.5958 280.532 17.4639C280.398 17.332 280.182 17.3345 280.05 17.4682C279.898 17.6224 279.673 17.6858 279.463 17.6344L276.125 16.8179C275.795 16.7374 275.591 16.4033 275.671 16.0743C275.752 15.7453 276.087 15.5431 276.418 15.6237L278.649 16.1694C278.832 16.2139 279.016 16.1026 279.061 15.9201C279.105 15.7376 278.993 15.5534 278.81 15.5089L276.579 14.9631C275.882 14.7926 275.178 15.2184 275.008 15.9115C274.914 16.2979 275.01 16.6843 275.23 16.9833C274.941 17.1546 274.719 17.4356 274.633 17.786C274.538 18.1741 274.636 18.5614 274.857 18.8604C274.57 19.0317 274.349 19.3119 274.263 19.6614C274.159 20.0838 274.28 20.5087 274.547 20.8154C274.294 20.9893 274.098 21.248 274.02 21.5676C273.851 22.2607 274.279 22.9632 274.976 23.1337L277.053 23.6417C277.496 23.7505 277.971 23.616 278.29 23.2922C278.422 23.1585 278.42 22.9435 278.285 22.8116C278.15 22.6805 277.934 22.6814 277.803 22.8159C277.65 22.9701 277.425 23.0335 277.215 22.9821L275.138 22.474C274.807 22.3926 274.603 22.0594 274.684 21.7304C274.764 21.4014 275.099 21.1992 275.43 21.2797L277.895 21.8829C278.338 21.9917 278.812 21.8572 279.132 21.5325C279.264 21.3988 279.261 21.1829 279.127 21.0519C278.991 20.9182 278.775 20.9216 278.644 21.0553C278.49 21.2121 278.27 21.2746 278.056 21.2223L275.379 20.5678C275.049 20.4873 274.846 20.1532 274.926 19.8233C275.007 19.4943 275.342 19.2921 275.672 19.3727L278.738 20.1232C279.181 20.232 279.656 20.0975 279.976 19.7736C280.108 19.64 280.105 19.4249 279.97 19.293C279.835 19.1619 279.619 19.1628 279.488 19.2964C279.334 19.4532 279.114 19.5149 278.9 19.4626L275.75 18.6916C275.42 18.6111 275.216 18.2769 275.296 17.9479C275.376 17.619 275.71 17.4168 276.042 17.4973Z" fill="#BDCDFF"/>
<path d="M267.289 20.753L265.16 20.2321C264.865 20.1601 264.684 19.8628 264.756 19.5673L266.304 13.2412C266.376 12.9465 266.673 12.7657 266.969 12.8377L269.098 13.3586C269.393 13.4305 269.573 13.7278 269.501 14.0234L267.953 20.3495C267.881 20.6442 267.583 20.8249 267.289 20.753Z" fill="#BDCDFF"/>
<path d="M198.178 111.365C198.658 109.334 197.4 107.299 195.369 106.819C193.338 106.339 191.302 107.597 190.823 109.628C190.343 111.659 191.601 113.695 193.632 114.174C195.663 114.654 197.698 113.396 198.178 111.365Z" fill="white"/>
<path d="M104.769 17.0829C106.249 17.0829 107.449 15.8831 107.449 14.4031C107.449 12.9231 106.249 11.7233 104.769 11.7233C103.289 11.7233 102.089 12.9231 102.089 14.4031C102.089 15.8831 103.289 17.0829 104.769 17.0829Z" fill="white"/>
<path d="M323.214 82.0166C322.168 83.0626 320.471 83.0626 319.425 82.0166C318.379 80.9705 318.379 79.2734 319.425 78.2273C320.471 77.1812 322.168 77.1812 323.214 78.2273C324.261 79.2734 324.261 80.9697 323.214 82.0166Z" fill="#E3EAFF"/>
<path d="M200.407 12.5191C199.361 13.5652 197.664 13.5652 196.618 12.5191C195.571 11.4731 195.571 9.77592 196.618 8.72986C197.664 7.6838 199.361 7.6838 200.407 8.72986C201.453 9.77592 201.453 11.4722 200.407 12.5191Z" fill="#E3EAFF"/>
<path d="M202.514 107.256C200.978 107.256 199.728 106.006 199.728 104.47C199.728 102.934 200.978 101.684 202.514 101.684C204.05 101.684 205.3 102.934 205.3 104.47C205.3 106.006 204.05 107.256 202.514 107.256ZM202.514 102.751C201.566 102.751 200.794 103.522 200.794 104.471C200.794 105.418 201.565 106.19 202.514 106.19C203.462 106.19 204.233 105.419 204.233 104.471C204.233 103.522 203.462 102.751 202.514 102.751Z" fill="white"/>
<path d="M317.8 93.0835C315.859 93.0835 314.279 91.5046 314.279 89.5632C314.279 87.6219 315.858 86.043 317.8 86.043C319.741 86.043 321.32 87.6219 321.32 89.5632C321.32 91.5046 319.741 93.0835 317.8 93.0835ZM317.8 87.3915C316.602 87.3915 315.628 88.3664 315.628 89.5632C315.628 90.7601 316.602 91.7351 317.8 91.7351C318.997 91.7351 319.971 90.7601 319.971 89.5632C319.971 88.3664 318.997 87.3915 317.8 87.3915Z" fill="#E3EAFF"/>
</svg>
