<svg width="25" height="23" viewBox="0 0 25 23" fill="none" xmlns="http://www.w3.org/2000/svg">
<path d="M2.21525 3.03305C5.03573 0.242033 9.5296 0.116182 12.501 2.6555C15.4705 0.116182 19.9644 0.242033 22.7848 3.03305C25.6002 5.81907 25.7319 10.2551 23.18 13.1956L14.1456 22.1665C13.278 23.0249 11.896 23.0639 10.9818 22.2835L10.8545 22.1665L1.81995 13.1956C-0.731946 10.2551 -0.600181 5.81907 2.21525 3.03305ZM3.86081 4.66142C1.87438 6.62709 1.81764 9.77913 3.69055 11.8127L3.86081 11.9891L12.5001 20.538L18.6701 14.4308L14.5569 10.3607L13.3228 11.582C11.9596 12.931 9.74933 12.931 8.38611 11.582C7.02288 10.233 7.02288 8.04588 8.38611 6.69689L10.831 4.276C8.83815 2.69727 5.94994 2.76958 4.03914 4.49293L3.86081 4.66142ZM13.7342 7.91817C14.1885 7.4685 14.9253 7.4685 15.3797 7.91817L20.3156 12.8025L21.1392 11.9891C23.184 9.96567 23.184 6.68491 21.1392 4.66142C19.1528 2.69575 15.9674 2.6396 13.9125 4.49293L13.7342 4.66142L10.0317 8.32526C9.60971 8.74281 9.57957 9.40126 9.94125 9.85317L10.0317 9.95369C10.4537 10.3712 11.119 10.401 11.5757 10.0432L11.6773 9.95369L13.7342 7.91817Z" fill="white"/>
</svg>
